<?xml version="1.0" encoding="UTF-8"?>
<svg xmlns="http://www.w3.org/2000/svg" version="1.1" width="200" height="200" viewBox="0 0 200 200"><rect x="0" y="0" width="200" height="200" fill="#ffffff"/><g transform="scale(2.532)"><g transform="translate(1,1)"><path fill-rule="evenodd" d="M8 0L8 2L10 2L10 1L12 1L12 0L10 0L10 1L9 1L9 0ZM13 0L13 2L11 2L11 3L8 3L8 4L10 4L10 5L9 5L9 6L8 6L8 8L5 8L5 10L6 10L6 11L5 11L5 14L4 14L4 11L2 11L2 10L4 10L4 8L2 8L2 9L1 9L1 8L0 8L0 9L1 9L1 10L0 10L0 11L1 11L1 13L0 13L0 14L1 14L1 13L2 13L2 12L3 12L3 14L4 14L4 18L3 18L3 19L4 19L4 20L5 20L5 22L4 22L4 21L3 21L3 20L0 20L0 21L2 21L2 22L4 22L4 23L1 23L1 24L0 24L0 25L3 25L3 26L1 26L1 28L0 28L0 32L3 32L3 33L4 33L4 36L1 36L1 35L2 35L2 33L1 33L1 34L0 34L0 37L1 37L1 38L5 38L5 39L3 39L3 41L2 41L2 42L1 42L1 43L7 43L7 44L5 44L5 45L4 45L4 47L3 47L3 46L2 46L2 47L3 47L3 48L4 48L4 51L3 51L3 52L1 52L1 51L0 51L0 52L1 52L1 53L3 53L3 52L4 52L4 53L7 53L7 54L6 54L6 55L5 55L5 54L4 54L4 55L3 55L3 54L1 54L1 55L0 55L0 57L1 57L1 58L0 58L0 60L2 60L2 61L1 61L1 63L0 63L0 64L1 64L1 63L3 63L3 64L2 64L2 65L1 65L1 67L2 67L2 65L3 65L3 66L4 66L4 68L1 68L1 69L5 69L5 67L7 67L7 68L6 68L6 69L8 69L8 72L10 72L10 71L9 71L9 70L13 70L13 71L11 71L11 72L12 72L12 73L13 73L13 77L14 77L14 76L15 76L15 75L14 75L14 73L15 73L15 74L16 74L16 76L18 76L18 77L19 77L19 75L20 75L20 74L21 74L21 73L22 73L22 75L21 75L21 76L20 76L20 77L23 77L23 76L22 76L22 75L24 75L24 76L25 76L25 75L26 75L26 74L24 74L24 73L29 73L29 75L28 75L28 76L27 76L27 77L28 77L28 76L29 76L29 77L30 77L30 76L31 76L31 77L34 77L34 76L33 76L33 75L34 75L34 72L36 72L36 73L37 73L37 72L38 72L38 74L37 74L37 75L36 75L36 76L35 76L35 77L36 77L36 76L37 76L37 77L40 77L40 76L41 76L41 75L42 75L42 73L43 73L43 75L44 75L44 74L46 74L46 73L47 73L47 74L50 74L50 75L48 75L48 77L49 77L49 76L51 76L51 74L50 74L50 73L53 73L53 75L52 75L52 77L54 77L54 76L57 76L57 77L60 77L60 76L59 76L59 75L60 75L60 74L61 74L61 73L58 73L58 72L60 72L60 71L59 71L59 70L60 70L60 69L63 69L63 72L62 72L62 73L63 73L63 74L64 74L64 76L65 76L65 75L66 75L66 76L67 76L67 77L70 77L70 76L69 76L69 75L68 75L68 74L70 74L70 75L71 75L71 74L73 74L73 76L74 76L74 77L76 77L76 75L77 75L77 74L76 74L76 75L75 75L75 73L77 73L77 72L75 72L75 73L74 73L74 74L73 74L73 71L75 71L75 70L77 70L77 67L73 67L73 68L72 68L72 65L73 65L73 66L77 66L77 65L76 65L76 64L75 64L75 65L73 65L73 62L71 62L71 61L72 61L72 60L71 60L71 61L70 61L70 60L69 60L69 58L68 58L68 56L69 56L69 57L70 57L70 58L73 58L73 61L74 61L74 59L75 59L75 58L77 58L77 57L76 57L76 56L77 56L77 55L76 55L76 56L75 56L75 55L73 55L73 54L70 54L70 52L69 52L69 51L71 51L71 52L72 52L72 53L73 53L73 52L74 52L74 51L75 51L75 52L76 52L76 53L77 53L77 49L76 49L76 51L75 51L75 50L74 50L74 49L75 49L75 48L77 48L77 47L76 47L76 46L77 46L77 45L75 45L75 43L76 43L76 41L74 41L74 40L73 40L73 41L72 41L72 43L71 43L71 41L70 41L70 42L67 42L67 41L69 41L69 40L68 40L68 39L69 39L69 37L70 37L70 36L71 36L71 37L73 37L73 36L74 36L74 38L71 38L71 40L72 40L72 39L74 39L74 38L76 38L76 39L77 39L77 38L76 38L76 36L77 36L77 35L76 35L76 34L77 34L77 31L76 31L76 33L74 33L74 32L75 32L75 30L74 30L74 29L75 29L75 28L74 28L74 27L73 27L73 25L74 25L74 26L75 26L75 27L77 27L77 26L76 26L76 24L72 24L72 23L71 23L71 24L70 24L70 22L72 22L72 18L73 18L73 17L74 17L74 19L73 19L73 21L74 21L74 22L73 22L73 23L74 23L74 22L75 22L75 21L76 21L76 22L77 22L77 21L76 21L76 16L77 16L77 14L76 14L76 12L75 12L75 15L76 15L76 16L75 16L75 17L74 17L74 16L73 16L73 15L74 15L74 14L72 14L72 15L71 15L71 13L70 13L70 12L69 12L69 13L68 13L68 11L69 11L69 10L70 10L70 9L71 9L71 12L72 12L72 13L74 13L74 12L72 12L72 11L73 11L73 10L74 10L74 11L76 11L76 10L77 10L77 8L75 8L75 10L74 10L74 8L73 8L73 9L71 9L71 8L70 8L70 9L69 9L69 6L68 6L68 10L67 10L67 11L66 11L66 12L64 12L64 11L65 11L65 10L64 10L64 9L65 9L65 8L66 8L66 7L67 7L67 5L69 5L69 1L68 1L68 4L65 4L65 3L66 3L66 2L67 2L67 1L66 1L66 0L65 0L65 1L64 1L64 0L62 0L62 1L63 1L63 2L62 2L62 3L61 3L61 2L58 2L58 0L57 0L57 2L56 2L56 4L55 4L55 5L56 5L56 7L55 7L55 6L54 6L54 4L53 4L53 5L52 5L52 3L53 3L53 2L54 2L54 3L55 3L55 2L54 2L54 1L53 1L53 0L50 0L50 1L49 1L49 3L50 3L50 4L48 4L48 3L47 3L47 2L48 2L48 0L47 0L47 2L46 2L46 3L47 3L47 4L45 4L45 5L46 5L46 7L45 7L45 6L44 6L44 3L45 3L45 0L44 0L44 3L43 3L43 5L42 5L42 4L40 4L40 3L39 3L39 4L38 4L38 3L37 3L37 2L39 2L39 1L37 1L37 0L35 0L35 1L34 1L34 0L30 0L30 1L29 1L29 2L31 2L31 3L29 3L29 4L26 4L26 3L27 3L27 2L28 2L28 0L27 0L27 1L26 1L26 0L25 0L25 1L24 1L24 0L23 0L23 1L21 1L21 0ZM42 0L42 2L43 2L43 0ZM16 1L16 2L17 2L17 3L15 3L15 5L14 5L14 4L13 4L13 3L12 3L12 5L14 5L14 6L13 6L13 7L12 7L12 6L11 6L11 5L10 5L10 6L9 6L9 8L8 8L8 9L9 9L9 10L11 10L11 11L9 11L9 14L7 14L7 13L6 13L6 14L7 14L7 15L5 15L5 19L6 19L6 20L8 20L8 21L6 21L6 22L5 22L5 23L4 23L4 24L7 24L7 23L8 23L8 24L10 24L10 26L9 26L9 27L10 27L10 28L9 28L9 30L8 30L8 31L9 31L9 33L6 33L6 32L7 32L7 31L6 31L6 30L7 30L7 29L6 29L6 30L4 30L4 28L3 28L3 27L2 27L2 28L1 28L1 29L3 29L3 30L4 30L4 31L6 31L6 32L5 32L5 33L6 33L6 34L5 34L5 35L6 35L6 36L7 36L7 37L5 37L5 36L4 36L4 37L5 37L5 38L7 38L7 39L6 39L6 40L7 40L7 41L6 41L6 42L7 42L7 43L9 43L9 41L10 41L10 40L9 40L9 39L10 39L10 34L11 34L11 36L12 36L12 33L13 33L13 35L14 35L14 36L16 36L16 38L19 38L19 39L20 39L20 40L19 40L19 41L17 41L17 42L16 42L16 41L14 41L14 39L15 39L15 40L18 40L18 39L15 39L15 38L13 38L13 37L12 37L12 38L11 38L11 40L12 40L12 38L13 38L13 41L12 41L12 42L10 42L10 43L11 43L11 44L10 44L10 45L9 45L9 47L11 47L11 46L12 46L12 49L10 49L10 48L9 48L9 50L12 50L12 51L9 51L9 52L7 52L7 51L6 51L6 52L7 52L7 53L8 53L8 54L9 54L9 56L10 56L10 57L11 57L11 54L12 54L12 56L13 56L13 58L14 58L14 59L13 59L13 60L12 60L12 61L10 61L10 62L7 62L7 61L6 61L6 60L7 60L7 59L6 59L6 58L7 58L7 57L5 57L5 58L4 58L4 57L2 57L2 60L3 60L3 61L2 61L2 62L3 62L3 61L4 61L4 63L6 63L6 64L5 64L5 66L8 66L8 64L9 64L9 66L11 66L11 65L12 65L12 64L14 64L14 65L13 65L13 67L12 67L12 69L13 69L13 70L14 70L14 72L15 72L15 73L16 73L16 74L17 74L17 75L19 75L19 74L20 74L20 72L22 72L22 73L24 73L24 71L23 71L23 70L24 70L24 69L23 69L23 70L21 70L21 71L20 71L20 68L19 68L19 66L21 66L21 65L22 65L22 67L23 67L23 65L22 65L22 63L23 63L23 64L24 64L24 66L25 66L25 68L27 68L27 67L26 67L26 65L27 65L27 66L28 66L28 67L29 67L29 66L28 66L28 65L27 65L27 64L29 64L29 65L30 65L30 67L33 67L33 68L32 68L32 70L31 70L31 72L29 72L29 73L30 73L30 74L31 74L31 73L33 73L33 72L32 72L32 70L33 70L33 71L34 71L34 70L35 70L35 71L36 71L36 72L37 72L37 71L39 71L39 75L40 75L40 73L41 73L41 72L44 72L44 73L46 73L46 71L45 71L45 72L44 72L44 71L43 71L43 70L42 70L42 71L41 71L41 70L39 70L39 69L38 69L38 70L37 70L37 68L38 68L38 67L37 67L37 68L36 68L36 70L35 70L35 69L33 69L33 68L34 68L34 64L35 64L35 66L39 66L39 68L40 68L40 67L41 67L41 68L42 68L42 69L43 69L43 68L44 68L44 69L45 69L45 70L46 70L46 69L45 69L45 65L46 65L46 64L47 64L47 63L48 63L48 66L46 66L46 67L48 67L48 66L49 66L49 65L50 65L50 67L49 67L49 68L50 68L50 67L51 67L51 66L54 66L54 68L53 68L53 67L52 67L52 68L51 68L51 70L53 70L53 73L55 73L55 74L56 74L56 75L57 75L57 76L58 76L58 73L57 73L57 74L56 74L56 70L57 70L57 69L60 69L60 67L59 67L59 66L60 66L60 65L62 65L62 61L63 61L63 60L62 60L62 61L60 61L60 60L59 60L59 61L60 61L60 62L58 62L58 61L56 61L56 60L58 60L58 59L53 59L53 58L56 58L56 57L55 57L55 56L54 56L54 55L56 55L56 56L57 56L57 57L59 57L59 59L61 59L61 58L62 58L62 56L64 56L64 55L65 55L65 54L67 54L67 55L68 55L68 53L69 53L69 52L67 52L67 50L68 50L68 49L67 49L67 48L68 48L68 45L67 45L67 44L68 44L68 43L67 43L67 42L66 42L66 41L65 41L65 40L66 40L66 39L67 39L67 38L68 38L68 37L69 37L69 35L68 35L68 37L67 37L67 36L65 36L65 35L67 35L67 34L69 34L69 33L71 33L71 32L72 32L72 33L73 33L73 35L72 35L72 34L70 34L70 35L71 35L71 36L73 36L73 35L74 35L74 36L75 36L75 34L74 34L74 33L73 33L73 31L74 31L74 30L73 30L73 29L74 29L74 28L73 28L73 29L72 29L72 30L70 30L70 31L69 31L69 33L67 33L67 29L68 29L68 30L69 30L69 29L68 29L68 28L67 28L67 27L66 27L66 26L67 26L67 25L68 25L68 24L69 24L69 23L68 23L68 21L69 21L69 22L70 22L70 20L71 20L71 18L70 18L70 20L68 20L68 19L69 19L69 17L71 17L71 16L70 16L70 13L69 13L69 14L68 14L68 13L66 13L66 16L65 16L65 13L62 13L62 12L59 12L59 11L58 11L58 10L57 10L57 9L58 9L58 6L59 6L59 7L60 7L60 8L59 8L59 10L60 10L60 11L61 11L61 10L63 10L63 9L64 9L64 6L65 6L65 7L66 7L66 6L65 6L65 4L63 4L63 5L64 5L64 6L63 6L63 8L61 8L61 7L62 7L62 4L61 4L61 3L59 3L59 4L56 4L56 5L57 5L57 7L56 7L56 10L55 10L55 7L54 7L54 6L53 6L53 7L54 7L54 8L53 8L53 11L54 11L54 12L52 12L52 13L51 13L51 11L50 11L50 12L48 12L48 11L44 11L44 10L45 10L45 9L46 9L46 10L47 10L47 9L46 9L46 8L44 8L44 10L41 10L41 11L38 11L38 10L39 10L39 9L40 9L40 5L39 5L39 7L38 7L38 5L37 5L37 4L35 4L35 3L36 3L36 2L37 2L37 1L36 1L36 2L35 2L35 3L34 3L34 2L33 2L33 3L32 3L32 4L33 4L33 5L36 5L36 6L35 6L35 7L34 7L34 6L33 6L33 7L32 7L32 6L31 6L31 7L30 7L30 6L29 6L29 9L28 9L28 10L27 10L27 9L26 9L26 10L25 10L25 9L24 9L24 8L22 8L22 6L21 6L21 5L24 5L24 1L23 1L23 2L21 2L21 1L20 1L20 2L21 2L21 3L23 3L23 4L21 4L21 5L20 5L20 6L19 6L19 7L20 7L20 8L18 8L18 6L17 6L17 7L16 7L16 6L15 6L15 5L16 5L16 4L17 4L17 5L18 5L18 3L19 3L19 4L20 4L20 3L19 3L19 1ZM25 1L25 3L26 3L26 1ZM31 1L31 2L32 2L32 1ZM50 1L50 2L52 2L52 1ZM57 2L57 3L58 3L58 2ZM63 2L63 3L65 3L65 2ZM29 4L29 5L31 5L31 4ZM60 4L60 5L59 5L59 6L60 6L60 7L61 7L61 4ZM25 5L25 8L28 8L28 5ZM41 5L41 9L43 9L43 7L44 7L44 6L43 6L43 7L42 7L42 5ZM47 5L47 8L50 8L50 5ZM10 6L10 8L9 8L9 9L11 9L11 10L12 10L12 9L14 9L14 10L13 10L13 12L12 12L12 13L11 13L11 14L12 14L12 16L11 16L11 18L12 18L12 19L10 19L10 18L8 18L8 17L9 17L9 16L8 16L8 17L7 17L7 16L6 16L6 17L7 17L7 18L6 18L6 19L7 19L7 18L8 18L8 20L9 20L9 21L8 21L8 23L9 23L9 21L10 21L10 20L12 20L12 19L13 19L13 18L14 18L14 19L16 19L16 20L13 20L13 22L12 22L12 21L11 21L11 22L10 22L10 23L11 23L11 24L13 24L13 25L11 25L11 26L12 26L12 30L14 30L14 29L15 29L15 30L17 30L17 31L16 31L16 32L15 32L15 33L14 33L14 34L16 34L16 35L17 35L17 37L18 37L18 35L17 35L17 34L19 34L19 37L20 37L20 39L21 39L21 41L19 41L19 42L18 42L18 44L15 44L15 43L14 43L14 44L13 44L13 46L14 46L14 44L15 44L15 45L17 45L17 46L16 46L16 47L15 47L15 48L13 48L13 49L12 49L12 50L13 50L13 52L11 52L11 53L10 53L10 54L11 54L11 53L12 53L12 54L13 54L13 53L15 53L15 55L16 55L16 56L20 56L20 57L16 57L16 58L15 58L15 56L14 56L14 55L13 55L13 56L14 56L14 58L15 58L15 59L16 59L16 60L15 60L15 61L14 61L14 62L13 62L13 63L14 63L14 64L15 64L15 66L14 66L14 67L13 67L13 69L14 69L14 70L15 70L15 69L17 69L17 71L15 71L15 72L19 72L19 70L18 70L18 65L19 65L19 62L20 62L20 65L21 65L21 62L22 62L22 61L23 61L23 62L24 62L24 64L25 64L25 65L26 65L26 64L27 64L27 63L28 63L28 62L27 62L27 61L26 61L26 60L28 60L28 61L31 61L31 62L34 62L34 61L37 61L37 63L36 63L36 62L35 62L35 64L37 64L37 63L39 63L39 65L40 65L40 66L42 66L42 65L45 65L45 64L46 64L46 63L44 63L44 62L45 62L45 61L47 61L47 60L48 60L48 63L49 63L49 64L50 64L50 63L51 63L51 62L52 62L52 65L53 65L53 64L54 64L54 65L55 65L55 64L54 64L54 61L55 61L55 60L53 60L53 62L52 62L52 60L51 60L51 62L50 62L50 59L51 59L51 58L52 58L52 57L51 57L51 56L52 56L52 54L53 54L53 53L51 53L51 51L52 51L52 50L51 50L51 49L53 49L53 52L55 52L55 50L54 50L54 49L53 49L53 48L52 48L52 47L51 47L51 46L48 46L48 45L47 45L47 44L49 44L49 45L51 45L51 44L52 44L52 45L54 45L54 46L55 46L55 47L54 47L54 48L55 48L55 47L57 47L57 46L58 46L58 48L59 48L59 49L58 49L58 50L59 50L59 52L58 52L58 51L57 51L57 50L56 50L56 52L58 52L58 55L59 55L59 53L60 53L60 54L61 54L61 55L64 55L64 54L65 54L65 53L63 53L63 52L62 52L62 51L61 51L61 52L62 52L62 53L60 53L60 50L61 50L61 47L60 47L60 48L59 48L59 46L58 46L58 45L59 45L59 44L57 44L57 45L56 45L56 44L55 44L55 45L54 45L54 43L53 43L53 42L54 42L54 41L56 41L56 42L55 42L55 43L57 43L57 41L58 41L58 43L59 43L59 42L60 42L60 46L61 46L61 45L63 45L63 47L62 47L62 48L63 48L63 49L62 49L62 50L63 50L63 49L65 49L65 50L64 50L64 52L65 52L65 51L66 51L66 50L67 50L67 49L66 49L66 48L63 48L63 47L64 47L64 46L65 46L65 45L66 45L66 46L67 46L67 45L66 45L66 44L67 44L67 43L66 43L66 42L65 42L65 41L64 41L64 42L63 42L63 41L62 41L62 40L61 40L61 39L63 39L63 40L65 40L65 39L66 39L66 37L65 37L65 36L64 36L64 35L63 35L63 36L62 36L62 35L61 35L61 33L62 33L62 34L63 34L63 33L62 33L62 31L63 31L63 32L64 32L64 33L65 33L65 32L66 32L66 31L65 31L65 29L66 29L66 28L65 28L65 26L66 26L66 25L67 25L67 24L68 24L68 23L67 23L67 22L66 22L66 23L67 23L67 24L65 24L65 22L64 22L64 23L63 23L63 22L61 22L61 21L63 21L63 20L64 20L64 21L66 21L66 19L65 19L65 20L64 20L64 18L66 18L66 17L67 17L67 18L68 18L68 17L69 17L69 16L66 16L66 17L65 17L65 16L64 16L64 14L62 14L62 16L64 16L64 18L63 18L63 20L62 20L62 17L60 17L60 16L61 16L61 13L60 13L60 14L59 14L59 13L58 13L58 12L57 12L57 10L56 10L56 13L55 13L55 14L54 14L54 13L53 13L53 14L52 14L52 15L53 15L53 14L54 14L54 16L53 16L53 17L51 17L51 19L50 19L50 17L49 17L49 16L51 16L51 15L50 15L50 14L49 14L49 13L48 13L48 12L47 12L47 13L48 13L48 15L46 15L46 16L45 16L45 14L44 14L44 11L43 11L43 14L42 14L42 13L41 13L41 14L40 14L40 15L39 15L39 13L40 13L40 12L38 12L38 13L37 13L37 11L36 11L36 12L35 12L35 11L34 11L34 9L36 9L36 10L38 10L38 9L39 9L39 8L38 8L38 9L36 9L36 8L37 8L37 6L36 6L36 7L35 7L35 8L33 8L33 9L32 9L32 7L31 7L31 8L30 8L30 11L31 11L31 12L29 12L29 13L28 13L28 11L27 11L27 10L26 10L26 11L25 11L25 10L24 10L24 11L22 11L22 10L23 10L23 9L22 9L22 8L21 8L21 9L20 9L20 11L21 11L21 12L25 12L25 13L26 13L26 12L27 12L27 14L28 14L28 16L27 16L27 15L26 15L26 14L24 14L24 16L23 16L23 18L24 18L24 19L25 19L25 20L24 20L24 21L23 21L23 19L21 19L21 20L22 20L22 22L20 22L20 20L18 20L18 19L19 19L19 18L22 18L22 17L21 17L21 16L22 16L22 15L23 15L23 13L22 13L22 14L21 14L21 13L19 13L19 11L18 11L18 10L17 10L17 11L16 11L16 12L15 12L15 10L16 10L16 8L14 8L14 7L15 7L15 6L14 6L14 7L13 7L13 8L12 8L12 7L11 7L11 6ZM20 6L20 7L21 7L21 6ZM23 6L23 7L24 7L24 6ZM26 6L26 7L27 7L27 6ZM48 6L48 7L49 7L49 6ZM51 6L51 7L52 7L52 6ZM11 8L11 9L12 9L12 8ZM51 8L51 10L52 10L52 8ZM60 8L60 10L61 10L61 8ZM6 9L6 10L7 10L7 11L6 11L6 12L7 12L7 11L8 11L8 10L7 10L7 9ZM31 9L31 11L32 11L32 9ZM49 9L49 10L50 10L50 9ZM54 10L54 11L55 11L55 10ZM33 11L33 12L32 12L32 13L34 13L34 14L33 14L33 15L32 15L32 14L31 14L31 13L30 13L30 15L29 15L29 16L28 16L28 17L27 17L27 18L26 18L26 15L25 15L25 18L26 18L26 20L25 20L25 21L24 21L24 22L22 22L22 24L21 24L21 23L20 23L20 22L18 22L18 23L17 23L17 22L16 22L16 21L14 21L14 23L15 23L15 22L16 22L16 23L17 23L17 24L16 24L16 26L15 26L15 25L13 25L13 27L14 27L14 26L15 26L15 27L16 27L16 26L17 26L17 25L18 25L18 23L19 23L19 24L21 24L21 27L19 27L19 26L20 26L20 25L19 25L19 26L18 26L18 27L19 27L19 28L18 28L18 29L17 29L17 30L18 30L18 31L17 31L17 32L20 32L20 33L21 33L21 34L20 34L20 37L21 37L21 38L22 38L22 39L23 39L23 40L22 40L22 41L21 41L21 42L22 42L22 43L21 43L21 46L20 46L20 43L19 43L19 44L18 44L18 45L19 45L19 46L20 46L20 48L19 48L19 49L17 49L17 50L15 50L15 51L16 51L16 52L15 52L15 53L17 53L17 55L18 55L18 53L17 53L17 50L18 50L18 51L19 51L19 50L20 50L20 48L22 48L22 50L23 50L23 51L22 51L22 52L23 52L23 53L22 53L22 54L20 54L20 53L21 53L21 52L20 52L20 53L19 53L19 54L20 54L20 56L22 56L22 57L20 57L20 58L19 58L19 59L18 59L18 58L17 58L17 60L16 60L16 62L15 62L15 64L16 64L16 66L15 66L15 67L14 67L14 69L15 69L15 67L17 67L17 64L18 64L18 63L17 63L17 60L18 60L18 61L20 61L20 62L21 62L21 61L20 61L20 60L21 60L21 59L20 59L20 58L22 58L22 60L23 60L23 61L25 61L25 62L26 62L26 61L25 61L25 60L26 60L26 59L25 59L25 58L24 58L24 56L25 56L25 57L26 57L26 58L28 58L28 59L29 59L29 60L31 60L31 61L33 61L33 60L31 60L31 59L34 59L34 60L35 60L35 58L36 58L36 59L38 59L38 60L37 60L37 61L38 61L38 60L40 60L40 61L39 61L39 63L40 63L40 61L42 61L42 62L44 62L44 61L45 61L45 60L47 60L47 59L48 59L48 60L49 60L49 58L51 58L51 57L50 57L50 55L51 55L51 54L50 54L50 55L49 55L49 57L48 57L48 54L47 54L47 56L46 56L46 55L45 55L45 54L46 54L46 53L45 53L45 54L43 54L43 53L41 53L41 52L40 52L40 51L39 51L39 50L38 50L38 52L37 52L37 50L36 50L36 49L35 49L35 52L34 52L34 50L32 50L32 49L33 49L33 48L32 48L32 47L34 47L34 48L35 48L35 47L37 47L37 44L38 44L38 43L39 43L39 44L41 44L41 45L38 45L38 46L39 46L39 47L38 47L38 49L40 49L40 50L41 50L41 51L42 51L42 50L43 50L43 51L44 51L44 52L47 52L47 51L46 51L46 50L45 50L45 49L43 49L43 48L42 48L42 49L41 49L41 46L42 46L42 45L45 45L45 47L44 47L44 46L43 46L43 47L44 47L44 48L45 48L45 47L46 47L46 45L45 45L45 43L46 43L46 42L47 42L47 41L49 41L49 42L48 42L48 43L49 43L49 44L51 44L51 43L50 43L50 41L52 41L52 39L53 39L53 37L54 37L54 38L55 38L55 39L54 39L54 40L53 40L53 41L54 41L54 40L56 40L56 39L61 39L61 38L63 38L63 39L65 39L65 38L64 38L64 37L61 37L61 36L60 36L60 35L59 35L59 37L58 37L58 36L57 36L57 38L56 38L56 34L57 34L57 35L58 35L58 34L60 34L60 33L61 33L61 32L59 32L59 31L60 31L60 29L62 29L62 30L63 30L63 29L65 29L65 28L64 28L64 26L65 26L65 24L64 24L64 26L63 26L63 27L61 27L61 25L60 25L60 24L58 24L58 23L57 23L57 24L58 24L58 25L56 25L56 24L55 24L55 23L56 23L56 22L57 22L57 20L59 20L59 21L58 21L58 22L59 22L59 23L60 23L60 19L61 19L61 18L59 18L59 19L58 19L58 17L59 17L59 16L58 16L58 17L57 17L57 16L54 16L54 17L53 17L53 18L52 18L52 20L50 20L50 21L49 21L49 20L48 20L48 23L51 23L51 22L50 22L50 21L52 21L52 22L53 22L53 23L52 23L52 24L53 24L53 25L54 25L54 24L55 24L55 25L56 25L56 27L55 27L55 28L54 28L54 27L51 27L51 29L50 29L50 30L48 30L48 31L49 31L49 32L48 32L48 33L46 33L46 35L45 35L45 36L43 36L43 35L44 35L44 33L45 33L45 31L44 31L44 32L43 32L43 33L42 33L42 30L46 30L46 32L47 32L47 29L44 29L44 28L43 28L43 27L42 27L42 26L44 26L44 27L45 27L45 26L46 26L46 25L45 25L45 24L46 24L46 23L45 23L45 24L44 24L44 22L45 22L45 21L47 21L47 19L48 19L48 17L47 17L47 19L45 19L45 17L44 17L44 22L43 22L43 24L42 24L42 25L41 25L41 23L42 23L42 21L40 21L40 19L39 19L39 21L38 21L38 23L37 23L37 20L38 20L38 18L40 18L40 17L41 17L41 19L42 19L42 20L43 20L43 17L42 17L42 15L41 15L41 16L39 16L39 15L38 15L38 16L37 16L37 15L35 15L35 14L37 14L37 13L35 13L35 12L34 12L34 11ZM16 12L16 13L14 13L14 14L17 14L17 13L18 13L18 12ZM56 13L56 14L55 14L55 15L57 15L57 14L58 14L58 15L59 15L59 14L58 14L58 13ZM18 14L18 15L16 15L16 17L15 17L15 15L13 15L13 17L12 17L12 18L13 18L13 17L15 17L15 18L16 18L16 17L17 17L17 19L18 19L18 18L19 18L19 17L18 17L18 16L19 16L19 14ZM20 14L20 16L21 16L21 14ZM43 14L43 16L44 16L44 14ZM0 15L0 16L1 16L1 18L2 18L2 16L3 16L3 15L2 15L2 16L1 16L1 15ZM30 15L30 16L31 16L31 18L29 18L29 17L28 17L28 18L27 18L27 19L28 19L28 18L29 18L29 20L30 20L30 23L29 23L29 22L28 22L28 20L26 20L26 22L28 22L28 23L29 23L29 24L24 24L24 23L25 23L25 22L24 22L24 23L23 23L23 25L24 25L24 26L23 26L23 27L22 27L22 28L21 28L21 29L19 29L19 31L20 31L20 32L21 32L21 31L22 31L22 32L23 32L23 34L21 34L21 35L23 35L23 36L21 36L21 37L24 37L24 38L25 38L25 39L24 39L24 40L23 40L23 42L26 42L26 43L25 43L25 45L24 45L24 47L23 47L23 45L22 45L22 46L21 46L21 47L23 47L23 49L24 49L24 51L29 51L29 50L30 50L30 49L31 49L31 47L32 47L32 46L33 46L33 45L32 45L32 46L31 46L31 47L30 47L30 45L28 45L28 46L27 46L27 45L26 45L26 43L27 43L27 44L30 44L30 41L28 41L28 40L25 40L25 39L26 39L26 38L27 38L27 39L28 39L28 38L29 38L29 36L31 36L31 37L30 37L30 38L31 38L31 39L30 39L30 40L31 40L31 41L33 41L33 39L32 39L32 38L31 38L31 37L32 37L32 36L33 36L33 38L34 38L34 37L35 37L35 39L37 39L37 40L39 40L39 41L38 41L38 42L39 42L39 41L43 41L43 40L40 40L40 39L41 39L41 37L40 37L40 39L39 39L39 36L38 36L38 34L36 34L36 35L37 35L37 36L38 36L38 37L36 37L36 36L34 36L34 35L35 35L35 34L33 34L33 33L41 33L41 35L42 35L42 33L41 33L41 32L39 32L39 30L40 30L40 31L41 31L41 30L42 30L42 28L41 28L41 26L40 26L40 25L38 25L38 26L36 26L36 27L37 27L37 28L38 28L38 29L36 29L36 30L35 30L35 29L34 29L34 26L32 26L32 27L33 27L33 29L32 29L32 28L31 28L31 26L30 26L30 27L29 27L29 24L30 24L30 25L37 25L37 24L35 24L35 23L36 23L36 22L34 22L34 24L32 24L32 23L33 23L33 21L34 21L34 20L35 20L35 21L36 21L36 20L35 20L35 19L33 19L33 21L32 21L32 19L31 19L31 18L32 18L32 17L33 17L33 18L35 18L35 17L36 17L36 18L37 18L37 17L36 17L36 16L35 16L35 15L34 15L34 16L32 16L32 15ZM34 16L34 17L35 17L35 16ZM38 16L38 17L39 17L39 16ZM72 16L72 17L73 17L73 16ZM54 17L54 18L56 18L56 19L54 19L54 20L52 20L52 21L54 21L54 22L56 22L56 20L57 20L57 18L56 18L56 17ZM30 19L30 20L31 20L31 19ZM74 19L74 21L75 21L75 19ZM54 20L54 21L55 21L55 20ZM31 21L31 23L30 23L30 24L31 24L31 23L32 23L32 21ZM39 21L39 23L38 23L38 24L40 24L40 23L41 23L41 22L40 22L40 21ZM6 22L6 23L7 23L7 22ZM11 22L11 23L12 23L12 22ZM53 23L53 24L54 24L54 23ZM61 23L61 24L63 24L63 23ZM43 24L43 25L44 25L44 24ZM5 25L5 28L8 28L8 25ZM25 25L25 28L28 28L28 25ZM47 25L47 28L50 28L50 25ZM51 25L51 26L52 26L52 25ZM58 25L58 26L57 26L57 27L56 27L56 29L54 29L54 28L52 28L52 29L54 29L54 30L53 30L53 31L52 31L52 30L51 30L51 31L52 31L52 32L51 32L51 33L50 33L50 35L51 35L51 37L49 37L49 35L48 35L48 34L47 34L47 35L46 35L46 36L47 36L47 35L48 35L48 37L46 37L46 39L45 39L45 37L43 37L43 38L42 38L42 39L43 39L43 38L44 38L44 41L45 41L45 42L46 42L46 41L45 41L45 40L46 40L46 39L48 39L48 40L50 40L50 38L51 38L51 37L52 37L52 34L53 34L53 33L54 33L54 32L55 32L55 34L54 34L54 35L55 35L55 34L56 34L56 33L58 33L58 31L59 31L59 30L58 30L58 31L57 31L57 32L56 32L56 31L54 31L54 30L56 30L56 29L58 29L58 28L59 28L59 29L60 29L60 27L59 27L59 25ZM69 25L69 28L72 28L72 25ZM6 26L6 27L7 27L7 26ZM26 26L26 27L27 27L27 26ZM39 26L39 27L40 27L40 26ZM48 26L48 27L49 27L49 26ZM70 26L70 27L71 27L71 26ZM57 27L57 28L58 28L58 27ZM10 28L10 29L11 29L11 28ZM13 28L13 29L14 29L14 28ZM23 28L23 30L22 30L22 29L21 29L21 30L20 30L20 31L21 31L21 30L22 30L22 31L24 31L24 32L27 32L27 33L28 33L28 34L29 34L29 33L30 33L30 35L32 35L32 34L31 34L31 33L33 33L33 32L35 32L35 31L31 31L31 28L30 28L30 29L27 29L27 30L30 30L30 31L28 31L28 32L27 32L27 31L26 31L26 30L25 30L25 29L24 29L24 28ZM40 28L40 30L41 30L41 28ZM62 28L62 29L63 29L63 28ZM76 28L76 30L77 30L77 28ZM38 29L38 30L36 30L36 32L38 32L38 30L39 30L39 29ZM9 30L9 31L10 31L10 30ZM72 30L72 31L73 31L73 30ZM11 31L11 32L12 32L12 31ZM30 31L30 33L31 33L31 31ZM64 31L64 32L65 32L65 31ZM24 33L24 34L23 34L23 35L24 35L24 34L25 34L25 33ZM51 33L51 34L52 34L52 33ZM66 33L66 34L67 34L67 33ZM6 34L6 35L7 35L7 36L8 36L8 37L7 37L7 38L8 38L8 39L7 39L7 40L8 40L8 41L9 41L9 40L8 40L8 39L9 39L9 34L8 34L8 35L7 35L7 34ZM26 35L26 36L24 36L24 37L25 37L25 38L26 38L26 37L27 37L27 38L28 38L28 36L29 36L29 35L28 35L28 36L27 36L27 35ZM48 37L48 39L49 39L49 37ZM59 37L59 38L60 38L60 37ZM37 38L37 39L38 39L38 38ZM1 39L1 40L2 40L2 39ZM24 40L24 41L25 41L25 40ZM58 40L58 41L59 41L59 40ZM60 40L60 42L61 42L61 44L62 44L62 42L61 42L61 40ZM34 41L34 43L33 43L33 44L35 44L35 45L34 45L34 46L36 46L36 44L37 44L37 41L36 41L36 43L35 43L35 41ZM73 41L73 42L74 42L74 41ZM27 42L27 43L29 43L29 42ZM31 42L31 43L32 43L32 42ZM40 42L40 43L41 43L41 42ZM43 42L43 43L42 43L42 44L43 44L43 43L44 43L44 42ZM52 43L52 44L53 44L53 43ZM63 43L63 45L64 45L64 43ZM69 43L69 44L70 44L70 46L75 46L75 45L71 45L71 43ZM72 43L72 44L73 44L73 43ZM1 44L1 45L0 45L0 46L1 46L1 45L3 45L3 44ZM5 45L5 46L8 46L8 45ZM10 45L10 46L11 46L11 45ZM25 45L25 46L26 46L26 45ZM5 47L5 50L8 50L8 47ZM17 47L17 48L18 48L18 47ZM25 47L25 50L28 50L28 47ZM47 47L47 50L50 50L50 47ZM69 47L69 50L72 50L72 47ZM73 47L73 49L74 49L74 48L75 48L75 47ZM1 48L1 49L2 49L2 50L3 50L3 49L2 49L2 48ZM6 48L6 49L7 49L7 48ZM26 48L26 49L27 49L27 48ZM48 48L48 49L49 49L49 48ZM70 48L70 49L71 49L71 48ZM59 49L59 50L60 50L60 49ZM31 50L31 51L32 51L32 52L31 52L31 53L33 53L33 55L34 55L34 56L33 56L33 57L35 57L35 55L36 55L36 56L40 56L40 57L39 57L39 58L40 58L40 59L41 59L41 56L42 56L42 59L44 59L44 60L45 60L45 59L44 59L44 58L46 58L46 59L47 59L47 58L48 58L48 57L47 57L47 58L46 58L46 57L43 57L43 56L44 56L44 55L43 55L43 56L42 56L42 55L40 55L40 54L41 54L41 53L40 53L40 54L38 54L38 55L37 55L37 54L36 54L36 53L34 53L34 52L33 52L33 51L32 51L32 50ZM44 50L44 51L45 51L45 50ZM73 50L73 51L72 51L72 52L73 52L73 51L74 51L74 50ZM49 51L49 52L50 52L50 51ZM26 52L26 53L27 53L27 54L26 54L26 55L25 55L25 56L26 56L26 57L27 57L27 56L28 56L28 57L29 57L29 58L30 58L30 57L32 57L32 56L31 56L31 54L30 54L30 53L29 53L29 52ZM66 52L66 53L67 53L67 52ZM24 53L24 54L25 54L25 53ZM28 53L28 54L29 54L29 55L28 55L28 56L29 56L29 55L30 55L30 54L29 54L29 53ZM54 53L54 54L55 54L55 53ZM62 53L62 54L63 54L63 53ZM22 54L22 55L23 55L23 54ZM2 55L2 56L3 56L3 55ZM6 55L6 56L8 56L8 55ZM70 55L70 56L73 56L73 55ZM60 56L60 58L61 58L61 56ZM65 56L65 58L64 58L64 57L63 57L63 58L64 58L64 59L65 59L65 60L64 60L64 62L63 62L63 66L61 66L61 68L63 68L63 69L64 69L64 68L66 68L66 69L65 69L65 70L64 70L64 71L65 71L65 72L67 72L67 73L66 73L66 75L67 75L67 76L68 76L68 75L67 75L67 74L68 74L68 68L67 68L67 67L68 67L68 66L67 66L67 65L68 65L68 63L70 63L70 64L69 64L69 65L70 65L70 66L69 66L69 68L70 68L70 66L71 66L71 64L72 64L72 63L70 63L70 62L68 62L68 63L65 63L65 60L66 60L66 59L67 59L67 61L69 61L69 60L68 60L68 58L67 58L67 56ZM8 57L8 61L9 61L9 60L10 60L10 59L9 59L9 57ZM73 57L73 58L75 58L75 57ZM3 58L3 59L4 59L4 60L5 60L5 59L4 59L4 58ZM11 58L11 59L12 59L12 58ZM65 58L65 59L66 59L66 58ZM19 59L19 60L20 60L20 59ZM24 59L24 60L25 60L25 59ZM76 61L76 63L77 63L77 61ZM6 62L6 63L7 63L7 62ZM49 62L49 63L50 63L50 62ZM55 62L55 63L56 63L56 65L57 65L57 64L59 64L59 65L60 65L60 64L61 64L61 63L58 63L58 62ZM74 62L74 63L75 63L75 62ZM9 63L9 64L12 64L12 63ZM16 63L16 64L17 64L17 63ZM29 63L29 64L30 64L30 65L31 65L31 64L32 64L32 65L33 65L33 64L34 64L34 63L33 63L33 64L32 64L32 63ZM41 63L41 64L40 64L40 65L42 65L42 64L43 64L43 63ZM6 64L6 65L7 65L7 64ZM64 65L64 66L65 66L65 65ZM43 66L43 67L42 67L42 68L43 68L43 67L44 67L44 66ZM8 67L8 69L9 69L9 68L10 68L10 69L11 69L11 68L10 68L10 67ZM55 67L55 68L54 68L54 70L55 70L55 69L57 69L57 67ZM63 67L63 68L64 68L64 67ZM21 68L21 69L22 69L22 68ZM29 68L29 69L31 69L31 68ZM52 68L52 69L53 69L53 68ZM74 68L74 69L73 69L73 70L75 70L75 69L76 69L76 68ZM25 69L25 72L28 72L28 69ZM47 69L47 72L50 72L50 69ZM69 69L69 72L72 72L72 69ZM26 70L26 71L27 71L27 70ZM29 70L29 71L30 71L30 70ZM36 70L36 71L37 71L37 70ZM48 70L48 71L49 71L49 70ZM61 70L61 71L62 71L62 70ZM65 70L65 71L67 71L67 70ZM70 70L70 71L71 71L71 70ZM40 71L40 72L41 72L41 71ZM51 71L51 72L52 72L52 71ZM57 71L57 72L58 72L58 71ZM8 73L8 75L9 75L9 76L8 76L8 77L10 77L10 74L11 74L11 73L10 73L10 74L9 74L9 73ZM64 73L64 74L65 74L65 73ZM32 74L32 75L33 75L33 74ZM11 75L11 76L12 76L12 75ZM74 75L74 76L75 76L75 75ZM43 76L43 77L45 77L45 76ZM61 76L61 77L63 77L63 76ZM0 0L0 7L7 7L7 0ZM1 1L1 6L6 6L6 1ZM2 2L2 5L5 5L5 2ZM70 0L70 7L77 7L77 0ZM71 1L71 6L76 6L76 1ZM72 2L72 5L75 5L75 2ZM0 70L0 77L7 77L7 70ZM1 71L1 76L6 76L6 71ZM2 72L2 75L5 75L5 72Z" fill="#000000"/></g></g></svg>
