<?xml version="1.0" encoding="UTF-8"?>
<svg xmlns="http://www.w3.org/2000/svg" version="1.1" width="200" height="200" viewBox="0 0 200 200"><rect x="0" y="0" width="200" height="200" fill="#ffffff"/><g transform="scale(2.532)"><g transform="translate(1,1)"><path fill-rule="evenodd" d="M11 0L11 1L10 1L10 2L8 2L8 8L9 8L9 6L10 6L10 7L11 7L11 5L12 5L12 4L11 4L11 3L12 3L12 2L14 2L14 3L13 3L13 4L15 4L15 5L18 5L18 4L19 4L19 5L20 5L20 4L21 4L21 6L20 6L20 7L19 7L19 6L18 6L18 9L15 9L15 8L17 8L17 6L16 6L16 7L15 7L15 6L14 6L14 7L13 7L13 6L12 6L12 7L13 7L13 8L14 8L14 10L13 10L13 9L11 9L11 8L10 8L10 9L8 9L8 10L10 10L10 9L11 9L11 11L8 11L8 12L6 12L6 11L7 11L7 10L6 10L6 9L7 9L7 8L2 8L2 12L1 12L1 13L0 13L0 14L1 14L1 13L2 13L2 14L3 14L3 13L4 13L4 12L3 12L3 11L4 11L4 10L5 10L5 13L7 13L7 14L5 14L5 15L3 15L3 19L2 19L2 20L1 20L1 21L2 21L2 24L1 24L1 22L0 22L0 25L2 25L2 27L0 27L0 28L1 28L1 29L2 29L2 30L0 30L0 31L1 31L1 32L0 32L0 33L1 33L1 36L0 36L0 39L1 39L1 40L0 40L0 41L1 41L1 42L0 42L0 43L2 43L2 44L3 44L3 45L4 45L4 44L3 44L3 43L7 43L7 44L5 44L5 46L4 46L4 47L1 47L1 44L0 44L0 48L1 48L1 49L0 49L0 50L1 50L1 53L2 53L2 50L3 50L3 54L4 54L4 55L2 55L2 54L1 54L1 56L0 56L0 57L1 57L1 56L2 56L2 58L0 58L0 60L1 60L1 61L0 61L0 66L1 66L1 67L2 67L2 66L1 66L1 62L2 62L2 63L3 63L3 64L4 64L4 65L8 65L8 64L9 64L9 65L10 65L10 66L8 66L8 67L7 67L7 66L4 66L4 68L1 68L1 69L5 69L5 67L7 67L7 68L6 68L6 69L7 69L7 68L10 68L10 69L8 69L8 70L11 70L11 72L9 72L9 71L8 71L8 75L9 75L9 76L8 76L8 77L9 77L9 76L10 76L10 77L16 77L16 76L17 76L17 77L18 77L18 76L19 76L19 75L16 75L16 74L15 74L15 75L13 75L13 74L14 74L14 72L13 72L13 73L12 73L12 71L16 71L16 70L14 70L14 69L15 69L15 67L16 67L16 68L17 68L17 71L18 71L18 72L19 72L19 73L18 73L18 74L20 74L20 75L21 75L21 76L22 76L22 77L24 77L24 75L23 75L23 76L22 76L22 74L24 74L24 73L26 73L26 74L25 74L25 75L26 75L26 74L27 74L27 73L29 73L29 74L28 74L28 76L30 76L30 77L32 77L32 76L33 76L33 75L31 75L31 74L30 74L30 73L32 73L32 72L33 72L33 73L34 73L34 72L33 72L33 71L35 71L35 72L36 72L36 73L35 73L35 74L34 74L34 75L35 75L35 74L36 74L36 77L38 77L38 76L41 76L41 77L44 77L44 76L41 76L41 75L43 75L43 74L44 74L44 72L46 72L46 73L49 73L49 74L48 74L48 76L47 76L47 77L48 77L48 76L50 76L50 77L53 77L53 76L54 76L54 77L55 77L55 76L56 76L56 77L57 77L57 75L58 75L58 77L59 77L59 75L62 75L62 74L63 74L63 75L64 75L64 76L63 76L63 77L64 77L64 76L65 76L65 77L68 77L68 76L69 76L69 75L70 75L70 74L71 74L71 73L73 73L73 72L74 72L74 70L73 70L73 68L74 68L74 67L72 67L72 66L73 66L73 65L70 65L70 62L71 62L71 63L72 63L72 64L73 64L73 63L76 63L76 62L77 62L77 61L74 61L74 60L73 60L73 59L74 59L74 58L73 58L73 57L72 57L72 56L74 56L74 57L75 57L75 60L77 60L77 59L76 59L76 58L77 58L77 55L75 55L75 56L74 56L74 55L72 55L72 54L74 54L74 53L75 53L75 54L77 54L77 51L76 51L76 50L77 50L77 49L75 49L75 48L74 48L74 46L70 46L70 45L72 45L72 44L74 44L74 45L75 45L75 46L77 46L77 45L76 45L76 44L74 44L74 43L76 43L76 42L77 42L77 41L76 41L76 40L72 40L72 38L73 38L73 35L72 35L72 34L73 34L73 32L74 32L74 31L75 31L75 33L74 33L74 35L75 35L75 34L77 34L77 33L76 33L76 32L77 32L77 31L75 31L75 30L76 30L76 29L77 29L77 28L75 28L75 30L74 30L74 31L73 31L73 28L74 28L74 26L73 26L73 25L76 25L76 24L77 24L77 23L76 23L76 22L77 22L77 20L76 20L76 22L75 22L75 21L74 21L74 22L72 22L72 21L73 21L73 20L75 20L75 19L76 19L76 18L77 18L77 17L76 17L76 18L75 18L75 16L74 16L74 15L70 15L70 13L69 13L69 15L70 15L70 16L69 16L69 17L70 17L70 16L72 16L72 17L71 17L71 19L72 19L72 20L71 20L71 21L70 21L70 20L69 20L69 21L68 21L68 20L67 20L67 19L66 19L66 20L65 20L65 21L68 21L68 22L69 22L69 21L70 21L70 22L71 22L71 23L70 23L70 24L68 24L68 25L67 25L67 23L66 23L66 22L63 22L63 23L66 23L66 24L65 24L65 25L66 25L66 26L68 26L68 27L67 27L67 28L66 28L66 30L67 30L67 31L66 31L66 34L65 34L65 35L64 35L64 34L63 34L63 33L64 33L64 32L63 32L63 31L65 31L65 30L60 30L60 31L61 31L61 32L60 32L60 34L61 34L61 32L63 32L63 33L62 33L62 35L64 35L64 36L61 36L61 37L60 37L60 39L59 39L59 38L58 38L58 37L59 37L59 36L58 36L58 37L57 37L57 35L59 35L59 34L57 34L57 35L54 35L54 34L53 34L53 33L55 33L55 34L56 34L56 33L57 33L57 31L55 31L55 32L53 32L53 31L54 31L54 30L53 30L53 31L50 31L50 32L47 32L47 33L50 33L50 34L51 34L51 33L50 33L50 32L53 32L53 33L52 33L52 34L53 34L53 35L52 35L52 36L51 36L51 39L52 39L52 40L50 40L50 39L49 39L49 38L50 38L50 37L49 37L49 36L50 36L50 35L49 35L49 34L48 34L48 35L49 35L49 36L48 36L48 38L47 38L47 37L45 37L45 38L44 38L44 37L39 37L39 36L41 36L41 35L40 35L40 34L37 34L37 35L36 35L36 34L34 34L34 36L33 36L33 35L32 35L32 36L31 36L31 37L32 37L32 38L33 38L33 39L31 39L31 38L30 38L30 37L29 37L29 36L30 36L30 35L31 35L31 34L30 34L30 33L29 33L29 32L30 32L30 31L29 31L29 32L28 32L28 31L27 31L27 29L28 29L28 30L31 30L31 31L32 31L32 32L31 32L31 33L32 33L32 34L33 34L33 33L32 33L32 32L34 32L34 31L36 31L36 32L35 32L35 33L36 33L36 32L37 32L37 31L36 31L36 30L33 30L33 28L34 28L34 27L35 27L35 26L37 26L37 24L39 24L39 22L40 22L40 24L41 24L41 26L43 26L43 25L44 25L44 26L46 26L46 27L43 27L43 28L42 28L42 29L40 29L40 31L39 31L39 30L38 30L38 31L39 31L39 32L38 32L38 33L39 33L39 32L40 32L40 31L41 31L41 32L42 32L42 31L43 31L43 33L44 33L44 34L46 34L46 33L44 33L44 32L45 32L45 31L46 31L46 30L47 30L47 31L48 31L48 29L51 29L51 30L52 30L52 28L51 28L51 26L53 26L53 27L54 27L54 29L55 29L55 27L54 27L54 26L53 26L53 24L54 24L54 25L55 25L55 26L58 26L58 24L57 24L57 23L56 23L56 25L55 25L55 22L56 22L56 21L55 21L55 20L56 20L56 19L57 19L57 20L58 20L58 19L59 19L59 20L60 20L60 19L59 19L59 18L58 18L58 17L57 17L57 16L60 16L60 17L61 17L61 15L62 15L62 18L61 18L61 20L62 20L62 21L64 21L64 20L63 20L63 19L64 19L64 17L65 17L65 18L67 18L67 17L68 17L68 16L67 16L67 17L66 17L66 15L68 15L68 14L64 14L64 13L65 13L65 11L68 11L68 10L69 10L69 12L72 12L72 13L71 13L71 14L73 14L73 13L74 13L74 11L70 11L70 9L71 9L71 10L74 10L74 9L75 9L75 10L77 10L77 9L75 9L75 8L70 8L70 9L69 9L69 8L67 8L67 5L69 5L69 1L68 1L68 4L66 4L66 5L64 5L64 4L65 4L65 3L66 3L66 2L67 2L67 1L66 1L66 0L65 0L65 1L64 1L64 0L62 0L62 2L61 2L61 1L59 1L59 3L58 3L58 2L57 2L57 1L58 1L58 0L57 0L57 1L56 1L56 2L55 2L55 1L54 1L54 2L55 2L55 3L56 3L56 4L54 4L54 5L53 5L53 6L52 6L52 8L51 8L51 4L52 4L52 3L51 3L51 2L53 2L53 0L50 0L50 1L48 1L48 0L47 0L47 1L48 1L48 3L47 3L47 4L46 4L46 5L45 5L45 4L44 4L44 3L46 3L46 1L45 1L45 0L44 0L44 1L45 1L45 2L42 2L42 1L43 1L43 0L42 0L42 1L41 1L41 2L40 2L40 1L39 1L39 4L40 4L40 5L38 5L38 1L37 1L37 0L36 0L36 1L37 1L37 3L35 3L35 6L34 6L34 7L33 7L33 5L34 5L34 4L33 4L33 5L32 5L32 3L34 3L34 2L35 2L35 1L34 1L34 0L30 0L30 1L34 1L34 2L32 2L32 3L31 3L31 2L30 2L30 3L29 3L29 2L27 2L27 1L28 1L28 0L27 0L27 1L26 1L26 0L24 0L24 1L23 1L23 0L15 0L15 1L14 1L14 0ZM11 1L11 2L12 2L12 1ZM15 1L15 2L16 2L16 3L15 3L15 4L18 4L18 2L16 2L16 1ZM21 1L21 2L23 2L23 1ZM63 1L63 2L64 2L64 1ZM65 1L65 2L66 2L66 1ZM19 2L19 4L20 4L20 2ZM24 2L24 3L23 3L23 4L22 4L22 6L21 6L21 8L20 8L20 9L21 9L21 11L20 11L20 10L19 10L19 9L18 9L18 10L17 10L17 11L18 11L18 12L16 12L16 11L15 11L15 10L14 10L14 11L13 11L13 10L12 10L12 11L13 11L13 12L14 12L14 11L15 11L15 14L16 14L16 13L17 13L17 14L19 14L19 15L20 15L20 16L21 16L21 15L23 15L23 16L22 16L22 18L21 18L21 17L20 17L20 18L19 18L19 19L18 19L18 16L16 16L16 17L15 17L15 19L17 19L17 20L15 20L15 21L14 21L14 15L13 15L13 13L12 13L12 12L9 12L9 13L8 13L8 14L9 14L9 13L10 13L10 14L11 14L11 15L5 15L5 16L8 16L8 18L7 18L7 17L4 17L4 18L5 18L5 20L7 20L7 21L6 21L6 22L8 22L8 23L5 23L5 24L9 24L9 25L10 25L10 24L9 24L9 22L11 22L11 21L12 21L12 24L11 24L11 27L10 27L10 28L12 28L12 29L11 29L11 30L10 30L10 31L11 31L11 32L12 32L12 33L11 33L11 36L15 36L15 33L19 33L19 32L21 32L21 30L20 30L20 28L21 28L21 29L22 29L22 31L23 31L23 33L20 33L20 34L19 34L19 35L20 35L20 37L19 37L19 36L18 36L18 37L19 37L19 38L18 38L18 39L17 39L17 36L16 36L16 37L14 37L14 38L12 38L12 37L10 37L10 33L8 33L8 32L9 32L9 30L8 30L8 29L6 29L6 30L7 30L7 31L4 31L4 32L7 32L7 33L6 33L6 34L7 34L7 35L6 35L6 36L7 36L7 37L6 37L6 38L5 38L5 39L6 39L6 40L7 40L7 41L6 41L6 42L7 42L7 43L8 43L8 44L7 44L7 45L6 45L6 46L8 46L8 44L9 44L9 46L10 46L10 47L9 47L9 48L10 48L10 49L9 49L9 52L10 52L10 54L9 54L9 53L8 53L8 52L7 52L7 51L6 51L6 52L7 52L7 53L5 53L5 54L9 54L9 55L5 55L5 56L3 56L3 59L1 59L1 60L3 60L3 63L4 63L4 62L5 62L5 61L4 61L4 60L5 60L5 58L7 58L7 59L6 59L6 60L8 60L8 63L6 63L6 64L8 64L8 63L9 63L9 64L11 64L11 63L12 63L12 66L13 66L13 67L15 67L15 66L13 66L13 65L17 65L17 66L18 66L18 67L17 67L17 68L18 68L18 67L19 67L19 68L22 68L22 69L23 69L23 70L22 70L22 71L23 71L23 72L22 72L22 73L24 73L24 69L23 69L23 68L26 68L26 67L27 67L27 68L29 68L29 70L30 70L30 71L29 71L29 72L32 72L32 71L33 71L33 70L35 70L35 68L37 68L37 69L36 69L36 71L37 71L37 75L38 75L38 74L39 74L39 73L41 73L41 74L40 74L40 75L41 75L41 74L42 74L42 73L41 73L41 72L42 72L42 70L40 70L40 72L39 72L39 73L38 73L38 70L39 70L39 69L41 69L41 68L39 68L39 67L42 67L42 68L43 68L43 69L45 69L45 70L44 70L44 71L46 71L46 67L47 67L47 68L52 68L52 69L51 69L51 71L52 71L52 72L53 72L53 73L52 73L52 74L54 74L54 75L57 75L57 73L56 73L56 72L54 72L54 71L52 71L52 70L54 70L54 69L55 69L55 71L58 71L58 73L59 73L59 74L58 74L58 75L59 75L59 74L62 74L62 72L66 72L66 71L68 71L68 69L65 69L65 67L68 67L68 68L69 68L69 67L70 67L70 65L69 65L69 64L68 64L68 63L69 63L69 62L70 62L70 61L71 61L71 60L72 60L72 61L73 61L73 62L72 62L72 63L73 63L73 62L74 62L74 61L73 61L73 60L72 60L72 59L71 59L71 58L70 58L70 57L71 57L71 56L72 56L72 55L68 55L68 54L66 54L66 53L68 53L68 52L67 52L67 51L68 51L68 49L67 49L67 48L66 48L66 47L65 47L65 46L66 46L66 45L65 45L65 44L67 44L67 47L68 47L68 44L69 44L69 45L70 45L70 44L72 44L72 42L73 42L73 41L71 41L71 39L68 39L68 38L69 38L69 36L70 36L70 38L71 38L71 36L72 36L72 35L71 35L71 34L69 34L69 33L68 33L68 32L69 32L69 31L68 31L68 32L67 32L67 34L68 34L68 35L66 35L66 36L65 36L65 38L66 38L66 37L67 37L67 39L68 39L68 41L67 41L67 40L66 40L66 39L65 39L65 40L64 40L64 42L66 42L66 43L65 43L65 44L64 44L64 45L65 45L65 46L63 46L63 45L62 45L62 44L63 44L63 43L62 43L62 41L61 41L61 43L60 43L60 42L59 42L59 41L60 41L60 40L56 40L56 39L57 39L57 37L56 37L56 36L54 36L54 35L53 35L53 36L52 36L52 38L54 38L54 41L55 41L55 40L56 40L56 41L58 41L58 42L57 42L57 43L58 43L58 44L56 44L56 43L55 43L55 42L53 42L53 41L51 41L51 42L53 42L53 43L51 43L51 44L52 44L52 45L50 45L50 42L49 42L49 41L50 41L50 40L49 40L49 41L48 41L48 43L47 43L47 44L46 44L46 41L47 41L47 40L48 40L48 39L47 39L47 38L46 38L46 41L45 41L45 40L44 40L44 39L43 39L43 38L40 38L40 40L39 40L39 41L40 41L40 40L41 40L41 43L40 43L40 42L37 42L37 41L38 41L38 40L37 40L37 37L38 37L38 38L39 38L39 37L38 37L38 36L39 36L39 35L37 35L37 36L36 36L36 35L35 35L35 36L36 36L36 37L33 37L33 36L32 36L32 37L33 37L33 38L36 38L36 40L35 40L35 39L33 39L33 40L32 40L32 43L31 43L31 44L32 44L32 45L30 45L30 42L29 42L29 41L31 41L31 40L30 40L30 38L29 38L29 37L27 37L27 35L30 35L30 34L28 34L28 32L27 32L27 34L26 34L26 37L27 37L27 38L25 38L25 37L24 37L24 36L25 36L25 34L24 34L24 31L25 31L25 33L26 33L26 30L25 30L25 29L24 29L24 31L23 31L23 29L22 29L22 27L21 27L21 26L22 26L22 25L21 25L21 24L23 24L23 22L24 22L24 23L25 23L25 24L26 24L26 22L27 22L27 21L28 21L28 22L30 22L30 23L31 23L31 24L33 24L33 22L35 22L35 23L34 23L34 24L36 24L36 22L37 22L37 21L38 21L38 22L39 22L39 21L38 21L38 20L39 20L39 19L38 19L38 18L39 18L39 15L38 15L38 14L39 14L39 13L38 13L38 12L39 12L39 11L40 11L40 10L39 10L39 9L38 9L38 10L37 10L37 11L35 11L35 10L36 10L36 9L35 9L35 8L38 8L38 6L37 6L37 7L36 7L36 6L35 6L35 7L34 7L34 8L30 8L30 6L31 6L31 7L32 7L32 5L30 5L30 6L29 6L29 8L30 8L30 9L31 9L31 10L29 10L29 9L28 9L28 11L27 11L27 9L26 9L26 10L25 10L25 9L24 9L24 6L23 6L23 4L24 4L24 3L25 3L25 2ZM41 2L41 3L40 3L40 4L41 4L41 5L40 5L40 6L39 6L39 7L40 7L40 6L41 6L41 7L42 7L42 6L43 6L43 7L44 7L44 8L43 8L43 9L44 9L44 10L43 10L43 12L42 12L42 11L41 11L41 12L40 12L40 15L41 15L41 16L40 16L40 18L41 18L41 20L40 20L40 22L42 22L42 25L43 25L43 23L44 23L44 22L45 22L45 23L46 23L46 24L47 24L47 23L48 23L48 24L50 24L50 21L51 21L51 20L52 20L52 22L51 22L51 24L52 24L52 22L54 22L54 21L53 21L53 19L54 19L54 20L55 20L55 19L56 19L56 18L57 18L57 19L58 19L58 18L57 18L57 17L56 17L56 16L55 16L55 17L54 17L54 15L55 15L55 14L54 14L54 13L56 13L56 12L53 12L53 11L52 11L52 9L53 9L53 10L54 10L54 11L57 11L57 8L55 8L55 9L54 9L54 6L53 6L53 8L52 8L52 9L51 9L51 10L50 10L50 9L49 9L49 10L47 10L47 9L46 9L46 10L45 10L45 8L46 8L46 6L45 6L45 5L42 5L42 4L43 4L43 3L42 3L42 2ZM49 2L49 3L48 3L48 4L50 4L50 2ZM60 2L60 3L59 3L59 4L58 4L58 5L59 5L59 4L60 4L60 6L59 6L59 8L58 8L58 9L59 9L59 11L60 11L60 12L58 12L58 13L60 13L60 15L61 15L61 14L62 14L62 11L63 11L63 12L64 12L64 10L68 10L68 9L66 9L66 6L65 6L65 8L64 8L64 10L63 10L63 7L64 7L64 5L63 5L63 4L61 4L61 2ZM27 3L27 4L29 4L29 3ZM25 5L25 8L28 8L28 5ZM47 5L47 8L50 8L50 5ZM61 5L61 6L60 6L60 8L61 8L61 9L60 9L60 11L62 11L62 10L61 10L61 9L62 9L62 7L63 7L63 5ZM22 6L22 7L23 7L23 6ZM26 6L26 7L27 7L27 6ZM44 6L44 7L45 7L45 6ZM48 6L48 7L49 7L49 6ZM55 6L55 7L56 7L56 6ZM57 6L57 7L58 7L58 6ZM61 6L61 7L62 7L62 6ZM68 6L68 7L69 7L69 6ZM0 8L0 10L1 10L1 8ZM22 8L22 10L23 10L23 11L21 11L21 12L24 12L24 10L23 10L23 8ZM40 8L40 9L42 9L42 8ZM32 9L32 10L34 10L34 9ZM55 9L55 10L56 10L56 9ZM18 10L18 11L19 11L19 12L18 12L18 13L19 13L19 14L20 14L20 13L19 13L19 12L20 12L20 11L19 11L19 10ZM46 10L46 11L45 11L45 12L47 12L47 14L46 14L46 13L44 13L44 12L43 12L43 13L42 13L42 14L41 14L41 15L42 15L42 16L41 16L41 17L42 17L42 18L43 18L43 20L41 20L41 21L42 21L42 22L44 22L44 21L43 21L43 20L45 20L45 22L46 22L46 23L47 23L47 22L48 22L48 23L49 23L49 22L48 22L48 21L49 21L49 20L50 20L50 18L48 18L48 19L49 19L49 20L46 20L46 19L47 19L47 18L45 18L45 19L44 19L44 18L43 18L43 17L44 17L44 16L45 16L45 15L46 15L46 17L47 17L47 16L50 16L50 17L52 17L52 16L51 16L51 15L52 15L52 12L51 12L51 13L50 13L50 14L51 14L51 15L47 15L47 14L48 14L48 12L47 12L47 10ZM49 10L49 11L50 11L50 10ZM26 11L26 12L25 12L25 13L23 13L23 14L25 14L25 15L24 15L24 16L25 16L25 18L24 18L24 17L23 17L23 18L24 18L24 19L26 19L26 21L27 21L27 19L26 19L26 18L27 18L27 17L28 17L28 18L29 18L29 19L30 19L30 20L33 20L33 19L31 19L31 17L32 17L32 15L34 15L34 16L35 16L35 15L36 15L36 14L38 14L38 13L37 13L37 12L38 12L38 11L37 11L37 12L35 12L35 14L32 14L32 12L34 12L34 11L32 11L32 12L31 12L31 11L30 11L30 12L29 12L29 11L28 11L28 12L27 12L27 11ZM75 11L75 13L76 13L76 12L77 12L77 11ZM2 12L2 13L3 13L3 12ZM26 12L26 13L25 13L25 14L26 14L26 13L27 13L27 14L28 14L28 15L27 15L27 16L28 16L28 17L29 17L29 18L30 18L30 17L29 17L29 16L30 16L30 15L29 15L29 14L30 14L30 13L29 13L29 12L28 12L28 13L27 13L27 12ZM66 12L66 13L68 13L68 12ZM21 13L21 14L22 14L22 13ZM28 13L28 14L29 14L29 13ZM42 14L42 15L43 15L43 16L42 16L42 17L43 17L43 16L44 16L44 15L43 15L43 14ZM56 14L56 15L58 15L58 14ZM63 14L63 15L64 15L64 16L65 16L65 15L64 15L64 14ZM12 15L12 16L11 16L11 17L10 17L10 16L9 16L9 19L10 19L10 21L11 21L11 20L12 20L12 21L13 21L13 22L14 22L14 23L13 23L13 24L14 24L14 23L15 23L15 22L14 22L14 21L13 21L13 19L12 19L12 18L11 18L11 17L13 17L13 15ZM28 15L28 16L29 16L29 15ZM37 15L37 16L36 16L36 17L37 17L37 18L38 18L38 17L37 17L37 16L38 16L38 15ZM76 15L76 16L77 16L77 15ZM1 16L1 17L2 17L2 16ZM73 16L73 17L72 17L72 19L74 19L74 18L73 18L73 17L74 17L74 16ZM0 18L0 19L1 19L1 18ZM6 18L6 19L7 19L7 18ZM10 18L10 19L11 19L11 18ZM51 18L51 19L52 19L52 18ZM62 18L62 19L63 19L63 18ZM69 18L69 19L70 19L70 18ZM20 19L20 20L19 20L19 21L20 21L20 20L21 20L21 21L22 21L22 22L23 22L23 21L22 21L22 20L23 20L23 19L22 19L22 20L21 20L21 19ZM34 19L34 21L37 21L37 19ZM8 20L8 22L9 22L9 20ZM28 20L28 21L29 21L29 20ZM4 21L4 22L5 22L5 21ZM16 21L16 22L17 22L17 23L16 23L16 24L15 24L15 26L14 26L14 27L12 27L12 28L13 28L13 30L14 30L14 31L13 31L13 32L14 32L14 33L12 33L12 35L13 35L13 34L14 34L14 33L15 33L15 32L18 32L18 31L15 31L15 28L16 28L16 29L17 29L17 28L18 28L18 30L19 30L19 31L20 31L20 30L19 30L19 27L18 27L18 26L16 26L16 25L17 25L17 23L18 23L18 25L19 25L19 22L17 22L17 21ZM30 21L30 22L31 22L31 21ZM32 21L32 22L33 22L33 21ZM57 21L57 22L58 22L58 23L59 23L59 24L60 24L60 25L59 25L59 26L60 26L60 27L58 27L58 28L60 28L60 29L61 29L61 28L60 28L60 27L61 27L61 26L62 26L62 27L64 27L64 28L63 28L63 29L64 29L64 28L65 28L65 27L64 27L64 26L62 26L62 25L64 25L64 24L62 24L62 22L61 22L61 21L60 21L60 22L58 22L58 21ZM60 22L60 24L61 24L61 22ZM3 23L3 24L4 24L4 23ZM74 23L74 24L75 24L75 23ZM29 24L29 25L30 25L30 24ZM44 24L44 25L45 25L45 24ZM3 25L3 27L2 27L2 28L3 28L3 27L4 27L4 25ZM5 25L5 28L8 28L8 25ZM25 25L25 28L28 28L28 25ZM31 25L31 26L29 26L29 27L31 27L31 28L33 28L33 27L34 27L34 26L35 26L35 25L34 25L34 26L33 26L33 27L31 27L31 26L32 26L32 25ZM47 25L47 28L50 28L50 25ZM69 25L69 28L72 28L72 25ZM6 26L6 27L7 27L7 26ZM15 26L15 27L14 27L14 28L15 28L15 27L16 27L16 26ZM26 26L26 27L27 27L27 26ZM38 26L38 27L37 27L37 28L35 28L35 29L37 29L37 28L41 28L41 27L40 27L40 26ZM48 26L48 27L49 27L49 26ZM70 26L70 27L71 27L71 26ZM56 27L56 28L57 28L57 27ZM43 28L43 29L44 29L44 30L45 30L45 29L46 29L46 28ZM67 28L67 30L70 30L70 32L71 32L71 31L72 31L72 30L71 30L71 29L68 29L68 28ZM4 29L4 30L5 30L5 29ZM31 29L31 30L32 30L32 29ZM57 29L57 30L58 30L58 31L59 31L59 29ZM2 30L2 31L3 31L3 30ZM41 30L41 31L42 31L42 30ZM7 31L7 32L8 32L8 31ZM14 31L14 32L15 32L15 31ZM55 32L55 33L56 33L56 32ZM58 32L58 33L59 33L59 32ZM2 33L2 34L4 34L4 33ZM41 33L41 34L42 34L42 36L43 36L43 34L42 34L42 33ZM8 34L8 35L9 35L9 34ZM22 34L22 35L21 35L21 38L19 38L19 39L18 39L18 40L20 40L20 42L19 42L19 41L18 41L18 43L17 43L17 46L14 46L14 45L13 45L13 46L14 46L14 47L13 47L13 49L12 49L12 47L11 47L11 50L10 50L10 51L11 51L11 52L12 52L12 51L13 51L13 54L14 54L14 52L15 52L15 51L17 51L17 52L16 52L16 53L17 53L17 52L19 52L19 54L16 54L16 55L17 55L17 56L16 56L16 57L15 57L15 55L12 55L12 54L11 54L11 55L12 55L12 56L10 56L10 55L9 55L9 56L8 56L8 57L9 57L9 58L8 58L8 59L9 59L9 61L11 61L11 62L9 62L9 63L11 63L11 62L12 62L12 63L14 63L14 64L15 64L15 63L16 63L16 64L18 64L18 66L20 66L20 65L19 65L19 64L21 64L21 67L22 67L22 68L23 68L23 65L24 65L24 64L27 64L27 62L28 62L28 63L29 63L29 64L28 64L28 65L26 65L26 66L28 66L28 67L29 67L29 68L32 68L32 67L30 67L30 66L32 66L32 65L31 65L31 64L32 64L32 61L31 61L31 57L29 57L29 58L30 58L30 60L28 60L28 61L27 61L27 62L26 62L26 63L24 63L24 64L23 64L23 62L22 62L22 63L21 63L21 62L20 62L20 63L19 63L19 64L18 64L18 63L17 63L17 62L13 62L13 61L12 61L12 60L10 60L10 59L11 59L11 57L12 57L12 56L13 56L13 58L12 58L12 59L13 59L13 60L14 60L14 58L15 58L15 61L16 61L16 58L17 58L17 56L18 56L18 58L19 58L19 59L17 59L17 60L19 60L19 61L23 61L23 59L26 59L26 58L25 58L25 57L26 57L26 55L29 55L29 56L31 56L31 54L32 54L32 52L33 52L33 51L34 51L34 52L35 52L35 54L33 54L33 55L32 55L32 56L36 56L36 57L38 57L38 55L40 55L40 56L39 56L39 58L38 58L38 59L39 59L39 60L38 60L38 61L37 61L37 60L36 60L36 59L37 59L37 58L36 58L36 59L34 59L34 58L32 58L32 60L33 60L33 61L35 61L35 62L33 62L33 66L34 66L34 67L33 67L33 68L35 68L35 67L39 67L39 66L40 66L40 65L39 65L39 64L41 64L41 66L43 66L43 67L44 67L44 68L45 68L45 67L46 67L46 66L45 66L45 67L44 67L44 64L45 64L45 65L47 65L47 66L48 66L48 67L50 67L50 66L49 66L49 64L50 64L50 65L51 65L51 67L54 67L54 68L56 68L56 69L57 69L57 70L58 70L58 71L59 71L59 72L62 72L62 71L63 71L63 70L65 70L65 69L64 69L64 68L63 68L63 67L62 67L62 69L63 69L63 70L60 70L60 69L59 69L59 68L60 68L60 67L61 67L61 66L59 66L59 68L58 68L58 67L57 67L57 68L56 68L56 67L54 67L54 66L56 66L56 65L54 65L54 63L55 63L55 60L56 60L56 64L60 64L60 65L61 65L61 63L62 63L62 64L63 64L63 65L62 65L62 66L64 66L64 64L63 64L63 63L66 63L66 62L65 62L65 61L67 61L67 62L68 62L68 61L67 61L67 60L69 60L69 61L70 61L70 60L71 60L71 59L70 59L70 58L68 58L68 57L67 57L67 56L68 56L68 55L66 55L66 54L65 54L65 55L64 55L64 54L61 54L61 55L59 55L59 54L58 54L58 53L59 53L59 52L60 52L60 53L61 53L61 52L62 52L62 50L60 50L60 49L61 49L61 48L63 48L63 51L64 51L64 52L63 52L63 53L64 53L64 52L65 52L65 53L66 53L66 52L65 52L65 51L67 51L67 50L65 50L65 51L64 51L64 49L66 49L66 48L65 48L65 47L63 47L63 46L62 46L62 47L61 47L61 45L60 45L60 46L58 46L58 45L55 45L55 43L54 43L54 44L53 44L53 45L54 45L54 46L53 46L53 47L52 47L52 46L48 46L48 45L49 45L49 44L48 44L48 45L46 45L46 46L45 46L45 45L44 45L44 44L45 44L45 43L44 43L44 41L42 41L42 42L43 42L43 43L44 43L44 44L42 44L42 43L41 43L41 44L42 44L42 46L45 46L45 47L46 47L46 48L43 48L43 49L42 49L42 47L40 47L40 46L39 46L39 48L41 48L41 50L43 50L43 51L40 51L40 52L38 52L38 51L37 51L37 50L38 50L38 48L36 48L36 47L38 47L38 45L39 45L39 44L40 44L40 43L39 43L39 44L38 44L38 45L37 45L37 44L35 44L35 42L34 42L34 40L33 40L33 42L34 42L34 44L33 44L33 43L32 43L32 44L33 44L33 45L32 45L32 46L30 46L30 45L29 45L29 43L28 43L28 44L27 44L27 41L29 41L29 40L28 40L28 39L29 39L29 38L27 38L27 41L26 41L26 40L24 40L24 41L23 41L23 40L22 40L22 39L25 39L25 38L22 38L22 37L23 37L23 36L24 36L24 35L23 35L23 34ZM2 35L2 36L3 36L3 35ZM4 35L4 37L2 37L2 38L3 38L3 39L2 39L2 40L1 40L1 41L2 41L2 42L3 42L3 41L2 41L2 40L3 40L3 39L4 39L4 37L5 37L5 35ZM44 35L44 36L46 36L46 35ZM67 36L67 37L68 37L68 36ZM74 36L74 37L76 37L76 36ZM8 37L8 39L7 39L7 38L6 38L6 39L7 39L7 40L8 40L8 39L9 39L9 37ZM54 37L54 38L55 38L55 39L56 39L56 38L55 38L55 37ZM61 37L61 40L63 40L63 39L62 39L62 37ZM10 38L10 39L11 39L11 38ZM75 38L75 39L76 39L76 38ZM12 39L12 40L15 40L15 43L16 43L16 41L17 41L17 40L15 40L15 39ZM20 39L20 40L21 40L21 41L22 41L22 44L23 44L23 46L26 46L26 45L27 45L27 46L28 46L28 45L27 45L27 44L25 44L25 45L24 45L24 44L23 44L23 43L26 43L26 41L24 41L24 42L23 42L23 41L22 41L22 40L21 40L21 39ZM9 40L9 43L10 43L10 46L11 46L11 44L13 44L13 42L12 42L12 41L11 41L11 40ZM36 40L36 41L37 41L37 40ZM69 40L69 42L67 42L67 43L69 43L69 44L70 44L70 43L71 43L71 42L70 42L70 40ZM7 41L7 42L8 42L8 41ZM10 41L10 42L11 42L11 41ZM75 41L75 42L76 42L76 41ZM36 42L36 43L37 43L37 42ZM58 42L58 43L59 43L59 44L60 44L60 43L59 43L59 42ZM18 43L18 44L21 44L21 43ZM19 45L19 46L17 46L17 47L14 47L14 48L16 48L16 49L14 49L14 50L13 50L13 51L14 51L14 50L16 50L16 49L18 49L18 51L19 51L19 50L21 50L21 51L22 51L22 56L21 56L21 57L20 57L20 58L21 58L21 59L19 59L19 60L22 60L22 56L23 56L23 58L24 58L24 57L25 57L25 56L23 56L23 55L26 55L26 54L27 54L27 51L24 51L24 50L23 50L23 49L24 49L24 47L21 47L21 48L23 48L23 49L22 49L22 50L21 50L21 49L20 49L20 47L19 47L19 46L20 46L20 45ZM21 45L21 46L22 46L22 45ZM33 45L33 46L34 46L34 47L33 47L33 48L31 48L31 47L30 47L30 46L29 46L29 47L30 47L30 48L31 48L31 51L30 51L30 49L29 49L29 51L28 51L28 53L29 53L29 52L32 52L32 51L33 51L33 50L34 50L34 51L35 51L35 52L37 52L37 53L38 53L38 54L37 54L37 55L36 55L36 56L37 56L37 55L38 55L38 54L39 54L39 53L38 53L38 52L37 52L37 51L36 51L36 50L37 50L37 49L36 49L36 50L34 50L34 49L33 49L33 48L34 48L34 47L35 47L35 46L34 46L34 45ZM36 45L36 46L37 46L37 45ZM56 46L56 48L55 48L55 47L53 47L53 49L52 49L52 50L51 50L51 52L50 52L50 51L49 51L49 52L47 52L47 51L44 51L44 53L43 53L43 52L42 52L42 53L41 53L41 52L40 52L40 55L41 55L41 56L40 56L40 57L41 57L41 58L42 58L42 59L43 59L43 58L42 58L42 57L43 57L43 56L42 56L42 55L45 55L45 54L44 54L44 53L46 53L46 54L47 54L47 55L48 55L48 56L47 56L47 57L46 57L46 58L47 58L47 57L48 57L48 58L50 58L50 59L49 59L49 60L50 60L50 61L51 61L51 62L52 62L52 63L50 63L50 64L52 64L52 63L53 63L53 62L54 62L54 61L53 61L53 60L54 60L54 59L55 59L55 58L56 58L56 60L57 60L57 59L58 59L58 60L59 60L59 63L60 63L60 60L62 60L62 61L61 61L61 62L64 62L64 61L65 61L65 60L67 60L67 59L68 59L68 58L67 58L67 57L66 57L66 55L65 55L65 56L63 56L63 58L62 58L62 57L61 57L61 56L62 56L62 55L61 55L61 56L59 56L59 55L58 55L58 54L57 54L57 53L56 53L56 51L55 51L55 50L56 50L56 49L59 49L59 48L61 48L61 47L58 47L58 48L57 48L57 46ZM5 47L5 50L8 50L8 47ZM17 47L17 48L19 48L19 47ZM25 47L25 50L28 50L28 47ZM47 47L47 50L50 50L50 47ZM51 47L51 48L52 48L52 47ZM69 47L69 50L72 50L72 47ZM2 48L2 49L1 49L1 50L2 50L2 49L4 49L4 48ZM6 48L6 49L7 49L7 48ZM26 48L26 49L27 49L27 48ZM48 48L48 49L49 49L49 48ZM70 48L70 49L71 49L71 48ZM73 48L73 49L74 49L74 48ZM43 49L43 50L44 50L44 49ZM45 49L45 50L46 50L46 49ZM54 49L54 50L52 50L52 51L53 51L53 53L55 53L55 54L56 54L56 53L55 53L55 51L54 51L54 50L55 50L55 49ZM11 50L11 51L12 51L12 50ZM22 50L22 51L23 51L23 50ZM4 51L4 52L5 52L5 51ZM58 51L58 52L59 52L59 51ZM60 51L60 52L61 52L61 51ZM69 51L69 54L70 54L70 53L74 53L74 52L75 52L75 51L74 51L74 52L73 52L73 51L72 51L72 52L71 52L71 51ZM23 52L23 53L25 53L25 54L26 54L26 53L25 53L25 52ZM46 52L46 53L47 53L47 54L48 54L48 55L50 55L50 54L51 54L51 55L52 55L52 54L51 54L51 53L52 53L52 52L51 52L51 53L50 53L50 52L49 52L49 53L50 53L50 54L48 54L48 53L47 53L47 52ZM42 53L42 54L43 54L43 53ZM20 54L20 55L21 55L21 54ZM29 54L29 55L30 55L30 54ZM53 55L53 56L49 56L49 57L51 57L51 61L52 61L52 60L53 60L53 59L52 59L52 57L53 57L53 56L54 56L54 57L55 57L55 56L56 56L56 58L58 58L58 59L59 59L59 60L60 60L60 59L62 59L62 60L63 60L63 61L64 61L64 60L63 60L63 59L62 59L62 58L60 58L60 57L59 57L59 56L58 56L58 55L55 55L55 56L54 56L54 55ZM5 56L5 57L4 57L4 58L5 58L5 57L7 57L7 56ZM9 56L9 57L10 57L10 56ZM27 56L27 57L28 57L28 56ZM44 56L44 57L45 57L45 56ZM75 56L75 57L76 57L76 56ZM64 57L64 58L65 58L65 57ZM9 58L9 59L10 59L10 58ZM59 58L59 59L60 59L60 58ZM66 58L66 59L67 59L67 58ZM3 59L3 60L4 60L4 59ZM33 59L33 60L34 60L34 59ZM25 60L25 61L26 61L26 60ZM40 60L40 61L41 61L41 62L40 62L40 63L41 63L41 64L42 64L42 65L43 65L43 63L45 63L45 60ZM47 60L47 61L46 61L46 62L47 62L47 63L46 63L46 64L47 64L47 65L48 65L48 64L49 64L49 61L48 61L48 60ZM6 61L6 62L7 62L7 61ZM28 61L28 62L29 62L29 63L30 63L30 64L29 64L29 65L28 65L28 66L29 66L29 65L30 65L30 64L31 64L31 63L30 63L30 62L29 62L29 61ZM38 61L38 62L37 62L37 65L38 65L38 66L39 66L39 65L38 65L38 64L39 64L39 63L38 63L38 62L39 62L39 61ZM42 61L42 62L41 62L41 63L42 63L42 62L43 62L43 61ZM47 61L47 62L48 62L48 61ZM57 62L57 63L58 63L58 62ZM34 63L34 64L35 64L35 63ZM47 63L47 64L48 64L48 63ZM65 64L65 65L66 65L66 66L67 66L67 64ZM74 64L74 66L75 66L75 64ZM34 65L34 66L36 66L36 65ZM53 65L53 66L54 66L54 65ZM57 65L57 66L58 66L58 65ZM68 65L68 67L69 67L69 65ZM10 66L10 67L11 67L11 68L12 68L12 67L11 67L11 66ZM24 66L24 67L25 67L25 66ZM71 67L71 68L72 68L72 67ZM76 67L76 68L75 68L75 74L74 74L74 75L73 75L73 74L72 74L72 75L73 75L73 76L71 76L71 77L73 77L73 76L74 76L74 75L75 75L75 76L76 76L76 73L77 73L77 71L76 71L76 70L77 70L77 69L76 69L76 68L77 68L77 67ZM38 68L38 69L37 69L37 70L38 70L38 69L39 69L39 68ZM18 69L18 71L20 71L20 74L21 74L21 70L20 70L20 69ZM25 69L25 72L28 72L28 69ZM30 69L30 70L32 70L32 69ZM47 69L47 72L50 72L50 69ZM69 69L69 72L72 72L72 69ZM26 70L26 71L27 71L27 70ZM48 70L48 71L49 71L49 70ZM70 70L70 71L71 71L71 70ZM67 72L67 76L68 76L68 75L69 75L69 74L70 74L70 73L68 73L68 72ZM9 73L9 75L10 75L10 76L13 76L13 75L10 75L10 73ZM11 73L11 74L12 74L12 73ZM63 73L63 74L64 74L64 75L65 75L65 76L66 76L66 75L65 75L65 74L66 74L66 73ZM29 74L29 75L30 75L30 74ZM45 74L45 75L47 75L47 74ZM15 75L15 76L16 76L16 75ZM51 75L51 76L52 76L52 75ZM45 76L45 77L46 77L46 76ZM60 76L60 77L62 77L62 76ZM0 0L0 7L7 7L7 0ZM1 1L1 6L6 6L6 1ZM2 2L2 5L5 5L5 2ZM70 0L70 7L77 7L77 0ZM71 1L71 6L76 6L76 1ZM72 2L72 5L75 5L75 2ZM0 70L0 77L7 77L7 70ZM1 71L1 76L6 76L6 71ZM2 72L2 75L5 75L5 72Z" fill="#000000"/></g></g></svg>
