<?xml version="1.0" encoding="UTF-8"?>
<svg xmlns="http://www.w3.org/2000/svg" version="1.1" width="200" height="200" viewBox="0 0 200 200"><rect x="0" y="0" width="200" height="200" fill="#ffffff"/><g transform="scale(2.667)"><g transform="translate(1,1)"><path fill-rule="evenodd" d="M10 0L10 1L11 1L11 2L8 2L8 8L9 8L9 9L10 9L10 10L11 10L11 6L10 6L10 7L9 7L9 4L10 4L10 5L11 5L11 4L12 4L12 8L15 8L15 9L13 9L13 10L14 10L14 11L16 11L16 12L15 12L15 13L14 13L14 12L13 12L13 13L12 13L12 12L11 12L11 13L12 13L12 14L13 14L13 16L9 16L9 15L8 15L8 14L10 14L10 15L11 15L11 14L10 14L10 13L7 13L7 12L8 12L8 11L7 11L7 10L8 10L8 9L7 9L7 8L2 8L2 9L1 9L1 8L0 8L0 10L2 10L2 11L1 11L1 14L0 14L0 15L1 15L1 16L0 16L0 17L4 17L4 18L3 18L3 21L2 21L2 19L1 19L1 18L0 18L0 24L2 24L2 25L0 25L0 26L2 26L2 25L3 25L3 23L7 23L7 24L4 24L4 26L3 26L3 27L2 27L2 28L1 28L1 27L0 27L0 29L1 29L1 30L0 30L0 31L1 31L1 30L3 30L3 31L5 31L5 30L6 30L6 31L7 31L7 32L5 32L5 33L4 33L4 32L3 32L3 33L2 33L2 35L0 35L0 36L2 36L2 37L3 37L3 39L2 39L2 40L1 40L1 42L2 42L2 43L3 43L3 44L4 44L4 45L3 45L3 46L2 46L2 45L1 45L1 46L0 46L0 47L2 47L2 48L4 48L4 49L5 49L5 50L4 50L4 51L5 51L5 52L4 52L4 53L9 53L9 54L3 54L3 53L1 53L1 52L2 52L2 50L3 50L3 49L1 49L1 48L0 48L0 49L1 49L1 52L0 52L0 55L1 55L1 56L0 56L0 57L2 57L2 58L0 58L0 63L2 63L2 62L1 62L1 59L2 59L2 61L3 61L3 64L4 64L4 65L5 65L5 63L7 63L7 64L6 64L6 65L8 65L8 66L10 66L10 69L11 69L11 67L12 67L12 68L13 68L13 69L12 69L12 70L11 70L11 72L12 72L12 73L15 73L15 72L16 72L16 73L17 73L17 71L15 71L15 70L14 70L14 71L13 71L13 72L12 72L12 70L13 70L13 69L16 69L16 70L17 70L17 69L18 69L18 68L17 68L17 66L18 66L18 65L19 65L19 64L21 64L21 65L20 65L20 66L21 66L21 67L23 67L23 68L22 68L22 69L21 69L21 68L19 68L19 69L20 69L20 71L19 71L19 70L18 70L18 72L21 72L21 71L22 71L22 72L23 72L23 73L25 73L25 71L26 71L26 70L25 70L25 71L24 71L24 70L23 70L23 69L29 69L29 70L32 70L32 68L33 68L33 70L34 70L34 72L33 72L33 71L32 71L32 72L31 72L31 71L30 71L30 72L29 72L29 73L32 73L32 72L33 72L33 73L38 73L38 71L39 71L39 73L40 73L40 72L41 72L41 71L39 71L39 70L36 70L36 71L37 71L37 72L35 72L35 70L34 70L34 67L35 67L35 66L36 66L36 67L38 67L38 64L36 64L36 63L37 63L37 62L38 62L38 60L39 60L39 63L40 63L40 64L39 64L39 67L40 67L40 68L42 68L42 69L41 69L41 70L44 70L44 71L45 71L45 72L44 72L44 73L45 73L45 72L46 72L46 71L45 71L45 70L44 70L44 69L47 69L47 72L48 72L48 73L54 73L54 72L57 72L57 73L58 73L58 72L57 72L57 71L56 71L56 70L58 70L58 71L59 71L59 72L60 72L60 73L63 73L63 72L62 72L62 70L61 70L61 69L60 69L60 71L59 71L59 70L58 70L58 69L59 69L59 66L60 66L60 67L61 67L61 68L62 68L62 69L63 69L63 70L64 70L64 69L65 69L65 70L66 70L66 72L67 72L67 71L68 71L68 72L70 72L70 73L73 73L73 68L72 68L72 72L70 72L70 71L71 71L71 70L70 70L70 69L71 69L71 68L69 68L69 65L70 65L70 67L71 67L71 66L72 66L72 67L73 67L73 66L72 66L72 65L73 65L73 58L72 58L72 57L73 57L73 54L72 54L72 53L71 53L71 52L70 52L70 51L72 51L72 52L73 52L73 50L71 50L71 49L73 49L73 48L72 48L72 47L73 47L73 46L72 46L72 45L73 45L73 44L72 44L72 45L71 45L71 44L70 44L70 43L66 43L66 42L68 42L68 40L67 40L67 39L66 39L66 40L62 40L62 39L63 39L63 38L64 38L64 39L65 39L65 38L64 38L64 37L65 37L65 36L62 36L62 38L61 38L61 35L62 35L62 34L61 34L61 33L59 33L59 32L61 32L61 31L62 31L62 30L61 30L61 29L60 29L60 30L59 30L59 29L58 29L58 27L59 27L59 28L60 28L60 26L59 26L59 25L58 25L58 24L60 24L60 25L62 25L62 24L64 24L64 25L63 25L63 26L61 26L61 28L62 28L62 29L66 29L66 30L65 30L65 33L63 33L63 35L64 35L64 34L65 34L65 33L66 33L66 34L67 34L67 35L66 35L66 36L67 36L67 37L66 37L66 38L68 38L68 36L67 36L67 35L68 35L68 34L67 34L67 33L68 33L68 32L69 32L69 31L70 31L70 30L69 30L69 29L72 29L72 28L73 28L73 24L72 24L72 26L71 26L71 25L70 25L70 24L67 24L67 21L69 21L69 22L68 22L68 23L73 23L73 22L72 22L72 21L73 21L73 20L72 20L72 19L73 19L73 18L72 18L72 19L71 19L71 17L72 17L72 15L73 15L73 14L72 14L72 13L71 13L71 12L70 12L70 13L69 13L69 12L68 12L68 11L69 11L69 10L72 10L72 12L73 12L73 10L72 10L72 9L71 9L71 8L66 8L66 9L65 9L65 8L64 8L64 9L62 9L62 8L60 8L60 7L61 7L61 5L62 5L62 7L63 7L63 5L65 5L65 4L64 4L64 3L62 3L62 4L61 4L61 5L60 5L60 4L59 4L59 5L58 5L58 4L57 4L57 5L58 5L58 7L57 7L57 6L56 6L56 7L55 7L55 6L54 6L54 7L53 7L53 6L52 6L52 5L56 5L56 4L54 4L54 2L55 2L55 3L58 3L58 2L55 2L55 0L54 0L54 1L53 1L53 0L52 0L52 1L51 1L51 2L50 2L50 1L49 1L49 2L47 2L47 4L46 4L46 3L45 3L45 4L44 4L44 2L46 2L46 1L47 1L47 0L46 0L46 1L45 1L45 0L44 0L44 2L43 2L43 3L42 3L42 1L43 1L43 0L42 0L42 1L41 1L41 0L39 0L39 1L38 1L38 0L35 0L35 1L33 1L33 0L32 0L32 1L31 1L31 0L29 0L29 1L27 1L27 2L29 2L29 1L31 1L31 2L30 2L30 3L31 3L31 2L32 2L32 3L34 3L34 4L35 4L35 3L36 3L36 4L37 4L37 5L36 5L36 7L37 7L37 8L36 8L36 10L37 10L37 11L36 11L36 12L35 12L35 10L34 10L34 9L32 9L32 8L35 8L35 6L34 6L34 7L33 7L33 6L32 6L32 5L33 5L33 4L32 4L32 5L31 5L31 4L30 4L30 5L29 5L29 4L28 4L28 3L27 3L27 4L26 4L26 1L25 1L25 2L23 2L23 4L24 4L24 8L23 8L23 9L24 9L24 10L25 10L25 11L24 11L24 12L25 12L25 14L23 14L23 13L22 13L22 12L23 12L23 11L22 11L22 12L17 12L17 11L19 11L19 10L22 10L22 8L21 8L21 9L19 9L19 8L17 8L17 11L16 11L16 10L15 10L15 9L16 9L16 8L15 8L15 6L16 6L16 7L17 7L17 6L18 6L18 7L19 7L19 6L18 6L18 5L19 5L19 4L20 4L20 7L21 7L21 6L22 6L22 7L23 7L23 5L22 5L22 4L20 4L20 3L21 3L21 2L22 2L22 1L23 1L23 0L21 0L21 1L20 1L20 3L19 3L19 4L16 4L16 2L17 2L17 3L18 3L18 1L19 1L19 0L18 0L18 1L17 1L17 0L14 0L14 1L13 1L13 0L12 0L12 1L11 1L11 0ZM57 0L57 1L58 1L58 0ZM59 0L59 3L60 3L60 2L61 2L61 0ZM62 0L62 2L63 2L63 0ZM64 0L64 1L65 1L65 0ZM12 1L12 2L11 2L11 3L10 3L10 4L11 4L11 3L12 3L12 4L15 4L15 2L16 2L16 1L15 1L15 2L14 2L14 3L12 3L12 2L13 2L13 1ZM35 1L35 2L34 2L34 3L35 3L35 2L36 2L36 3L37 3L37 4L38 4L38 5L37 5L37 7L38 7L38 8L39 8L39 7L40 7L40 6L41 6L41 7L42 7L42 6L43 6L43 7L44 7L44 4L43 4L43 5L42 5L42 3L39 3L39 2L36 2L36 1ZM40 1L40 2L41 2L41 1ZM48 3L48 4L49 4L49 3ZM52 3L52 4L53 4L53 3ZM39 4L39 5L38 5L38 7L39 7L39 5L40 5L40 4ZM50 4L50 5L49 5L49 8L50 8L50 9L47 9L47 10L46 10L46 9L45 9L45 10L44 10L44 8L42 8L42 9L41 9L41 8L40 8L40 9L37 9L37 10L39 10L39 11L40 11L40 12L37 12L37 14L35 14L35 13L34 13L34 12L33 12L33 10L28 10L28 9L27 9L27 10L26 10L26 9L25 9L25 10L26 10L26 11L27 11L27 13L26 13L26 16L25 16L25 15L23 15L23 14L22 14L22 13L15 13L15 16L14 16L14 17L11 17L11 18L9 18L9 17L5 17L5 15L4 15L4 17L5 17L5 19L6 19L6 20L5 20L5 21L4 21L4 22L7 22L7 23L8 23L8 24L9 24L9 23L11 23L11 25L9 25L9 29L6 29L6 30L8 30L8 32L7 32L7 33L6 33L6 34L7 34L7 33L8 33L8 34L9 34L9 35L10 35L10 36L9 36L9 37L8 37L8 36L7 36L7 35L6 35L6 36L5 36L5 34L4 34L4 35L2 35L2 36L3 36L3 37L4 37L4 36L5 36L5 38L7 38L7 39L6 39L6 40L8 40L8 39L9 39L9 37L10 37L10 36L11 36L11 37L12 37L12 36L11 36L11 35L15 35L15 37L14 37L14 36L13 36L13 38L10 38L10 40L11 40L11 41L10 41L10 43L9 43L9 41L8 41L8 42L7 42L7 41L6 41L6 42L5 42L5 39L3 39L3 41L2 41L2 42L3 42L3 41L4 41L4 42L5 42L5 43L4 43L4 44L8 44L8 43L9 43L9 46L10 46L10 47L9 47L9 49L10 49L10 50L11 50L11 51L9 51L9 52L10 52L10 54L9 54L9 55L5 55L5 56L7 56L7 57L6 57L6 58L7 58L7 59L5 59L5 61L4 61L4 58L5 58L5 57L3 57L3 56L4 56L4 55L2 55L2 57L3 57L3 58L2 58L2 59L3 59L3 61L4 61L4 63L5 63L5 61L6 61L6 62L7 62L7 63L8 63L8 64L9 64L9 62L8 62L8 61L9 61L9 60L10 60L10 61L12 61L12 67L13 67L13 68L14 68L14 67L15 67L15 68L16 68L16 67L15 67L15 66L16 66L16 65L18 65L18 63L20 63L20 62L21 62L21 64L22 64L22 65L21 65L21 66L22 66L22 65L23 65L23 66L24 66L24 63L23 63L23 62L25 62L25 64L27 64L27 63L26 63L26 59L27 59L27 61L28 61L28 64L29 64L29 62L30 62L30 63L31 63L31 62L32 62L32 61L33 61L33 62L34 62L34 63L33 63L33 64L32 64L32 65L31 65L31 66L30 66L30 67L29 67L29 69L30 69L30 67L33 67L33 66L32 66L32 65L33 65L33 64L34 64L34 66L35 66L35 65L36 65L36 66L37 66L37 65L36 65L36 64L34 64L34 63L35 63L35 62L36 62L36 61L35 61L35 60L38 60L38 58L40 58L40 59L41 59L41 60L40 60L40 62L41 62L41 63L42 63L42 64L47 64L47 63L49 63L49 66L51 66L51 67L49 67L49 69L48 69L48 71L49 71L49 72L50 72L50 71L49 71L49 70L50 70L50 69L51 69L51 72L54 72L54 71L55 71L55 70L54 70L54 69L55 69L55 68L56 68L56 69L58 69L58 66L59 66L59 65L60 65L60 64L62 64L62 65L61 65L61 66L63 66L63 68L64 68L64 66L63 66L63 65L64 65L64 64L63 64L63 63L60 63L60 62L59 62L59 61L60 61L60 60L59 60L59 61L58 61L58 59L59 59L59 58L60 58L60 57L61 57L61 58L62 58L62 59L61 59L61 62L62 62L62 60L63 60L63 62L64 62L64 63L65 63L65 64L66 64L66 63L67 63L67 64L70 64L70 65L72 65L72 64L71 64L71 62L72 62L72 60L71 60L71 58L70 58L70 57L69 57L69 55L70 55L70 56L71 56L71 57L72 57L72 54L71 54L71 55L70 55L70 54L69 54L69 51L68 51L68 50L69 50L69 49L70 49L70 48L71 48L71 47L72 47L72 46L71 46L71 45L70 45L70 44L69 44L69 46L70 46L70 47L69 47L69 49L68 49L68 50L67 50L67 49L66 49L66 50L67 50L67 52L68 52L68 54L67 54L67 53L64 53L64 51L63 51L63 50L64 50L64 49L62 49L62 47L60 47L60 46L59 46L59 45L61 45L61 46L62 46L62 45L63 45L63 48L64 48L64 44L66 44L66 43L65 43L65 42L66 42L66 41L67 41L67 40L66 40L66 41L64 41L64 43L62 43L62 40L61 40L61 39L60 39L60 38L59 38L59 37L60 37L60 36L59 36L59 35L61 35L61 34L59 34L59 35L58 35L58 34L57 34L57 33L56 33L56 32L57 32L57 31L58 31L58 30L57 30L57 31L52 31L52 32L53 32L53 33L52 33L52 35L49 35L49 34L50 34L50 33L49 33L49 31L48 31L48 30L47 30L47 29L46 29L46 30L45 30L45 32L44 32L44 31L42 31L42 30L41 30L41 29L43 29L43 30L44 30L44 29L43 29L43 28L42 28L42 26L40 26L40 27L39 27L39 23L40 23L40 22L39 22L39 21L40 21L40 20L41 20L41 21L43 21L43 22L42 22L42 23L41 23L41 24L40 24L40 25L43 25L43 24L44 24L44 23L43 23L43 22L48 22L48 23L47 23L47 24L48 24L48 23L49 23L49 26L50 26L50 25L51 25L51 22L54 22L54 19L55 19L55 18L56 18L56 19L58 19L58 22L56 22L56 23L57 23L57 24L58 24L58 23L59 23L59 22L60 22L60 20L59 20L59 19L60 19L60 18L59 18L59 17L60 17L60 16L59 16L59 15L61 15L61 20L62 20L62 21L61 21L61 22L62 22L62 23L61 23L61 24L62 24L62 23L64 23L64 24L65 24L65 22L66 22L66 21L67 21L67 20L69 20L69 21L70 21L70 22L71 22L71 21L70 21L70 20L71 20L71 19L68 19L68 18L70 18L70 16L71 16L71 15L70 15L70 16L69 16L69 15L66 15L66 16L65 16L65 13L66 13L66 14L67 14L67 13L66 13L66 12L64 12L64 11L65 11L65 10L63 10L63 11L60 11L60 10L62 10L62 9L60 9L60 8L58 8L58 10L57 10L57 9L56 9L56 8L57 8L57 7L56 7L56 8L54 8L54 9L52 9L52 11L51 11L51 8L52 8L52 6L51 6L51 7L50 7L50 5L51 5L51 4ZM62 4L62 5L63 5L63 4ZM25 5L25 8L28 8L28 5ZM30 5L30 6L29 6L29 7L30 7L30 6L31 6L31 7L32 7L32 6L31 6L31 5ZM45 5L45 8L48 8L48 5ZM59 5L59 7L60 7L60 5ZM13 6L13 7L14 7L14 6ZM26 6L26 7L27 7L27 6ZM46 6L46 7L47 7L47 6ZM64 6L64 7L65 7L65 6ZM2 9L2 10L3 10L3 11L4 11L4 12L2 12L2 13L4 13L4 12L7 12L7 11L4 11L4 9ZM6 9L6 10L7 10L7 9ZM18 9L18 10L19 10L19 9ZM42 9L42 10L40 10L40 11L41 11L41 12L42 12L42 13L41 13L41 14L43 14L43 11L42 11L42 10L43 10L43 9ZM54 9L54 10L56 10L56 9ZM67 9L67 10L69 10L69 9ZM27 10L27 11L28 11L28 10ZM45 10L45 11L44 11L44 14L45 14L45 15L44 15L44 18L43 18L43 15L42 15L42 16L41 16L41 15L40 15L40 14L38 14L38 15L39 15L39 16L41 16L41 17L39 17L39 19L38 19L38 18L36 18L36 20L35 20L35 19L34 19L34 21L36 21L36 20L37 20L37 22L38 22L38 23L37 23L37 24L35 24L35 23L36 23L36 22L33 22L33 20L31 20L31 19L33 19L33 18L34 18L34 17L33 17L33 18L32 18L32 16L34 16L34 15L35 15L35 17L38 17L38 16L37 16L37 15L35 15L35 14L31 14L31 13L32 13L32 11L29 11L29 12L28 12L28 13L27 13L27 14L28 14L28 15L30 15L30 16L29 16L29 17L27 17L27 16L26 16L26 17L27 17L27 18L29 18L29 21L26 21L26 18L25 18L25 16L23 16L23 18L24 18L24 19L22 19L22 20L23 20L23 22L22 22L22 23L21 23L21 22L20 22L20 21L21 21L21 19L20 19L20 18L19 18L19 17L18 17L18 18L17 18L17 16L15 16L15 17L16 17L16 19L15 19L15 18L14 18L14 19L13 19L13 18L12 18L12 20L14 20L14 21L12 21L12 23L13 23L13 25L12 25L12 26L13 26L13 27L12 27L12 29L11 29L11 32L10 32L10 31L9 31L9 32L8 32L8 33L10 33L10 35L11 35L11 33L14 33L14 34L19 34L19 33L20 33L20 34L21 34L21 35L22 35L22 36L21 36L21 37L19 37L19 38L18 38L18 36L16 36L16 37L17 37L17 38L16 38L16 39L15 39L15 40L14 40L14 38L13 38L13 41L11 41L11 43L10 43L10 44L12 44L12 42L13 42L13 43L15 43L15 44L13 44L13 45L16 45L16 46L14 46L14 47L16 47L16 46L17 46L17 48L18 48L18 49L14 49L14 48L13 48L13 49L12 49L12 53L11 53L11 55L10 55L10 56L9 56L9 58L8 58L8 57L7 57L7 58L8 58L8 59L9 59L9 58L10 58L10 56L12 56L12 57L11 57L11 58L12 58L12 57L13 57L13 59L12 59L12 60L13 60L13 59L14 59L14 61L15 61L15 60L16 60L16 59L15 59L15 58L14 58L14 57L13 57L13 56L12 56L12 53L13 53L13 55L14 55L14 56L16 56L16 57L17 57L17 56L18 56L18 55L19 55L19 56L20 56L20 57L18 57L18 59L17 59L17 60L18 60L18 61L21 61L21 62L22 62L22 60L21 60L21 59L23 59L23 61L25 61L25 59L26 59L26 58L27 58L27 59L28 59L28 58L32 58L32 57L30 57L30 55L31 55L31 56L32 56L32 55L31 55L31 54L32 54L32 52L33 52L33 53L34 53L34 54L33 54L33 55L34 55L34 56L33 56L33 57L35 57L35 58L33 58L33 61L34 61L34 59L35 59L35 58L36 58L36 59L37 59L37 58L38 58L38 57L40 57L40 56L38 56L38 57L37 57L37 54L39 54L39 55L40 55L40 54L42 54L42 56L41 56L41 58L43 58L43 59L42 59L42 60L41 60L41 62L42 62L42 63L44 63L44 62L43 62L43 61L45 61L45 63L47 63L47 61L48 61L48 62L49 62L49 63L50 63L50 65L51 65L51 66L52 66L52 65L54 65L54 66L53 66L53 67L51 67L51 68L53 68L53 67L54 67L54 68L55 68L55 67L56 67L56 68L57 68L57 67L56 67L56 66L55 66L55 64L56 64L56 65L57 65L57 66L58 66L58 65L59 65L59 64L60 64L60 63L59 63L59 62L58 62L58 61L57 61L57 59L55 59L55 58L56 58L56 57L54 57L54 56L58 56L58 55L54 55L54 54L58 54L58 53L59 53L59 54L60 54L60 55L61 55L61 57L62 57L62 56L63 56L63 57L65 57L65 61L69 61L69 63L70 63L70 60L69 60L69 59L70 59L70 58L69 58L69 59L68 59L68 56L63 56L63 55L64 55L64 54L62 54L62 55L61 55L61 51L62 51L62 50L61 50L61 51L60 51L60 50L59 50L59 49L58 49L58 47L59 47L59 48L60 48L60 47L59 47L59 46L58 46L58 45L59 45L59 44L60 44L60 43L59 43L59 44L58 44L58 42L61 42L61 40L60 40L60 39L58 39L58 40L57 40L57 38L58 38L58 37L56 37L56 39L55 39L55 38L53 38L53 35L54 35L54 34L53 34L53 35L52 35L52 36L50 36L50 37L51 37L51 38L49 38L49 39L47 39L47 38L48 38L48 37L49 37L49 35L48 35L48 36L47 36L47 38L46 38L46 37L45 37L45 38L46 38L46 39L44 39L44 38L43 38L43 37L44 37L44 36L43 36L43 35L42 35L42 36L41 36L41 34L43 34L43 33L44 33L44 34L45 34L45 36L46 36L46 35L47 35L47 34L48 34L48 33L47 33L47 32L46 32L46 33L47 33L47 34L45 34L45 33L44 33L44 32L43 32L43 33L42 33L42 31L40 31L40 32L41 32L41 34L40 34L40 33L39 33L39 34L38 34L38 35L39 35L39 36L38 36L38 37L37 37L37 36L35 36L35 35L37 35L37 33L38 33L38 31L37 31L37 30L38 30L38 29L39 29L39 30L40 30L40 28L41 28L41 27L40 27L40 28L39 28L39 27L38 27L38 25L37 25L37 24L38 24L38 23L39 23L39 22L38 22L38 20L40 20L40 18L41 18L41 19L42 19L42 20L43 20L43 21L44 21L44 18L45 18L45 19L46 19L46 18L47 18L47 17L46 17L46 16L48 16L48 17L50 17L50 18L48 18L48 19L51 19L51 20L47 20L47 21L52 21L52 20L53 20L53 19L54 19L54 18L55 18L55 17L54 17L54 16L56 16L56 18L58 18L58 17L57 17L57 16L58 16L58 15L59 15L59 14L58 14L58 13L54 13L54 14L53 14L53 13L52 13L52 12L53 12L53 11L52 11L52 12L51 12L51 11L50 11L50 10L49 10L49 11L46 11L46 10ZM58 10L58 11L55 11L55 12L60 12L60 11L59 11L59 10ZM9 11L9 12L10 12L10 11ZM29 12L29 13L30 13L30 12ZM5 13L5 14L7 14L7 13ZM13 13L13 14L14 14L14 13ZM45 13L45 14L46 14L46 13ZM47 13L47 15L48 15L48 16L49 16L49 14L50 14L50 13L49 13L49 14L48 14L48 13ZM60 13L60 14L61 14L61 13ZM62 13L62 16L64 16L64 13ZM70 13L70 14L71 14L71 13ZM16 14L16 15L18 15L18 14ZM21 14L21 15L22 15L22 14ZM30 14L30 15L31 15L31 16L32 16L32 15L31 15L31 14ZM51 14L51 15L50 15L50 16L52 16L52 17L51 17L51 18L54 18L54 17L53 17L53 16L54 16L54 15L55 15L55 14L54 14L54 15L52 15L52 14ZM57 14L57 15L56 15L56 16L57 16L57 15L58 15L58 14ZM2 15L2 16L3 16L3 15ZM6 15L6 16L7 16L7 15ZM19 15L19 16L20 16L20 15ZM45 15L45 16L46 16L46 15ZM21 16L21 17L22 17L22 16ZM66 16L66 17L65 17L65 19L64 19L64 17L62 17L62 19L63 19L63 20L64 20L64 21L63 21L63 22L64 22L64 21L66 21L66 20L67 20L67 17L68 17L68 16ZM29 17L29 18L30 18L30 17ZM41 17L41 18L42 18L42 17ZM45 17L45 18L46 18L46 17ZM6 18L6 19L7 19L7 20L6 20L6 21L8 21L8 19L7 19L7 18ZM18 18L18 20L16 20L16 25L17 25L17 26L15 26L15 27L13 27L13 28L14 28L14 29L13 29L13 31L12 31L12 32L13 32L13 31L14 31L14 32L15 32L15 33L19 33L19 32L24 32L24 31L25 31L25 33L23 33L23 34L22 34L22 33L21 33L21 34L22 34L22 35L23 35L23 37L21 37L21 39L24 39L24 40L19 40L19 39L20 39L20 38L19 38L19 39L16 39L16 40L17 40L17 41L16 41L16 42L19 42L19 41L20 41L20 42L22 42L22 43L23 43L23 44L25 44L25 43L23 43L23 42L24 42L24 41L25 41L25 42L26 42L26 44L27 44L27 42L28 42L28 40L27 40L27 39L26 39L26 38L27 38L27 36L25 36L25 35L24 35L24 34L25 34L25 33L26 33L26 35L28 35L28 34L27 34L27 32L28 32L28 33L29 33L29 34L30 34L30 35L31 35L31 36L30 36L30 37L31 37L31 36L32 36L32 38L31 38L31 39L29 39L29 38L28 38L28 39L29 39L29 42L30 42L30 43L29 43L29 44L30 44L30 45L31 45L31 46L30 46L30 47L29 47L29 48L32 48L32 50L30 50L30 52L28 52L28 51L29 51L29 50L28 50L28 49L25 49L25 50L24 50L24 51L22 51L22 50L23 50L23 49L22 49L22 48L24 48L24 45L23 45L23 46L22 46L22 45L21 45L21 44L20 44L20 43L19 43L19 44L18 44L18 43L17 43L17 44L16 44L16 45L17 45L17 46L18 46L18 48L19 48L19 47L20 47L20 49L19 49L19 50L18 50L18 51L16 51L16 52L14 52L14 51L15 51L15 50L14 50L14 49L13 49L13 53L17 53L17 52L19 52L19 55L20 55L20 51L21 51L21 52L22 52L22 53L21 53L21 56L22 56L22 58L23 58L23 59L24 59L24 58L25 58L25 57L28 57L28 55L30 55L30 54L31 54L31 52L32 52L32 51L33 51L33 52L34 52L34 51L33 51L33 50L35 50L35 47L37 47L37 49L38 49L38 50L40 50L40 49L41 49L41 50L42 50L42 52L40 52L40 51L39 51L39 54L40 54L40 53L42 53L42 54L45 54L45 53L44 53L44 52L46 52L46 53L47 53L47 54L48 54L48 55L47 55L47 56L46 56L46 55L43 55L43 56L42 56L42 57L43 57L43 58L48 58L48 56L50 56L50 57L49 57L49 58L50 58L50 59L49 59L49 60L50 60L50 61L49 61L49 62L50 62L50 61L51 61L51 60L52 60L52 59L51 59L51 56L52 56L52 54L51 54L51 53L49 53L49 54L48 54L48 52L49 52L49 50L54 50L54 51L50 51L50 52L54 52L54 53L53 53L53 54L54 54L54 53L57 53L57 52L59 52L59 53L60 53L60 52L59 52L59 51L58 51L58 50L57 50L57 49L56 49L56 48L54 48L54 47L58 47L58 46L56 46L56 44L55 44L55 43L56 43L56 40L55 40L55 39L53 39L53 38L52 38L52 39L49 39L49 43L48 43L48 42L45 42L45 40L44 40L44 39L43 39L43 38L42 38L42 37L41 37L41 36L40 36L40 38L39 38L39 37L38 37L38 38L36 38L36 39L35 39L35 41L34 41L34 39L33 39L33 40L31 40L31 39L32 39L32 38L35 38L35 36L32 36L32 35L34 35L34 34L35 34L35 33L34 33L34 34L33 34L33 32L32 32L32 31L33 31L33 30L29 30L29 29L30 29L30 28L29 28L29 29L26 29L26 30L25 30L25 29L24 29L24 27L23 27L23 26L24 26L24 23L25 23L25 22L26 22L26 24L30 24L30 25L31 25L31 24L30 24L30 23L31 23L31 22L32 22L32 21L31 21L31 22L30 22L30 21L29 21L29 22L28 22L28 23L27 23L27 22L26 22L26 21L25 21L25 20L24 20L24 21L25 21L25 22L23 22L23 23L22 23L22 24L23 24L23 25L21 25L21 23L19 23L19 18ZM9 19L9 21L10 21L10 20L11 20L11 19ZM37 19L37 20L38 20L38 19ZM65 19L65 20L66 20L66 19ZM45 20L45 21L46 21L46 20ZM55 20L55 21L56 21L56 20ZM1 21L1 22L2 22L2 23L3 23L3 22L2 22L2 21ZM14 21L14 25L13 25L13 26L14 26L14 25L15 25L15 21ZM17 21L17 24L18 24L18 21ZM49 22L49 23L50 23L50 22ZM42 23L42 24L43 24L43 23ZM53 23L53 24L54 24L54 25L52 25L52 26L51 26L51 28L50 28L50 27L49 27L49 28L50 28L50 29L49 29L49 30L50 30L50 29L51 29L51 28L52 28L52 29L53 29L53 30L54 30L54 29L53 29L53 28L55 28L55 29L56 29L56 28L55 28L55 27L58 27L58 26L57 26L57 25L56 25L56 24L55 24L55 23ZM32 24L32 25L33 25L33 24ZM34 24L34 26L35 26L35 24ZM5 25L5 28L8 28L8 25ZM19 25L19 26L17 26L17 29L16 29L16 27L15 27L15 29L16 29L16 30L19 30L19 29L20 29L20 28L21 28L21 27L20 27L20 26L21 26L21 25ZM25 25L25 28L28 28L28 25ZM36 25L36 28L35 28L35 27L34 27L34 28L35 28L35 29L34 29L34 30L37 30L37 29L38 29L38 28L37 28L37 25ZM45 25L45 28L48 28L48 25ZM65 25L65 28L68 28L68 25ZM6 26L6 27L7 27L7 26ZM26 26L26 27L27 27L27 26ZM29 26L29 27L30 27L30 26ZM43 26L43 27L44 27L44 26ZM46 26L46 27L47 27L47 26ZM66 26L66 27L67 27L67 26ZM70 26L70 28L72 28L72 27L71 27L71 26ZM19 27L19 28L20 28L20 27ZM31 27L31 28L32 28L32 29L33 29L33 28L32 28L32 27ZM62 27L62 28L64 28L64 27ZM3 28L3 30L4 30L4 28ZM36 28L36 29L37 29L37 28ZM9 29L9 30L10 30L10 29ZM21 29L21 31L22 31L22 30L23 30L23 29ZM67 29L67 30L68 30L68 31L67 31L67 32L66 32L66 33L67 33L67 32L68 32L68 31L69 31L69 30L68 30L68 29ZM28 30L28 31L29 31L29 33L30 33L30 34L31 34L31 35L32 35L32 34L31 34L31 32L30 32L30 31L29 31L29 30ZM46 30L46 31L47 31L47 30ZM63 30L63 31L64 31L64 30ZM72 30L72 31L73 31L73 30ZM16 31L16 32L19 32L19 31ZM26 31L26 32L27 32L27 31ZM34 31L34 32L35 32L35 31ZM36 31L36 32L37 32L37 31ZM0 32L0 33L1 33L1 32ZM54 32L54 33L55 33L55 32ZM70 33L70 34L71 34L71 36L70 36L70 35L69 35L69 36L70 36L70 37L71 37L71 36L72 36L72 37L73 37L73 33L72 33L72 34L71 34L71 33ZM56 34L56 35L55 35L55 36L56 36L56 35L57 35L57 36L58 36L58 35L57 35L57 34ZM6 36L6 37L7 37L7 36ZM23 37L23 38L24 38L24 39L25 39L25 41L26 41L26 42L27 42L27 40L26 40L26 39L25 39L25 37ZM0 38L0 39L1 39L1 38ZM38 38L38 40L36 40L36 41L37 41L37 43L36 43L36 44L35 44L35 42L33 42L33 41L32 41L32 42L33 42L33 43L30 43L30 44L31 44L31 45L32 45L32 46L33 46L33 47L35 47L35 46L37 46L37 47L39 47L39 48L38 48L38 49L39 49L39 48L40 48L40 47L42 47L42 48L41 48L41 49L42 49L42 50L43 50L43 51L48 51L48 50L49 50L49 49L53 49L53 47L54 47L54 46L53 46L53 47L52 47L52 46L51 46L51 47L50 47L50 46L49 46L49 45L50 45L50 44L51 44L51 45L52 45L52 44L53 44L53 45L54 45L54 43L55 43L55 42L54 42L54 43L52 43L52 42L53 42L53 39L52 39L52 40L51 40L51 41L50 41L50 42L51 42L51 43L49 43L49 44L46 44L46 43L45 43L45 44L42 44L42 46L41 46L41 45L39 45L39 46L37 46L37 43L38 43L38 44L40 44L40 42L38 42L38 40L39 40L39 38ZM40 38L40 40L41 40L41 39L42 39L42 40L43 40L43 41L41 41L41 42L43 42L43 43L44 43L44 42L43 42L43 41L44 41L44 40L43 40L43 39L42 39L42 38ZM72 38L72 39L71 39L71 40L70 40L70 41L73 41L73 38ZM18 40L18 41L19 41L19 40ZM47 40L47 41L48 41L48 40ZM54 40L54 41L55 41L55 40ZM59 40L59 41L60 41L60 40ZM30 41L30 42L31 42L31 41ZM6 42L6 43L7 43L7 42ZM71 42L71 43L73 43L73 42ZM33 43L33 44L32 44L32 45L33 45L33 44L34 44L34 46L35 46L35 44L34 44L34 43ZM51 43L51 44L52 44L52 43ZM61 44L61 45L62 45L62 44ZM5 45L5 48L8 48L8 45ZM11 45L11 47L10 47L10 49L11 49L11 47L12 47L12 45ZM18 45L18 46L19 46L19 45ZM25 45L25 48L28 48L28 45ZM45 45L45 48L48 48L48 45ZM65 45L65 48L68 48L68 45ZM6 46L6 47L7 47L7 46ZM20 46L20 47L21 47L21 48L22 48L22 46ZM26 46L26 47L27 47L27 46ZM39 46L39 47L40 47L40 46ZM42 46L42 47L43 47L43 48L42 48L42 49L43 49L43 48L44 48L44 46ZM46 46L46 47L47 47L47 46ZM66 46L66 47L67 47L67 46ZM51 47L51 48L52 48L52 47ZM6 49L6 50L7 50L7 49ZM19 50L19 51L20 51L20 50ZM26 50L26 51L24 51L24 52L23 52L23 53L22 53L22 56L23 56L23 57L24 57L24 56L25 56L25 53L24 53L24 52L26 52L26 54L28 54L28 52L26 52L26 51L27 51L27 50ZM36 50L36 52L37 52L37 53L38 53L38 52L37 52L37 50ZM55 50L55 51L54 51L54 52L56 52L56 50ZM6 51L6 52L8 52L8 51ZM65 51L65 52L66 52L66 51ZM62 52L62 53L63 53L63 52ZM23 53L23 54L24 54L24 53ZM29 53L29 54L30 54L30 53ZM14 54L14 55L16 55L16 56L17 56L17 55L18 55L18 54ZM34 54L34 55L35 55L35 54ZM49 54L49 55L51 55L51 54ZM66 54L66 55L67 55L67 54ZM68 54L68 55L69 55L69 54ZM53 55L53 56L54 56L54 55ZM35 56L35 57L36 57L36 56ZM44 56L44 57L46 57L46 56ZM20 57L20 58L19 58L19 59L18 59L18 60L20 60L20 58L21 58L21 57ZM53 57L53 58L54 58L54 57ZM57 57L57 58L58 58L58 57ZM63 58L63 59L64 59L64 58ZM30 59L30 60L28 60L28 61L30 61L30 62L31 62L31 61L32 61L32 59ZM44 59L44 60L46 60L46 61L47 61L47 60L48 60L48 59ZM67 59L67 60L68 60L68 59ZM6 60L6 61L7 61L7 60ZM54 60L54 61L53 61L53 62L51 62L51 64L52 64L52 63L53 63L53 62L54 62L54 63L58 63L58 64L59 64L59 63L58 63L58 62L57 62L57 61L56 61L56 60ZM55 61L55 62L56 62L56 61ZM10 62L10 63L11 63L11 62ZM14 62L14 63L13 63L13 65L14 65L14 66L13 66L13 67L14 67L14 66L15 66L15 65L14 65L14 63L15 63L15 64L17 64L17 63L16 63L16 62ZM65 62L65 63L66 63L66 62ZM0 64L0 65L1 65L1 64ZM10 64L10 66L11 66L11 64ZM40 64L40 65L41 65L41 66L40 66L40 67L43 67L43 68L44 68L44 65L43 65L43 66L42 66L42 65L41 65L41 64ZM25 65L25 68L28 68L28 65ZM45 65L45 68L48 68L48 65ZM65 65L65 68L68 68L68 65ZM26 66L26 67L27 67L27 66ZM46 66L46 67L47 67L47 66ZM66 66L66 67L67 67L67 66ZM8 67L8 71L10 71L10 70L9 70L9 67ZM35 68L35 69L37 69L37 68ZM38 68L38 69L39 69L39 68ZM52 69L52 71L54 71L54 70L53 70L53 69ZM22 70L22 71L23 71L23 72L24 72L24 71L23 71L23 70ZM68 70L68 71L69 71L69 70ZM42 71L42 72L43 72L43 71ZM8 72L8 73L10 73L10 72ZM27 72L27 73L28 73L28 72ZM0 0L0 7L7 7L7 0ZM1 1L1 6L6 6L6 1ZM2 2L2 5L5 5L5 2ZM66 0L66 7L73 7L73 0ZM67 1L67 6L72 6L72 1ZM68 2L68 5L71 5L71 2ZM0 66L0 73L7 73L7 66ZM1 67L1 72L6 72L6 67ZM2 68L2 71L5 71L5 68Z" fill="#000000"/></g></g></svg>
