<?xml version="1.0" encoding="UTF-8"?>
<svg xmlns="http://www.w3.org/2000/svg" version="1.1" width="200" height="200" viewBox="0 0 200 200"><rect x="0" y="0" width="200" height="200" fill="#ffffff"/><g transform="scale(2.667)"><g transform="translate(1,1)"><path fill-rule="evenodd" d="M8 0L8 1L9 1L9 3L8 3L8 8L6 8L6 9L5 9L5 8L4 8L4 9L3 9L3 10L4 10L4 9L5 9L5 11L4 11L4 13L1 13L1 12L3 12L3 11L1 11L1 10L2 10L2 9L1 9L1 8L0 8L0 9L1 9L1 10L0 10L0 11L1 11L1 12L0 12L0 15L2 15L2 16L0 16L0 17L1 17L1 18L0 18L0 20L1 20L1 22L0 22L0 24L1 24L1 25L0 25L0 26L1 26L1 27L2 27L2 29L3 29L3 31L1 31L1 28L0 28L0 34L1 34L1 35L0 35L0 36L1 36L1 35L2 35L2 34L3 34L3 31L4 31L4 29L5 29L5 30L6 30L6 31L5 31L5 33L4 33L4 34L5 34L5 36L4 36L4 35L3 35L3 36L2 36L2 37L1 37L1 38L2 38L2 37L3 37L3 36L4 36L4 37L5 37L5 38L4 38L4 39L7 39L7 40L4 40L4 41L3 41L3 39L2 39L2 40L0 40L0 41L1 41L1 42L0 42L0 43L1 43L1 44L0 44L0 46L2 46L2 45L4 45L4 46L3 46L3 47L4 47L4 48L3 48L3 50L2 50L2 48L1 48L1 49L0 49L0 51L1 51L1 52L0 52L0 56L1 56L1 58L0 58L0 63L2 63L2 61L3 61L3 60L2 60L2 56L3 56L3 58L4 58L4 57L5 57L5 58L6 58L6 59L7 59L7 58L9 58L9 59L10 59L10 60L9 60L9 62L8 62L8 60L6 60L6 61L5 61L5 60L4 60L4 62L3 62L3 64L4 64L4 65L5 65L5 63L7 63L7 64L6 64L6 65L7 65L7 64L8 64L8 63L9 63L9 65L8 65L8 67L9 67L9 68L8 68L8 69L9 69L9 72L8 72L8 73L9 73L9 72L10 72L10 73L12 73L12 72L13 72L13 71L15 71L15 72L18 72L18 73L20 73L20 71L21 71L21 73L22 73L22 71L23 71L23 73L24 73L24 70L26 70L26 69L27 69L27 71L25 71L25 72L26 72L26 73L29 73L29 68L30 68L30 67L31 67L31 68L32 68L32 69L30 69L30 72L31 72L31 71L32 71L32 73L34 73L34 71L32 71L32 70L33 70L33 68L35 68L35 69L37 69L37 71L36 71L36 70L35 70L35 73L38 73L38 72L37 72L37 71L39 71L39 72L40 72L40 71L43 71L43 68L42 68L42 69L40 69L40 70L39 70L39 69L38 69L38 68L37 68L37 67L38 67L38 66L39 66L39 67L43 67L43 65L44 65L44 69L45 69L45 70L44 70L44 71L45 71L45 73L46 73L46 72L47 72L47 69L48 69L48 72L49 72L49 71L50 71L50 73L51 73L51 71L52 71L52 72L53 72L53 69L54 69L54 68L52 68L52 70L51 70L51 66L50 66L50 65L49 65L49 63L50 63L50 64L51 64L51 63L50 63L50 62L51 62L51 60L52 60L52 61L54 61L54 62L57 62L57 61L56 61L56 60L59 60L59 59L60 59L60 58L62 58L62 59L61 59L61 60L60 60L60 61L61 61L61 63L60 63L60 65L59 65L59 67L58 67L58 68L59 68L59 67L62 67L62 69L60 69L60 70L59 70L59 69L58 69L58 70L59 70L59 71L61 71L61 72L60 72L60 73L64 73L64 72L65 72L65 70L67 70L67 71L66 71L66 73L73 73L73 72L72 72L72 70L73 70L73 67L72 67L72 64L71 64L71 62L73 62L73 59L71 59L71 56L72 56L72 58L73 58L73 56L72 56L72 52L73 52L73 51L72 51L72 52L71 52L71 50L70 50L70 51L69 51L69 46L71 46L71 45L73 45L73 44L71 44L71 43L70 43L70 44L69 44L69 40L68 40L68 43L67 43L67 41L65 41L65 39L64 39L64 41L65 41L65 43L64 43L64 42L63 42L63 39L62 39L62 37L61 37L61 36L60 36L60 37L59 37L59 35L62 35L62 34L63 34L63 35L64 35L64 36L63 36L63 37L64 37L64 38L65 38L65 37L64 37L64 36L66 36L66 35L67 35L67 34L70 34L70 35L69 35L69 36L68 36L68 37L66 37L66 39L67 39L67 38L69 38L69 39L70 39L70 41L73 41L73 40L71 40L71 33L69 33L69 31L70 31L70 32L73 32L73 31L72 31L72 30L71 30L71 31L70 31L70 30L69 30L69 31L68 31L68 29L69 29L69 24L66 24L66 23L65 23L65 22L66 22L66 21L65 21L65 20L66 20L66 19L65 19L65 17L64 17L64 16L65 16L65 14L66 14L66 13L68 13L68 14L67 14L67 15L66 15L66 17L67 17L67 20L68 20L68 19L69 19L69 18L70 18L70 20L69 20L69 21L67 21L67 22L68 22L68 23L70 23L70 24L71 24L71 23L70 23L70 22L69 22L69 21L71 21L71 22L73 22L73 19L72 19L72 18L70 18L70 17L71 17L71 15L70 15L70 17L69 17L69 16L68 16L68 15L69 15L69 13L70 13L70 12L71 12L71 10L70 10L70 8L65 8L65 9L64 9L64 7L65 7L65 6L64 6L64 7L63 7L63 5L65 5L65 4L64 4L64 3L62 3L62 2L63 2L63 0L61 0L61 2L60 2L60 3L58 3L58 1L57 1L57 0L56 0L56 1L55 1L55 0L54 0L54 1L53 1L53 2L52 2L52 3L50 3L50 2L49 2L49 4L47 4L47 3L48 3L48 2L47 2L47 3L46 3L46 2L45 2L45 4L44 4L44 2L43 2L43 3L42 3L42 1L43 1L43 0L42 0L42 1L39 1L39 0L35 0L35 1L34 1L34 0L32 0L32 1L31 1L31 0L26 0L26 1L25 1L25 0L24 0L24 1L23 1L23 0L20 0L20 2L22 2L22 1L23 1L23 3L22 3L22 4L21 4L21 3L20 3L20 4L21 4L21 5L19 5L19 4L18 4L18 3L19 3L19 2L18 2L18 0L16 0L16 1L15 1L15 0L11 0L11 1L10 1L10 0ZM44 0L44 1L45 1L45 0ZM46 0L46 1L47 1L47 0ZM48 0L48 1L50 1L50 0ZM51 0L51 1L52 1L52 0ZM64 0L64 1L65 1L65 0ZM12 1L12 3L9 3L9 5L10 5L10 4L12 4L12 6L11 6L11 7L12 7L12 8L13 8L13 9L12 9L12 10L11 10L11 8L10 8L10 10L9 10L9 9L8 9L8 10L9 10L9 11L8 11L8 12L7 12L7 11L5 11L5 12L7 12L7 13L6 13L6 14L5 14L5 13L4 13L4 15L3 15L3 14L2 14L2 15L3 15L3 17L2 17L2 20L3 20L3 18L4 18L4 15L5 15L5 16L7 16L7 17L5 17L5 19L4 19L4 20L5 20L5 23L4 23L4 22L3 22L3 21L2 21L2 23L1 23L1 24L3 24L3 27L4 27L4 24L8 24L8 23L6 23L6 22L7 22L7 21L9 21L9 20L7 20L7 19L6 19L6 18L7 18L7 17L8 17L8 15L10 15L10 14L11 14L11 15L12 15L12 14L13 14L13 15L14 15L14 14L15 14L15 16L14 16L14 17L12 17L12 16L11 16L11 18L14 18L14 17L15 17L15 16L16 16L16 18L15 18L15 19L13 19L13 20L11 20L11 19L10 19L10 20L11 20L11 24L10 24L10 22L9 22L9 25L10 25L10 26L11 26L11 24L12 24L12 23L13 23L13 21L14 21L14 24L13 24L13 25L12 25L12 27L9 27L9 29L11 29L11 28L13 28L13 29L12 29L12 30L11 30L11 31L10 31L10 30L8 30L8 29L6 29L6 30L8 30L8 31L6 31L6 32L7 32L7 33L6 33L6 34L8 34L8 35L6 35L6 36L5 36L5 37L6 37L6 38L7 38L7 39L9 39L9 40L7 40L7 41L5 41L5 42L3 42L3 41L2 41L2 42L1 42L1 43L2 43L2 42L3 42L3 43L4 43L4 44L7 44L7 43L8 43L8 41L10 41L10 38L11 38L11 41L12 41L12 42L9 42L9 43L11 43L11 44L9 44L9 46L10 46L10 47L11 47L11 46L10 46L10 45L11 45L11 44L12 44L12 43L13 43L13 45L12 45L12 46L15 46L15 45L16 45L16 46L18 46L18 47L16 47L16 48L19 48L19 49L21 49L21 48L20 48L20 47L22 47L22 45L21 45L21 43L23 43L23 41L22 41L22 42L21 42L21 41L20 41L20 40L18 40L18 39L17 39L17 40L18 40L18 41L20 41L20 42L21 42L21 43L19 43L19 42L16 42L16 41L15 41L15 39L16 39L16 36L17 36L17 38L18 38L18 36L19 36L19 39L20 39L20 36L19 36L19 35L20 35L20 34L21 34L21 36L22 36L22 34L23 34L23 37L22 37L22 38L21 38L21 39L22 39L22 40L23 40L23 39L22 39L22 38L25 38L25 37L27 37L27 36L28 36L28 37L32 37L32 38L33 38L33 37L32 37L32 35L35 35L35 33L34 33L34 32L33 32L33 34L32 34L32 32L31 32L31 34L32 34L32 35L31 35L31 36L30 36L30 33L29 33L29 32L30 32L30 31L29 31L29 30L30 30L30 29L31 29L31 30L32 30L32 31L33 31L33 30L32 30L32 28L29 28L29 30L28 30L28 29L27 29L27 30L28 30L28 31L26 31L26 33L29 33L29 36L28 36L28 35L27 35L27 36L24 36L24 35L26 35L26 34L23 34L23 31L24 31L24 33L25 33L25 30L26 30L26 29L25 29L25 30L24 30L24 29L23 29L23 28L24 28L24 24L28 24L28 23L27 23L27 22L28 22L28 20L31 20L31 18L32 18L32 15L33 15L33 14L34 14L34 15L35 15L35 16L38 16L38 13L39 13L39 15L40 15L40 17L39 17L39 18L38 18L38 17L34 17L34 16L33 16L33 17L34 17L34 18L33 18L33 19L32 19L32 20L35 20L35 21L34 21L34 23L35 23L35 24L33 24L33 25L34 25L34 26L33 26L33 27L34 27L34 26L36 26L36 27L38 27L38 28L37 28L37 29L35 29L35 28L34 28L34 31L35 31L35 32L36 32L36 31L37 31L37 30L38 30L38 28L39 28L39 30L40 30L40 29L44 29L44 28L43 28L43 26L44 26L44 25L43 25L43 26L42 26L42 28L41 28L41 26L38 26L38 19L39 19L39 18L40 18L40 17L43 17L43 16L44 16L44 15L47 15L47 16L45 16L45 17L44 17L44 20L43 20L43 18L41 18L41 19L42 19L42 20L40 20L40 21L44 21L44 22L43 22L43 23L42 23L42 22L39 22L39 23L40 23L40 25L41 25L41 23L42 23L42 24L44 24L44 23L45 23L45 24L46 24L46 23L47 23L47 22L49 22L49 20L48 20L48 21L46 21L46 20L47 20L47 19L45 19L45 17L47 17L47 18L48 18L48 19L50 19L50 21L51 21L51 22L50 22L50 23L49 23L49 24L51 24L51 25L52 25L52 24L53 24L53 23L51 23L51 22L55 22L55 21L54 21L54 20L53 20L53 19L52 19L52 20L51 20L51 19L50 19L50 18L51 18L51 17L52 17L52 18L55 18L55 20L56 20L56 19L57 19L57 18L58 18L58 19L59 19L59 18L60 18L60 16L58 16L58 17L57 17L57 16L56 16L56 15L61 15L61 17L62 17L62 18L61 18L61 19L62 19L62 20L63 20L63 19L64 19L64 17L63 17L63 15L64 15L64 14L65 14L65 13L66 13L66 11L67 11L67 12L70 12L70 11L68 11L68 9L66 9L66 11L65 11L65 12L64 12L64 13L63 13L63 14L62 14L62 15L61 15L61 13L62 13L62 12L63 12L63 11L61 11L61 9L62 9L62 10L64 10L64 9L62 9L62 5L63 5L63 4L62 4L62 3L60 3L60 4L58 4L58 3L57 3L57 4L56 4L56 3L55 3L55 4L54 4L54 2L53 2L53 5L52 5L52 4L50 4L50 5L49 5L49 9L47 9L47 10L49 10L49 9L50 9L50 6L51 6L51 10L50 10L50 11L51 11L51 12L49 12L49 11L48 11L48 12L49 12L49 13L52 13L52 14L53 14L53 16L52 16L52 15L47 15L47 14L48 14L48 13L46 13L46 12L47 12L47 11L46 11L46 10L45 10L45 9L44 9L44 10L43 10L43 13L46 13L46 14L44 14L44 15L43 15L43 14L41 14L41 12L40 12L40 9L41 9L41 11L42 11L42 8L43 8L43 7L44 7L44 6L43 6L43 5L42 5L42 6L41 6L41 4L40 4L40 3L41 3L41 2L40 2L40 3L38 3L38 2L39 2L39 1L38 1L38 2L37 2L37 1L36 1L36 2L35 2L35 3L36 3L36 4L34 4L34 5L33 5L33 3L34 3L34 1L32 1L32 2L31 2L31 1L28 1L28 2L27 2L27 3L26 3L26 2L25 2L25 1L24 1L24 3L23 3L23 7L24 7L24 4L27 4L27 3L28 3L28 2L30 2L30 3L29 3L29 7L30 7L30 8L29 8L29 9L28 9L28 10L26 10L26 11L25 11L25 13L28 13L28 14L27 14L27 15L26 15L26 14L24 14L24 17L25 17L25 16L26 16L26 18L25 18L25 19L23 19L23 18L22 18L22 17L23 17L23 15L22 15L22 16L20 16L20 13L19 13L19 12L17 12L17 11L18 11L18 10L20 10L20 11L21 11L21 12L24 12L24 11L21 11L21 9L22 9L22 6L21 6L21 7L20 7L20 6L19 6L19 5L18 5L18 4L16 4L16 3L17 3L17 1L16 1L16 2L15 2L15 3L14 3L14 1ZM56 1L56 2L57 2L57 1ZM32 2L32 3L33 3L33 2ZM36 2L36 3L37 3L37 2ZM12 3L12 4L14 4L14 5L15 5L15 4L14 4L14 3ZM30 3L30 5L32 5L32 7L31 7L31 6L30 6L30 7L31 7L31 9L29 9L29 10L28 10L28 11L26 11L26 12L28 12L28 13L30 13L30 16L31 16L31 14L32 14L32 13L33 13L33 12L34 12L34 13L35 13L35 12L36 12L36 14L35 14L35 15L37 15L37 11L38 11L38 12L39 12L39 13L40 13L40 12L39 12L39 9L40 9L40 7L41 7L41 8L42 8L42 7L43 7L43 6L42 6L42 7L41 7L41 6L40 6L40 5L39 5L39 4L37 4L37 5L36 5L36 7L35 7L35 5L34 5L34 8L33 8L33 5L32 5L32 4L31 4L31 3ZM55 4L55 6L54 6L54 5L53 5L53 6L52 6L52 7L53 7L53 6L54 6L54 7L55 7L55 9L54 9L54 8L52 8L52 9L54 9L54 10L53 10L53 11L52 11L52 12L55 12L55 14L54 14L54 15L55 15L55 14L56 14L56 8L59 8L59 6L60 6L60 7L61 7L61 5L62 5L62 4L60 4L60 5L59 5L59 6L58 6L58 5L56 5L56 4ZM16 5L16 7L17 7L17 8L18 8L18 7L19 7L19 6L18 6L18 5ZM25 5L25 8L28 8L28 5ZM38 5L38 6L37 6L37 8L39 8L39 7L40 7L40 6L39 6L39 5ZM45 5L45 8L48 8L48 5ZM9 6L9 7L10 7L10 6ZM12 6L12 7L13 7L13 8L14 8L14 7L15 7L15 6L14 6L14 7L13 7L13 6ZM17 6L17 7L18 7L18 6ZM26 6L26 7L27 7L27 6ZM38 6L38 7L39 7L39 6ZM46 6L46 7L47 7L47 6ZM55 6L55 7L56 7L56 6ZM57 6L57 7L58 7L58 6ZM15 8L15 9L16 9L16 10L18 10L18 9L16 9L16 8ZM20 8L20 9L21 9L21 8ZM60 8L60 9L61 9L61 8ZM72 8L72 9L73 9L73 8ZM6 9L6 10L7 10L7 9ZM13 9L13 10L12 10L12 11L11 11L11 13L16 13L16 14L17 14L17 15L18 15L18 17L19 17L19 18L20 18L20 16L19 16L19 13L16 13L16 11L14 11L14 9ZM23 9L23 10L24 10L24 9ZM32 9L32 10L31 10L31 11L30 11L30 12L31 12L31 13L32 13L32 12L33 12L33 9ZM34 9L34 12L35 12L35 11L36 11L36 10L37 10L37 9ZM9 11L9 12L10 12L10 11ZM12 11L12 12L13 12L13 11ZM28 11L28 12L29 12L29 11ZM45 11L45 12L46 12L46 11ZM57 11L57 12L58 12L58 11ZM60 11L60 12L61 12L61 11ZM72 12L72 13L73 13L73 12ZM22 13L22 14L23 14L23 13ZM58 13L58 14L60 14L60 13ZM6 14L6 15L7 15L7 14ZM40 14L40 15L41 15L41 16L42 16L42 15L41 15L41 14ZM72 15L72 17L73 17L73 15ZM47 16L47 17L48 17L48 18L50 18L50 17L51 17L51 16L49 16L49 17L48 17L48 16ZM53 16L53 17L56 17L56 16ZM67 16L67 17L68 17L68 18L69 18L69 17L68 17L68 16ZM27 17L27 18L26 18L26 19L25 19L25 20L26 20L26 21L23 21L23 19L21 19L21 20L20 20L20 19L16 19L16 20L14 20L14 21L15 21L15 24L14 24L14 25L13 25L13 26L14 26L14 29L15 29L15 31L16 31L16 32L18 32L18 33L19 33L19 34L20 34L20 33L21 33L21 34L22 34L22 33L21 33L21 32L20 32L20 33L19 33L19 31L21 31L21 30L19 30L19 29L18 29L18 28L17 28L17 27L19 27L19 26L20 26L20 24L19 24L19 22L20 22L20 23L21 23L21 24L23 24L23 23L25 23L25 22L26 22L26 21L27 21L27 20L28 20L28 17ZM29 17L29 19L30 19L30 17ZM35 18L35 20L36 20L36 21L35 21L35 23L36 23L36 25L37 25L37 23L36 23L36 21L37 21L37 19L36 19L36 18ZM62 18L62 19L63 19L63 18ZM6 20L6 21L7 21L7 20ZM17 20L17 21L18 21L18 20ZM19 20L19 21L20 21L20 20ZM44 20L44 21L45 21L45 23L46 23L46 21L45 21L45 20ZM57 20L57 21L56 21L56 23L57 23L57 22L58 22L58 24L57 24L57 25L56 25L56 26L54 26L54 25L53 25L53 27L59 27L59 28L58 28L58 29L57 29L57 28L56 28L56 29L54 29L54 28L52 28L52 26L50 26L50 27L51 27L51 28L49 28L49 29L51 29L51 30L52 30L52 32L51 32L51 31L48 31L48 32L47 32L47 33L48 33L48 34L49 34L49 33L50 33L50 32L51 32L51 33L53 33L53 34L50 34L50 35L49 35L49 36L50 36L50 38L51 38L51 37L52 37L52 39L49 39L49 38L48 38L48 39L47 39L47 36L48 36L48 35L47 35L47 36L46 36L46 37L45 37L45 36L44 36L44 34L45 34L45 35L46 35L46 32L45 32L45 33L44 33L44 30L43 30L43 32L42 32L42 31L38 31L38 32L37 32L37 33L36 33L36 35L37 35L37 36L38 36L38 37L37 37L37 38L35 38L35 36L34 36L34 39L37 39L37 38L38 38L38 37L39 37L39 38L40 38L40 37L41 37L41 39L39 39L39 40L40 40L40 42L42 42L42 41L44 41L44 42L45 42L45 44L49 44L49 45L50 45L50 44L49 44L49 43L46 43L46 42L47 42L47 41L48 41L48 42L49 42L49 40L50 40L50 41L51 41L51 42L53 42L53 43L51 43L51 45L53 45L53 46L50 46L50 47L49 47L49 48L50 48L50 47L51 47L51 49L50 49L50 50L51 50L51 49L52 49L52 50L53 50L53 51L54 51L54 50L55 50L55 52L56 52L56 50L57 50L57 51L59 51L59 52L57 52L57 54L56 54L56 53L55 53L55 55L53 55L53 56L52 56L52 55L51 55L51 59L52 59L52 60L55 60L55 59L57 59L57 58L58 58L58 59L59 59L59 58L60 58L60 57L62 57L62 58L63 58L63 57L64 57L64 56L67 56L67 57L65 57L65 58L64 58L64 60L63 60L63 59L62 59L62 60L61 60L61 61L64 61L64 62L65 62L65 63L64 63L64 64L65 64L65 63L66 63L66 64L67 64L67 63L68 63L68 64L69 64L69 65L70 65L70 66L71 66L71 65L70 65L70 64L69 64L69 63L70 63L70 62L71 62L71 61L72 61L72 60L70 60L70 59L69 59L69 58L68 58L68 57L70 57L70 56L69 56L69 55L71 55L71 54L70 54L70 53L69 53L69 51L68 51L68 49L64 49L64 50L66 50L66 51L67 51L67 53L66 53L66 52L64 52L64 51L63 51L63 50L62 50L62 51L61 51L61 49L62 49L62 47L61 47L61 49L60 49L60 48L58 48L58 49L56 49L56 50L55 50L55 47L60 47L60 44L61 44L61 45L62 45L62 46L63 46L63 45L64 45L64 43L61 43L61 41L62 41L62 39L61 39L61 40L60 40L60 39L58 39L58 37L57 37L57 35L59 35L59 34L61 34L61 30L60 30L60 29L62 29L62 28L63 28L63 30L62 30L62 31L63 31L63 32L62 32L62 33L63 33L63 34L64 34L64 33L65 33L65 34L66 34L66 33L67 33L67 32L68 32L68 31L67 31L67 30L66 30L66 29L64 29L64 28L63 28L63 27L61 27L61 28L60 28L60 27L59 27L59 25L60 25L60 23L61 23L61 24L62 24L62 26L63 26L63 25L64 25L64 24L65 24L65 23L64 23L64 22L65 22L65 21L62 21L62 22L61 22L61 21L60 21L60 20ZM22 21L22 22L23 22L23 21ZM29 21L29 22L30 22L30 21ZM31 21L31 23L30 23L30 24L31 24L31 23L33 23L33 22L32 22L32 21ZM58 21L58 22L59 22L59 23L60 23L60 22L59 22L59 21ZM16 22L16 23L17 23L17 22ZM62 22L62 24L64 24L64 23L63 23L63 22ZM3 23L3 24L4 24L4 23ZM16 24L16 25L14 25L14 26L16 26L16 25L17 25L17 26L19 26L19 25L18 25L18 24ZM58 24L58 25L59 25L59 24ZM72 24L72 26L73 26L73 24ZM5 25L5 28L8 28L8 25ZM22 25L22 27L20 27L20 29L21 29L21 28L22 28L22 27L23 27L23 25ZM25 25L25 28L28 28L28 25ZM31 25L31 26L30 26L30 27L32 27L32 25ZM45 25L45 28L48 28L48 25ZM65 25L65 28L68 28L68 25ZM70 25L70 26L71 26L71 25ZM6 26L6 27L7 27L7 26ZM26 26L26 27L27 27L27 26ZM46 26L46 27L47 27L47 26ZM66 26L66 27L67 27L67 26ZM15 27L15 29L16 29L16 30L18 30L18 29L16 29L16 27ZM70 27L70 28L71 28L71 27ZM3 28L3 29L4 29L4 28ZM22 29L22 31L23 31L23 29ZM45 29L45 31L47 31L47 29ZM52 29L52 30L53 30L53 29ZM35 30L35 31L36 31L36 30ZM54 30L54 31L53 31L53 33L55 33L55 34L53 34L53 36L54 36L54 37L55 37L55 38L57 38L57 37L56 37L56 35L57 35L57 34L56 34L56 33L57 33L57 32L58 32L58 31L56 31L56 30ZM64 30L64 32L63 32L63 33L64 33L64 32L65 32L65 33L66 33L66 30ZM9 31L9 32L8 32L8 33L10 33L10 35L8 35L8 36L10 36L10 37L12 37L12 40L13 40L13 38L14 38L14 37L12 37L12 36L13 36L13 34L14 34L14 35L15 35L15 34L16 34L16 35L18 35L18 34L17 34L17 33L15 33L15 34L14 34L14 31L13 31L13 32L11 32L11 33L10 33L10 31ZM54 31L54 32L55 32L55 31ZM1 32L1 34L2 34L2 32ZM38 32L38 33L37 33L37 34L38 34L38 35L39 35L39 36L40 36L40 34L41 34L41 36L42 36L42 35L43 35L43 34L44 34L44 33L42 33L42 32L41 32L41 33L40 33L40 34L39 34L39 32ZM48 32L48 33L49 33L49 32ZM11 33L11 35L12 35L12 34L13 34L13 33ZM55 34L55 35L56 35L56 34ZM50 35L50 36L51 36L51 35ZM6 36L6 37L7 37L7 36ZM72 36L72 37L73 37L73 36ZM8 37L8 38L9 38L9 37ZM42 37L42 39L41 39L41 41L42 41L42 39L43 39L43 38L44 38L44 39L45 39L45 40L44 40L44 41L46 41L46 39L45 39L45 38L44 38L44 37ZM28 38L28 40L29 40L29 41L28 41L28 43L26 43L26 42L27 42L27 41L26 41L26 40L25 40L25 39L24 39L24 40L25 40L25 41L24 41L24 42L25 42L25 44L29 44L29 43L30 43L30 44L32 44L32 43L33 43L33 44L34 44L34 47L36 47L36 48L37 48L37 51L38 51L38 48L39 48L39 47L40 47L40 45L41 45L41 48L40 48L40 50L41 50L41 51L39 51L39 52L40 52L40 53L41 53L41 51L42 51L42 52L44 52L44 53L45 53L45 54L46 54L46 55L44 55L44 54L41 54L41 55L42 55L42 57L43 57L43 56L44 56L44 58L47 58L47 59L49 59L49 61L47 61L47 62L46 62L46 63L43 63L43 62L42 62L42 63L40 63L40 62L41 62L41 59L40 59L40 61L39 61L39 62L38 62L38 60L37 60L37 61L36 61L36 60L35 60L35 61L34 61L34 62L33 62L33 61L32 61L32 62L31 62L31 63L29 63L29 62L30 62L30 61L31 61L31 60L28 60L28 61L27 61L27 59L31 59L31 58L28 58L28 57L27 57L27 56L26 56L26 55L29 55L29 56L30 56L30 57L32 57L32 58L33 58L33 57L34 57L34 59L35 59L35 57L34 57L34 56L35 56L35 55L36 55L36 56L38 56L38 57L37 57L37 58L36 58L36 59L38 59L38 57L39 57L39 58L40 58L40 57L41 57L41 56L40 56L40 55L39 55L39 54L38 54L38 52L37 52L37 54L35 54L35 52L36 52L36 51L35 51L35 49L34 49L34 48L33 48L33 46L32 46L32 45L31 45L31 46L32 46L32 48L31 48L31 47L30 47L30 46L29 46L29 47L30 47L30 49L29 49L29 51L30 51L30 52L31 52L31 54L30 54L30 53L29 53L29 54L28 54L28 53L25 53L25 54L24 54L24 50L25 50L25 49L24 49L24 47L23 47L23 49L22 49L22 50L23 50L23 51L22 51L22 52L21 52L21 51L19 51L19 50L17 50L17 51L16 51L16 50L15 50L15 49L14 49L14 48L15 48L15 47L14 47L14 48L13 48L13 47L12 47L12 48L10 48L10 49L9 49L9 51L10 51L10 50L11 50L11 49L14 49L14 50L13 50L13 53L10 53L10 52L8 52L8 54L7 54L7 53L6 53L6 52L7 52L7 51L8 51L8 50L7 50L7 49L6 49L6 50L7 50L7 51L6 51L6 52L5 52L5 49L4 49L4 50L3 50L3 51L2 51L2 52L4 52L4 53L1 53L1 56L2 56L2 55L3 55L3 56L5 56L5 57L6 57L6 58L7 58L7 57L6 57L6 56L7 56L7 55L9 55L9 54L10 54L10 57L11 57L11 59L13 59L13 58L12 58L12 57L14 57L14 60L11 60L11 61L12 61L12 62L11 62L11 63L10 63L10 62L9 62L9 63L10 63L10 65L11 65L11 67L10 67L10 66L9 66L9 67L10 67L10 68L9 68L9 69L10 69L10 68L11 68L11 69L13 69L13 70L10 70L10 71L13 71L13 70L15 70L15 71L17 71L17 70L15 70L15 69L17 69L17 68L18 68L18 67L19 67L19 68L21 68L21 69L22 69L22 68L24 68L24 67L23 67L23 65L24 65L24 63L26 63L26 64L27 64L27 63L26 63L26 62L28 62L28 63L29 63L29 65L30 65L30 64L31 64L31 65L32 65L32 66L33 66L33 65L32 65L32 63L33 63L33 64L34 64L34 67L35 67L35 68L36 68L36 64L35 64L35 63L36 63L36 62L38 62L38 63L37 63L37 64L38 64L38 65L37 65L37 66L38 66L38 65L41 65L41 64L42 64L42 65L43 65L43 64L47 64L47 63L48 63L48 62L49 62L49 61L50 61L50 59L49 59L49 58L47 58L47 57L50 57L50 54L49 54L49 56L47 56L47 55L48 55L48 52L46 52L46 51L47 51L47 50L48 50L48 49L47 49L47 50L46 50L46 49L45 49L45 50L46 50L46 51L44 51L44 50L43 50L43 51L42 51L42 50L41 50L41 48L42 48L42 49L44 49L44 43L42 43L42 44L43 44L43 48L42 48L42 45L41 45L41 43L40 43L40 45L39 45L39 47L38 47L38 46L37 46L37 45L36 45L36 46L35 46L35 44L34 44L34 43L35 43L35 42L37 42L37 44L39 44L39 43L38 43L38 42L37 42L37 41L36 41L36 40L34 40L34 42L33 42L33 41L32 41L32 42L31 42L31 43L30 43L30 41L31 41L31 39L30 39L30 40L29 40L29 38ZM48 39L48 40L49 40L49 39ZM55 39L55 40L52 40L52 41L56 41L56 42L57 42L57 39ZM58 40L58 41L59 41L59 40ZM13 41L13 42L15 42L15 41ZM5 42L5 43L7 43L7 42ZM54 42L54 43L55 43L55 46L54 46L54 47L55 47L55 46L56 46L56 44L58 44L58 45L59 45L59 43L60 43L60 42L58 42L58 43L55 43L55 42ZM14 43L14 44L15 44L15 43ZM17 43L17 44L16 44L16 45L18 45L18 46L19 46L19 47L20 47L20 46L21 46L21 45L20 45L20 44L19 44L19 43ZM65 43L65 44L67 44L67 43ZM23 44L23 46L24 46L24 44ZM53 44L53 45L54 45L54 44ZM62 44L62 45L63 45L63 44ZM5 45L5 48L8 48L8 45ZM19 45L19 46L20 46L20 45ZM25 45L25 48L28 48L28 45ZM45 45L45 48L48 48L48 45ZM65 45L65 48L68 48L68 45ZM6 46L6 47L7 47L7 46ZM26 46L26 47L27 47L27 46ZM36 46L36 47L37 47L37 48L38 48L38 47L37 47L37 46ZM46 46L46 47L47 47L47 46ZM66 46L66 47L67 47L67 46ZM52 47L52 48L53 48L53 47ZM70 47L70 49L71 49L71 48L72 48L72 49L73 49L73 47ZM32 48L32 54L33 54L33 55L35 55L35 54L33 54L33 53L34 53L34 52L33 52L33 51L34 51L34 49L33 49L33 48ZM27 49L27 52L28 52L28 49ZM30 49L30 51L31 51L31 49ZM58 49L58 50L59 50L59 51L60 51L60 50L59 50L59 49ZM11 51L11 52L12 52L12 51ZM14 51L14 53L13 53L13 55L12 55L12 54L11 54L11 57L12 57L12 56L13 56L13 55L14 55L14 57L15 57L15 58L16 58L16 57L17 57L17 60L14 60L14 61L13 61L13 62L12 62L12 64L13 64L13 65L12 65L12 68L13 68L13 69L14 69L14 68L15 68L15 67L13 67L13 65L14 65L14 66L15 66L15 65L14 65L14 64L15 64L15 63L17 63L17 64L18 64L18 66L19 66L19 65L20 65L20 64L18 64L18 63L21 63L21 64L22 64L22 65L21 65L21 66L22 66L22 65L23 65L23 64L22 64L22 63L21 63L21 61L23 61L23 62L25 62L25 61L24 61L24 57L25 57L25 58L27 58L27 57L25 57L25 56L23 56L23 55L24 55L24 54L23 54L23 55L22 55L22 56L21 56L21 54L20 54L20 55L19 55L19 53L21 53L21 52L19 52L19 51L17 51L17 52L16 52L16 51ZM25 51L25 52L26 52L26 51ZM50 51L50 53L51 53L51 54L54 54L54 53L52 53L52 51ZM18 52L18 53L16 53L16 54L15 54L15 53L14 53L14 54L15 54L15 56L16 56L16 55L17 55L17 54L18 54L18 53L19 53L19 52ZM62 52L62 53L61 53L61 54L60 54L60 55L59 55L59 53L58 53L58 55L56 55L56 56L54 56L54 57L55 57L55 58L53 58L53 59L55 59L55 58L57 58L57 57L58 57L58 58L59 58L59 57L58 57L58 56L61 56L61 54L62 54L62 55L63 55L63 56L64 56L64 52ZM4 53L4 54L6 54L6 55L7 55L7 54L6 54L6 53ZM65 53L65 55L66 55L66 53ZM67 53L67 54L68 54L68 55L67 55L67 56L68 56L68 55L69 55L69 53ZM25 54L25 55L26 55L26 54ZM18 55L18 56L19 56L19 58L18 58L18 59L19 59L19 60L18 60L18 61L19 61L19 60L20 60L20 58L21 58L21 60L22 60L22 58L23 58L23 56L22 56L22 57L21 57L21 56L19 56L19 55ZM8 56L8 57L9 57L9 56ZM39 56L39 57L40 57L40 56ZM46 56L46 57L47 57L47 56ZM67 58L67 59L68 59L68 58ZM25 59L25 60L26 60L26 59ZM44 59L44 60L42 60L42 61L45 61L45 60L46 60L46 59ZM1 60L1 61L2 61L2 60ZM65 60L65 61L68 61L68 62L69 62L69 61L70 61L70 60L69 60L69 61L68 61L68 60ZM6 61L6 62L7 62L7 61ZM14 61L14 62L17 62L17 61ZM28 61L28 62L29 62L29 61ZM58 61L58 62L59 62L59 61ZM4 62L4 63L5 63L5 62ZM34 62L34 63L35 63L35 62ZM52 62L52 63L53 63L53 62ZM66 62L66 63L67 63L67 62ZM42 63L42 64L43 64L43 63ZM55 63L55 64L54 64L54 65L55 65L55 66L54 66L54 67L55 67L55 69L56 69L56 71L55 71L55 70L54 70L54 71L55 71L55 73L56 73L56 71L57 71L57 65L58 65L58 63ZM62 63L62 64L61 64L61 65L62 65L62 64L63 64L63 63ZM0 64L0 65L1 65L1 64ZM52 64L52 65L53 65L53 64ZM56 64L56 65L57 65L57 64ZM25 65L25 68L28 68L28 65ZM45 65L45 68L48 68L48 65ZM63 65L63 66L62 66L62 67L64 67L64 65ZM65 65L65 68L68 68L68 65ZM26 66L26 67L27 67L27 66ZM46 66L46 67L47 67L47 66ZM49 66L49 67L50 67L50 66ZM52 66L52 67L53 67L53 66ZM66 66L66 67L67 67L67 66ZM21 67L21 68L22 68L22 67ZM49 68L49 69L50 69L50 68ZM63 68L63 70L64 70L64 68ZM69 68L69 69L67 69L67 70L68 70L68 72L69 72L69 70L70 70L70 71L71 71L71 70L72 70L72 68L71 68L71 69L70 69L70 68ZM23 69L23 70L24 70L24 69ZM50 70L50 71L51 71L51 70ZM18 71L18 72L19 72L19 71ZM62 71L62 72L64 72L64 71ZM0 0L0 7L7 7L7 0ZM1 1L1 6L6 6L6 1ZM2 2L2 5L5 5L5 2ZM66 0L66 7L73 7L73 0ZM67 1L67 6L72 6L72 1ZM68 2L68 5L71 5L71 2ZM0 66L0 73L7 73L7 66ZM1 67L1 72L6 72L6 67ZM2 68L2 71L5 71L5 68Z" fill="#000000"/></g></g></svg>
