<?xml version="1.0" encoding="UTF-8"?>
<svg xmlns="http://www.w3.org/2000/svg" version="1.1" width="200" height="200" viewBox="0 0 200 200"><rect x="0" y="0" width="200" height="200" fill="#ffffff"/><g transform="scale(2.667)"><g transform="translate(1,1)"><path fill-rule="evenodd" d="M11 0L11 1L10 1L10 2L8 2L8 8L9 8L9 9L7 9L7 8L2 8L2 10L3 10L3 9L5 9L5 12L6 12L6 13L4 13L4 12L3 12L3 11L0 11L0 14L1 14L1 15L0 15L0 22L1 22L1 15L2 15L2 16L3 16L3 17L2 17L2 18L3 18L3 20L4 20L4 22L5 22L5 23L3 23L3 26L1 26L1 25L2 25L2 24L1 24L1 23L0 23L0 30L3 30L3 32L2 32L2 31L1 31L1 32L0 32L0 35L2 35L2 36L1 36L1 37L2 37L2 38L4 38L4 37L5 37L5 38L6 38L6 39L4 39L4 40L3 40L3 39L2 39L2 40L3 40L3 41L2 41L2 43L0 43L0 48L1 48L1 44L4 44L4 45L2 45L2 46L3 46L3 47L4 47L4 49L5 49L5 50L6 50L6 51L4 51L4 52L6 52L6 53L1 53L1 52L2 52L2 51L3 51L3 48L2 48L2 50L1 50L1 49L0 49L0 50L1 50L1 51L0 51L0 56L1 56L1 58L0 58L0 59L1 59L1 60L0 60L0 63L2 63L2 62L3 62L3 64L4 64L4 65L5 65L5 63L7 63L7 64L6 64L6 65L8 65L8 66L9 66L9 64L11 64L11 65L10 65L10 66L12 66L12 67L13 67L13 68L14 68L14 69L11 69L11 67L8 67L8 71L9 71L9 72L8 72L8 73L12 73L12 72L10 72L10 71L15 71L15 72L13 72L13 73L16 73L16 71L17 71L17 70L19 70L19 71L18 71L18 73L19 73L19 72L20 72L20 73L21 73L21 72L24 72L24 71L25 71L25 72L26 72L26 73L27 73L27 72L28 72L28 73L29 73L29 72L30 72L30 70L31 70L31 71L32 71L32 72L31 72L31 73L32 73L32 72L35 72L35 73L37 73L37 72L35 72L35 70L34 70L34 67L35 67L35 69L37 69L37 68L36 68L36 66L37 66L37 67L38 67L38 65L40 65L40 66L39 66L39 67L40 67L40 68L38 68L38 69L39 69L39 70L36 70L36 71L39 71L39 72L38 72L38 73L40 73L40 72L43 72L43 73L45 73L45 72L46 72L46 70L47 70L47 72L48 72L48 70L49 70L49 71L50 71L50 72L49 72L49 73L50 73L50 72L51 72L51 73L52 73L52 72L51 72L51 71L52 71L52 70L53 70L53 72L56 72L56 73L58 73L58 72L60 72L60 73L61 73L61 72L62 72L62 71L64 71L64 70L65 70L65 72L66 72L66 73L67 73L67 72L68 72L68 70L69 70L69 72L70 72L70 73L73 73L73 68L72 68L72 72L70 72L70 71L71 71L71 70L70 70L70 69L71 69L71 68L70 68L70 66L69 66L69 65L71 65L71 66L72 66L72 67L73 67L73 66L72 66L72 64L73 64L73 60L72 60L72 61L71 61L71 64L70 64L70 63L69 63L69 64L68 64L68 63L66 63L66 62L65 62L65 63L64 63L64 62L59 62L59 61L58 61L58 59L59 59L59 60L60 60L60 61L64 61L64 60L65 60L65 61L67 61L67 62L68 62L68 61L69 61L69 62L70 62L70 61L69 61L69 60L68 60L68 61L67 61L67 59L68 59L68 57L70 57L70 58L69 58L69 59L70 59L70 58L71 58L71 59L73 59L73 54L72 54L72 51L73 51L73 50L70 50L70 49L71 49L71 48L69 48L69 42L70 42L70 43L71 43L71 44L70 44L70 47L73 47L73 46L71 46L71 45L73 45L73 42L70 42L70 41L71 41L71 40L72 40L72 41L73 41L73 38L72 38L72 37L73 37L73 34L71 34L71 33L70 33L70 32L69 32L69 31L71 31L71 30L70 30L70 28L69 28L69 26L70 26L70 27L71 27L71 28L73 28L73 20L70 20L70 21L69 21L69 20L68 20L68 19L69 19L69 17L71 17L71 16L72 16L72 17L73 17L73 16L72 16L72 15L73 15L73 14L68 14L68 13L67 13L67 12L66 12L66 13L65 13L65 16L66 16L66 17L68 17L68 18L65 18L65 17L63 17L63 16L64 16L64 15L63 15L63 16L60 16L60 18L61 18L61 17L62 17L62 19L61 19L61 20L60 20L60 21L61 21L61 20L62 20L62 19L63 19L63 20L64 20L64 21L62 21L62 26L61 26L61 24L60 24L60 23L61 23L61 22L60 22L60 23L59 23L59 21L58 21L58 19L59 19L59 18L58 18L58 17L57 17L57 16L58 16L58 15L62 15L62 14L60 14L60 13L58 13L58 12L60 12L60 11L63 11L63 12L64 12L64 10L65 10L65 11L67 11L67 10L68 10L68 11L70 11L70 10L68 10L68 9L71 9L71 8L66 8L66 9L62 9L62 8L61 8L61 6L62 6L62 7L63 7L63 8L65 8L65 6L64 6L64 7L63 7L63 5L65 5L65 4L64 4L64 3L62 3L62 2L63 2L63 0L62 0L62 1L61 1L61 3L60 3L60 2L57 2L57 1L58 1L58 0L56 0L56 2L55 2L55 1L53 1L53 4L52 4L52 3L50 3L50 2L52 2L52 1L51 1L51 0L50 0L50 1L49 1L49 0L48 0L48 1L49 1L49 2L48 2L48 3L47 3L47 2L46 2L46 1L47 1L47 0L45 0L45 1L44 1L44 0L42 0L42 1L40 1L40 0L39 0L39 1L38 1L38 3L41 3L41 2L42 2L42 3L43 3L43 4L41 4L41 6L40 6L40 7L39 7L39 5L40 5L40 4L39 4L39 5L38 5L38 7L39 7L39 8L41 8L41 6L42 6L42 10L41 10L41 9L39 9L39 10L37 10L37 11L38 11L38 12L36 12L36 14L38 14L38 16L41 16L41 15L42 15L42 16L43 16L43 15L44 15L44 16L45 16L45 17L44 17L44 18L43 18L43 17L39 17L39 19L38 19L38 20L36 20L36 21L35 21L35 18L34 18L34 21L35 21L35 22L33 22L33 23L30 23L30 24L28 24L28 23L27 23L27 22L29 22L29 21L30 21L30 22L32 22L32 21L31 21L31 20L32 20L32 19L33 19L33 18L32 18L32 16L33 16L33 17L37 17L37 18L36 18L36 19L37 19L37 18L38 18L38 17L37 17L37 15L35 15L35 14L34 14L34 13L35 13L35 11L36 11L36 10L33 10L33 9L32 9L32 10L33 10L33 13L32 13L32 12L31 12L31 11L30 11L30 12L29 12L29 11L26 11L26 10L25 10L25 9L29 9L29 10L31 10L31 9L29 9L29 4L30 4L30 5L31 5L31 6L30 6L30 8L33 8L33 6L34 6L34 7L35 7L35 5L33 5L33 4L34 4L34 3L33 3L33 2L35 2L35 3L36 3L36 4L37 4L37 3L36 3L36 1L37 1L37 0L35 0L35 1L32 1L32 0L28 0L28 1L32 1L32 3L33 3L33 4L32 4L32 5L31 5L31 4L30 4L30 3L31 3L31 2L30 2L30 3L29 3L29 4L28 4L28 3L27 3L27 2L26 2L26 3L27 3L27 4L25 4L25 2L24 2L24 1L26 1L26 0L24 0L24 1L23 1L23 0L22 0L22 1L23 1L23 2L22 2L22 3L23 3L23 4L22 4L22 8L23 8L23 9L22 9L22 12L21 12L21 11L20 11L20 10L21 10L21 9L20 9L20 8L18 8L18 7L19 7L19 6L18 6L18 7L17 7L17 5L16 5L16 4L15 4L15 5L14 5L14 3L15 3L15 2L14 2L14 1L13 1L13 0ZM15 0L15 1L17 1L17 2L16 2L16 3L17 3L17 2L18 2L18 0ZM19 0L19 2L20 2L20 0ZM64 0L64 1L65 1L65 0ZM12 1L12 2L10 2L10 3L9 3L9 4L10 4L10 3L12 3L12 6L11 6L11 8L12 8L12 6L13 6L13 8L15 8L15 9L14 9L14 10L15 10L15 11L16 11L16 10L15 10L15 9L17 9L17 12L14 12L14 11L13 11L13 9L12 9L12 11L11 11L11 10L10 10L10 9L9 9L9 11L11 11L11 12L10 12L10 13L9 13L9 12L7 12L7 11L8 11L8 10L7 10L7 9L6 9L6 10L7 10L7 11L6 11L6 12L7 12L7 13L6 13L6 14L7 14L7 15L5 15L5 14L4 14L4 13L1 13L1 14L2 14L2 15L3 15L3 16L4 16L4 15L5 15L5 16L8 16L8 17L5 17L5 18L4 18L4 19L5 19L5 18L10 18L10 19L11 19L11 20L14 20L14 21L13 21L13 22L14 22L14 25L13 25L13 27L12 27L12 28L10 28L10 27L11 27L11 24L13 24L13 23L12 23L12 22L10 22L10 20L9 20L9 21L6 21L6 20L7 20L7 19L6 19L6 20L5 20L5 22L9 22L9 24L10 24L10 25L9 25L9 26L10 26L10 27L9 27L9 28L10 28L10 29L8 29L8 31L5 31L5 32L3 32L3 33L2 33L2 35L3 35L3 36L4 36L4 34L3 34L3 33L5 33L5 32L8 32L8 33L11 33L11 34L8 34L8 35L6 35L6 34L7 34L7 33L6 33L6 34L5 34L5 37L6 37L6 38L7 38L7 39L6 39L6 40L7 40L7 39L9 39L9 40L11 40L11 41L12 41L12 42L14 42L14 43L15 43L15 44L16 44L16 42L15 42L15 41L16 41L16 40L17 40L17 39L18 39L18 41L19 41L19 42L20 42L20 41L21 41L21 42L23 42L23 45L22 45L22 43L19 43L19 44L17 44L17 45L15 45L15 46L16 46L16 47L17 47L17 50L16 50L16 48L15 48L15 47L14 47L14 48L12 48L12 47L13 47L13 45L14 45L14 44L13 44L13 43L12 43L12 44L13 44L13 45L12 45L12 46L11 46L11 48L9 48L9 49L8 49L8 51L6 51L6 52L9 52L9 51L12 51L12 52L13 52L13 53L10 53L10 54L11 54L11 56L9 56L9 53L6 53L6 54L7 54L7 55L6 55L6 56L8 56L8 57L5 57L5 56L4 56L4 55L5 55L5 54L1 54L1 56L2 56L2 55L3 55L3 58L2 58L2 60L1 60L1 62L2 62L2 61L3 61L3 62L4 62L4 63L5 63L5 61L6 61L6 62L8 62L8 60L9 60L9 63L8 63L8 64L9 64L9 63L11 63L11 62L10 62L10 60L11 60L11 61L13 61L13 62L14 62L14 61L15 61L15 62L16 62L16 61L17 61L17 60L18 60L18 61L19 61L19 62L17 62L17 63L15 63L15 65L14 65L14 64L13 64L13 63L12 63L12 66L13 66L13 67L17 67L17 66L18 66L18 63L19 63L19 65L21 65L21 66L19 66L19 67L18 67L18 68L19 68L19 70L22 70L22 71L23 71L23 70L22 70L22 69L21 69L21 67L22 67L22 66L23 66L23 65L24 65L24 63L23 63L23 65L21 65L21 63L22 63L22 62L23 62L23 61L22 61L22 60L24 60L24 61L25 61L25 60L24 60L24 58L25 58L25 59L26 59L26 60L27 60L27 61L29 61L29 63L28 63L28 62L27 62L27 63L26 63L26 62L25 62L25 63L26 63L26 64L29 64L29 65L30 65L30 64L29 64L29 63L31 63L31 64L32 64L32 65L31 65L31 66L29 66L29 68L31 68L31 66L32 66L32 65L33 65L33 66L36 66L36 64L37 64L37 65L38 65L38 64L40 64L40 65L41 65L41 64L40 64L40 63L42 63L42 65L44 65L44 64L46 64L46 63L42 63L42 62L41 62L41 60L42 60L42 61L43 61L43 62L46 62L46 60L47 60L47 62L48 62L48 63L47 63L47 64L50 64L50 63L51 63L51 64L52 64L52 63L53 63L53 62L54 62L54 61L52 61L52 62L51 62L51 60L50 60L50 59L49 59L49 60L48 60L48 59L47 59L47 57L49 57L49 58L51 58L51 59L52 59L52 58L53 58L53 59L57 59L57 57L59 57L59 59L60 59L60 57L61 57L61 59L62 59L62 60L63 60L63 59L62 59L62 57L61 57L61 56L63 56L63 55L62 55L62 54L65 54L65 53L66 53L66 54L69 54L69 55L67 55L67 56L69 56L69 55L70 55L70 56L71 56L71 58L72 58L72 54L71 54L71 55L70 55L70 54L69 54L69 53L66 53L66 52L71 52L71 51L70 51L70 50L69 50L69 49L68 49L68 50L67 50L67 49L64 49L64 48L62 48L62 47L61 47L61 46L62 46L62 45L63 45L63 44L65 44L65 43L68 43L68 42L69 42L69 40L71 40L71 39L72 39L72 38L70 38L70 36L71 36L71 37L72 37L72 36L71 36L71 34L70 34L70 33L69 33L69 32L68 32L68 31L69 31L69 30L68 30L68 29L67 29L67 30L68 30L68 31L67 31L67 32L66 32L66 29L64 29L64 30L63 30L63 27L61 27L61 26L59 26L59 25L60 25L60 24L59 24L59 25L58 25L58 26L56 26L56 25L57 25L57 24L55 24L55 22L56 22L56 23L57 23L57 22L56 22L56 21L57 21L57 20L56 20L56 19L57 19L57 18L55 18L55 17L56 17L56 15L58 15L58 14L56 14L56 12L57 12L57 11L58 11L58 10L62 10L62 9L60 9L60 8L59 8L59 7L60 7L60 6L59 6L59 5L60 5L60 3L57 3L57 4L58 4L58 5L56 5L56 3L55 3L55 2L54 2L54 4L53 4L53 5L52 5L52 6L51 6L51 8L50 8L50 6L49 6L49 8L50 8L50 9L47 9L47 10L46 10L46 9L45 9L45 10L44 10L44 8L43 8L43 10L42 10L42 11L41 11L41 10L39 10L39 13L38 13L38 14L39 14L39 15L41 15L41 12L45 12L45 11L47 11L47 12L48 12L48 11L49 11L49 10L50 10L50 11L51 11L51 12L52 12L52 13L49 13L49 14L48 14L48 13L43 13L43 14L44 14L44 15L46 15L46 17L45 17L45 18L44 18L44 21L43 21L43 20L42 20L42 19L41 19L41 18L40 18L40 20L38 20L38 22L37 22L37 21L36 21L36 22L35 22L35 23L34 23L34 25L33 25L33 24L31 24L31 25L33 25L33 26L32 26L32 27L34 27L34 28L32 28L32 31L33 31L33 30L35 30L35 31L34 31L34 32L35 32L35 31L36 31L36 32L37 32L37 31L36 31L36 30L37 30L37 29L35 29L35 28L37 28L37 27L38 27L38 30L39 30L39 28L40 28L40 29L43 29L43 30L40 30L40 31L38 31L38 33L36 33L36 34L35 34L35 33L34 33L34 34L33 34L33 32L32 32L32 35L31 35L31 34L30 34L30 33L29 33L29 31L30 31L30 32L31 32L31 30L30 30L30 29L31 29L31 27L30 27L30 26L29 26L29 31L28 31L28 30L27 30L27 31L28 31L28 32L26 32L26 33L23 33L23 32L22 32L22 31L23 31L23 30L24 30L24 31L25 31L25 29L23 29L23 28L24 28L24 27L23 27L23 26L21 26L21 23L20 23L20 22L22 22L22 25L24 25L24 23L23 23L23 21L24 21L24 22L25 22L25 23L26 23L26 24L27 24L27 23L26 23L26 22L27 22L27 21L26 21L26 20L23 20L23 19L25 19L25 18L26 18L26 19L27 19L27 18L28 18L28 19L30 19L30 18L31 18L31 16L32 16L32 15L33 15L33 14L32 14L32 13L31 13L31 12L30 12L30 13L25 13L25 16L24 16L24 14L23 14L23 13L22 13L22 14L21 14L21 12L19 12L19 13L20 13L20 14L18 14L18 8L16 8L16 6L15 6L15 7L14 7L14 5L13 5L13 3L14 3L14 2L13 2L13 1ZM39 1L39 2L40 2L40 1ZM42 1L42 2L43 2L43 1ZM12 2L12 3L13 3L13 2ZM23 2L23 3L24 3L24 2ZM44 2L44 4L43 4L43 5L42 5L42 6L43 6L43 7L44 7L44 4L45 4L45 2ZM18 3L18 5L21 5L21 3L20 3L20 4L19 4L19 3ZM46 3L46 4L47 4L47 3ZM61 3L61 4L62 4L62 5L63 5L63 4L62 4L62 3ZM23 4L23 8L24 8L24 4ZM49 4L49 5L50 5L50 4ZM9 5L9 7L10 7L10 5ZM25 5L25 8L28 8L28 5ZM32 5L32 6L31 6L31 7L32 7L32 6L33 6L33 5ZM36 5L36 7L37 7L37 5ZM45 5L45 8L48 8L48 5ZM53 5L53 6L52 6L52 8L51 8L51 10L52 10L52 11L53 11L53 10L52 10L52 9L54 9L54 10L55 10L55 12L56 12L56 10L58 10L58 7L59 7L59 6L58 6L58 7L57 7L57 6L56 6L56 7L55 7L55 6L54 6L54 5ZM20 6L20 7L21 7L21 6ZM26 6L26 7L27 7L27 6ZM46 6L46 7L47 7L47 6ZM53 6L53 7L54 7L54 6ZM0 8L0 9L1 9L1 8ZM34 8L34 9L37 9L37 8ZM54 8L54 9L55 9L55 10L56 10L56 8ZM23 9L23 11L24 11L24 12L26 12L26 11L25 11L25 10L24 10L24 9ZM71 10L71 12L72 12L72 13L73 13L73 10ZM12 11L12 12L11 12L11 13L13 13L13 14L14 14L14 15L15 15L15 14L16 14L16 16L18 16L18 14L17 14L17 13L15 13L15 14L14 14L14 13L13 13L13 11ZM61 12L61 13L62 13L62 12ZM7 13L7 14L9 14L9 15L8 15L8 16L9 16L9 15L10 15L10 16L11 16L11 15L12 15L12 14L9 14L9 13ZM30 13L30 14L28 14L28 16L26 16L26 18L27 18L27 17L29 17L29 18L30 18L30 17L29 17L29 16L30 16L30 14L31 14L31 13ZM39 13L39 14L40 14L40 13ZM63 13L63 14L64 14L64 13ZM66 13L66 14L67 14L67 13ZM3 14L3 15L4 15L4 14ZM20 14L20 18L21 18L21 16L22 16L22 19L21 19L21 20L22 20L22 21L23 21L23 20L22 20L22 19L23 19L23 18L25 18L25 17L24 17L24 16L22 16L22 15L21 15L21 14ZM26 14L26 15L27 15L27 14ZM46 14L46 15L47 15L47 17L46 17L46 18L45 18L45 19L46 19L46 20L45 20L45 21L44 21L44 22L45 22L45 23L44 23L44 25L43 25L43 23L42 23L42 22L43 22L43 21L40 21L40 23L39 23L39 22L38 22L38 24L36 24L36 23L37 23L37 22L36 22L36 23L35 23L35 24L36 24L36 25L37 25L37 26L36 26L36 27L37 27L37 26L38 26L38 24L41 24L41 25L40 25L40 28L41 28L41 26L42 26L42 28L43 28L43 29L45 29L45 30L44 30L44 32L43 32L43 33L42 33L42 31L40 31L40 32L39 32L39 34L38 34L38 35L39 35L39 36L38 36L38 37L37 37L37 36L35 36L35 38L33 38L33 37L32 37L32 36L34 36L34 35L35 35L35 34L34 34L34 35L32 35L32 36L31 36L31 37L28 37L28 38L25 38L25 39L24 39L24 40L23 40L23 39L21 39L21 38L20 38L20 36L21 36L21 33L22 33L22 32L21 32L21 33L20 33L20 32L18 32L18 33L20 33L20 35L19 35L19 34L18 34L18 35L16 35L16 36L13 36L13 37L12 37L12 36L10 36L10 35L8 35L8 36L6 36L6 37L7 37L7 38L8 38L8 37L9 37L9 38L10 38L10 37L12 37L12 38L11 38L11 40L12 40L12 38L13 38L13 37L14 37L14 38L17 38L17 36L18 36L18 38L20 38L20 39L19 39L19 41L20 41L20 40L22 40L22 41L23 41L23 42L24 42L24 41L25 41L25 42L26 42L26 43L28 43L28 44L24 44L24 47L23 47L23 46L21 46L21 47L20 47L20 45L21 45L21 44L20 44L20 45L17 45L17 46L19 46L19 47L18 47L18 48L19 48L19 49L21 49L21 50L17 50L17 51L15 51L15 49L9 49L9 50L14 50L14 53L13 53L13 54L12 54L12 55L14 55L14 56L11 56L11 57L10 57L10 58L9 58L9 57L8 57L8 59L7 59L7 58L6 58L6 59L4 59L4 60L3 60L3 61L5 61L5 60L6 60L6 61L7 61L7 60L8 60L8 59L10 59L10 58L12 58L12 57L14 57L14 58L13 58L13 61L14 61L14 58L15 58L15 59L16 59L16 60L17 60L17 58L18 58L18 59L19 59L19 56L20 56L20 57L21 57L21 58L22 58L22 57L21 57L21 56L20 56L20 55L21 55L21 54L22 54L22 55L23 55L23 58L24 58L24 57L27 57L27 58L28 58L28 59L27 59L27 60L28 60L28 59L31 59L31 60L34 60L34 61L35 61L35 60L34 60L34 59L35 59L35 58L36 58L36 59L37 59L37 60L36 60L36 61L37 61L37 63L38 63L38 60L41 60L41 59L40 59L40 58L43 58L43 61L45 61L45 60L44 60L44 59L46 59L46 57L47 57L47 55L48 55L48 54L49 54L49 52L50 52L50 53L51 53L51 54L50 54L50 56L49 56L49 57L50 57L50 56L51 56L51 58L52 58L52 56L51 56L51 55L52 55L52 53L54 53L54 54L56 54L56 53L55 53L55 52L50 52L50 51L52 51L52 50L51 50L51 49L52 49L52 48L51 48L51 47L50 47L50 46L49 46L49 45L50 45L50 44L51 44L51 45L52 45L52 47L53 47L53 48L58 48L58 47L60 47L60 46L61 46L61 45L62 45L62 44L63 44L63 43L65 43L65 42L68 42L68 40L67 40L67 39L66 39L66 38L67 38L67 37L68 37L68 36L67 36L67 35L66 35L66 36L67 36L67 37L66 37L66 38L65 38L65 37L63 37L63 36L61 36L61 35L62 35L62 34L61 34L61 33L60 33L60 34L61 34L61 35L59 35L59 34L58 34L58 32L62 32L62 33L63 33L63 35L64 35L64 34L65 34L65 33L66 33L66 34L67 34L67 33L66 33L66 32L65 32L65 33L63 33L63 31L62 31L62 30L61 30L61 29L62 29L62 28L61 28L61 29L60 29L60 30L58 30L58 29L57 29L57 28L58 28L58 27L59 27L59 28L60 28L60 27L59 27L59 26L58 26L58 27L55 27L55 24L53 24L53 23L52 23L52 20L53 20L53 19L52 19L52 18L51 18L51 17L52 17L52 16L51 16L51 17L50 17L50 19L49 19L49 17L48 17L48 16L49 16L49 15L52 15L52 14L49 14L49 15L47 15L47 14ZM53 14L53 17L55 17L55 15L54 15L54 14ZM34 15L34 16L35 16L35 15ZM66 15L66 16L67 16L67 15ZM68 15L68 17L69 17L69 16L71 16L71 15ZM12 16L12 17L14 17L14 16ZM17 17L17 18L16 18L16 20L15 20L15 21L14 21L14 22L15 22L15 23L17 23L17 22L20 22L20 19L19 19L19 20L18 20L18 21L17 21L17 19L18 19L18 17ZM47 17L47 18L46 18L46 19L47 19L47 20L48 20L48 21L45 21L45 22L47 22L47 23L45 23L45 24L49 24L49 26L50 26L50 27L51 27L51 28L52 28L52 29L53 29L53 30L54 30L54 31L53 31L53 32L52 32L52 33L51 33L51 31L49 31L49 30L51 30L51 29L49 29L49 30L47 30L47 29L46 29L46 30L45 30L45 31L46 31L46 32L47 32L47 33L48 33L48 34L45 34L45 35L46 35L46 36L45 36L45 37L46 37L46 38L45 38L45 39L44 39L44 37L43 37L43 36L44 36L44 33L45 33L45 32L44 32L44 33L43 33L43 34L41 34L41 36L40 36L40 37L41 37L41 38L40 38L40 39L39 39L39 40L37 40L37 39L34 39L34 40L30 40L30 39L31 39L31 38L32 38L32 37L31 37L31 38L29 38L29 41L28 41L28 40L26 40L26 41L27 41L27 42L30 42L30 43L29 43L29 44L30 44L30 43L31 43L31 45L32 45L32 50L30 50L30 47L31 47L31 46L30 46L30 47L29 47L29 50L27 50L27 49L24 49L24 48L23 48L23 50L22 50L22 52L21 52L21 51L19 51L19 53L18 53L18 52L17 52L17 53L16 53L16 52L15 52L15 54L14 54L14 55L15 55L15 56L14 56L14 57L15 57L15 56L16 56L16 54L17 54L17 56L18 56L18 54L19 54L19 55L20 55L20 54L19 54L19 53L22 53L22 52L23 52L23 55L24 55L24 52L25 52L25 53L28 53L28 52L30 52L30 51L31 51L31 52L32 52L32 54L31 54L31 56L30 56L30 57L31 57L31 58L32 58L32 57L31 57L31 56L34 56L34 55L35 55L35 56L36 56L36 55L35 55L35 52L34 52L34 50L35 50L35 51L36 51L36 52L37 52L37 51L38 51L38 50L40 50L40 51L39 51L39 52L38 52L38 54L37 54L37 57L38 57L38 58L37 58L37 59L38 59L38 58L39 58L39 57L41 57L41 56L42 56L42 57L43 57L43 58L44 58L44 56L46 56L46 55L44 55L44 54L45 54L45 53L44 53L44 52L46 52L46 54L48 54L48 52L49 52L49 50L50 50L50 49L51 49L51 48L50 48L50 47L49 47L49 50L48 50L48 49L47 49L47 51L44 51L44 50L45 50L45 49L43 49L43 48L44 48L44 46L42 46L42 45L41 45L41 44L42 44L42 43L43 43L43 44L44 44L44 43L43 43L43 42L44 42L44 41L46 41L46 42L45 42L45 44L46 44L46 43L49 43L49 42L51 42L51 41L50 41L50 40L52 40L52 39L48 39L48 38L47 38L47 35L48 35L48 36L49 36L49 38L50 38L50 35L51 35L51 36L52 36L52 37L51 37L51 38L55 38L55 39L57 39L57 40L55 40L55 41L52 41L52 43L51 43L51 44L52 44L52 45L53 45L53 46L54 46L54 47L58 47L58 46L60 46L60 44L59 44L59 43L60 43L60 42L62 42L62 43L61 43L61 44L62 44L62 43L63 43L63 42L62 42L62 41L63 41L63 40L65 40L65 41L64 41L64 42L65 42L65 41L67 41L67 40L65 40L65 39L64 39L64 38L62 38L62 37L61 37L61 38L57 38L57 37L58 37L58 36L59 36L59 37L60 37L60 36L59 36L59 35L58 35L58 34L57 34L57 35L56 35L56 33L57 33L57 32L55 32L55 33L53 33L53 32L54 32L54 31L55 31L55 29L56 29L56 28L55 28L55 27L53 27L53 26L54 26L54 25L53 25L53 26L52 26L52 25L51 25L51 24L52 24L52 23L51 23L51 21L50 21L50 20L51 20L51 19L50 19L50 20L49 20L49 19L48 19L48 17ZM13 18L13 19L14 19L14 18ZM63 18L63 19L64 19L64 20L65 20L65 21L64 21L64 22L63 22L63 23L65 23L65 24L66 24L66 23L65 23L65 21L66 21L66 22L67 22L67 24L70 24L70 25L71 25L71 26L72 26L72 24L71 24L71 23L68 23L68 22L69 22L69 21L67 21L67 20L66 20L66 19L65 19L65 18ZM72 18L72 19L73 19L73 18ZM28 20L28 21L29 21L29 20ZM54 20L54 21L55 21L55 20ZM2 21L2 22L3 22L3 21ZM15 21L15 22L16 22L16 21ZM25 21L25 22L26 22L26 21ZM70 21L70 22L71 22L71 21ZM49 22L49 23L50 23L50 22ZM6 23L6 24L8 24L8 23ZM19 23L19 24L18 24L18 25L19 25L19 24L20 24L20 23ZM41 23L41 24L42 24L42 23ZM15 24L15 25L14 25L14 28L12 28L12 29L10 29L10 30L12 30L12 32L11 32L11 31L9 31L9 32L11 32L11 33L13 33L13 32L14 32L14 35L15 35L15 33L16 33L16 34L17 34L17 33L16 33L16 30L15 30L15 29L16 29L16 28L17 28L17 29L18 29L18 30L20 30L20 31L21 31L21 30L23 30L23 29L22 29L22 28L23 28L23 27L21 27L21 26L20 26L20 28L19 28L19 27L15 27L15 25L16 25L16 26L17 26L17 24ZM5 25L5 28L8 28L8 25ZM25 25L25 28L28 28L28 25ZM45 25L45 28L48 28L48 25ZM63 25L63 26L64 26L64 25ZM65 25L65 28L68 28L68 25ZM6 26L6 27L7 27L7 26ZM26 26L26 27L27 27L27 26ZM46 26L46 27L47 27L47 26ZM66 26L66 27L67 27L67 26ZM3 27L3 28L4 28L4 27ZM14 28L14 29L15 29L15 28ZM18 28L18 29L19 29L19 28ZM54 28L54 29L55 29L55 28ZM3 29L3 30L5 30L5 29ZM6 29L6 30L7 30L7 29ZM13 30L13 31L14 31L14 32L15 32L15 30ZM46 30L46 31L47 31L47 30ZM56 30L56 31L58 31L58 30ZM72 30L72 31L73 31L73 30ZM48 31L48 33L50 33L50 32L49 32L49 31ZM40 32L40 33L41 33L41 32ZM26 33L26 34L24 34L24 35L23 35L23 36L22 36L22 37L23 37L23 36L25 36L25 37L27 37L27 35L28 35L28 34L29 34L29 36L30 36L30 34L29 34L29 33L28 33L28 34L27 34L27 33ZM52 33L52 36L53 36L53 33ZM11 34L11 35L12 35L12 34ZM26 34L26 35L27 35L27 34ZM36 34L36 35L37 35L37 34ZM49 34L49 35L50 35L50 34ZM42 35L42 36L43 36L43 35ZM55 35L55 36L56 36L56 37L57 37L57 36L58 36L58 35L57 35L57 36L56 36L56 35ZM69 35L69 36L70 36L70 35ZM38 37L38 38L39 38L39 37ZM42 37L42 38L41 38L41 39L40 39L40 40L41 40L41 41L42 41L42 42L43 42L43 41L44 41L44 40L43 40L43 39L42 39L42 38L43 38L43 37ZM0 38L0 41L1 41L1 38ZM46 38L46 39L45 39L45 40L48 40L48 39L47 39L47 38ZM61 38L61 39L62 39L62 40L61 40L61 41L62 41L62 40L63 40L63 39L62 39L62 38ZM69 38L69 39L70 39L70 38ZM15 39L15 40L13 40L13 41L15 41L15 40L16 40L16 39ZM41 39L41 40L42 40L42 41L43 41L43 40L42 40L42 39ZM58 39L58 40L57 40L57 42L58 42L58 41L59 41L59 40L60 40L60 39ZM36 40L36 41L37 41L37 40ZM3 41L3 43L4 43L4 41ZM5 41L5 43L6 43L6 44L7 44L7 43L8 43L8 44L9 44L9 45L10 45L10 43L9 43L9 42L10 42L10 41L8 41L8 42L7 42L7 41ZM30 41L30 42L31 42L31 41ZM32 41L32 42L33 42L33 41ZM47 41L47 42L48 42L48 41ZM55 41L55 42L56 42L56 41ZM6 42L6 43L7 43L7 42ZM34 42L34 43L35 43L35 42ZM38 42L38 43L39 43L39 44L41 44L41 43L40 43L40 42ZM53 42L53 43L52 43L52 44L53 44L53 45L54 45L54 44L56 44L56 46L58 46L58 45L59 45L59 44L58 44L58 43L54 43L54 42ZM32 43L32 44L33 44L33 43ZM35 44L35 46L33 46L33 50L32 50L32 52L33 52L33 50L34 50L34 49L35 49L35 50L38 50L38 47L39 47L39 48L40 48L40 47L39 47L39 46L41 46L41 51L40 51L40 52L41 52L41 53L40 53L40 54L39 54L39 55L40 55L40 54L41 54L41 55L42 55L42 56L43 56L43 51L42 51L42 50L43 50L43 49L42 49L42 46L41 46L41 45L39 45L39 46L38 46L38 47L36 47L36 45L37 45L37 44ZM5 45L5 48L8 48L8 45ZM25 45L25 48L28 48L28 45ZM45 45L45 48L48 48L48 45ZM65 45L65 48L68 48L68 45ZM6 46L6 47L7 47L7 46ZM9 46L9 47L10 47L10 46ZM26 46L26 47L27 47L27 46ZM46 46L46 47L47 47L47 46ZM63 46L63 47L64 47L64 46ZM66 46L66 47L67 47L67 46ZM19 47L19 48L20 48L20 47ZM34 47L34 48L36 48L36 47ZM60 48L60 49L62 49L62 48ZM72 48L72 49L73 49L73 48ZM6 49L6 50L7 50L7 49ZM56 49L56 52L57 52L57 54L59 54L59 55L60 55L60 54L59 54L59 53L58 53L58 51L59 51L59 52L61 52L61 53L62 53L62 52L61 52L61 51L62 51L62 50L60 50L60 51L59 51L59 49ZM23 50L23 52L24 52L24 50ZM25 50L25 51L26 51L26 52L27 52L27 50ZM29 50L29 51L30 51L30 50ZM53 50L53 51L54 51L54 50ZM57 50L57 51L58 51L58 50ZM63 50L63 51L64 51L64 50ZM66 50L66 51L67 51L67 50ZM68 50L68 51L69 51L69 50ZM41 51L41 52L42 52L42 51ZM29 53L29 54L30 54L30 53ZM33 53L33 55L34 55L34 53ZM26 54L26 55L25 55L25 56L26 56L26 55L28 55L28 56L27 56L27 57L28 57L28 56L29 56L29 55L28 55L28 54ZM53 55L53 56L54 56L54 57L55 57L55 55ZM56 55L56 56L58 56L58 55ZM65 55L65 57L66 57L66 58L67 58L67 57L66 57L66 55ZM38 56L38 57L39 57L39 56ZM33 57L33 58L35 58L35 57ZM63 57L63 58L64 58L64 57ZM6 59L6 60L7 60L7 59ZM20 59L20 60L19 60L19 61L20 61L20 63L21 63L21 62L22 62L22 61L20 61L20 60L21 60L21 59ZM49 60L49 61L50 61L50 60ZM55 60L55 63L58 63L58 62L57 62L57 61L56 61L56 60ZM30 61L30 62L31 62L31 63L32 63L32 64L33 64L33 63L32 63L32 62L31 62L31 61ZM39 61L39 62L40 62L40 61ZM35 62L35 63L34 63L34 64L35 64L35 63L36 63L36 62ZM49 62L49 63L50 63L50 62ZM60 63L60 64L57 64L57 65L56 65L56 64L55 64L55 65L54 65L54 64L53 64L53 65L52 65L52 66L51 66L51 68L50 68L50 69L49 69L49 70L50 70L50 71L51 71L51 68L52 68L52 67L53 67L53 66L54 66L54 67L55 67L55 66L57 66L57 68L54 68L54 69L53 69L53 70L54 70L54 71L56 71L56 72L58 72L58 70L57 70L57 68L58 68L58 69L60 69L60 70L59 70L59 71L61 71L61 70L63 70L63 68L62 68L62 67L64 67L64 66L63 66L63 65L64 65L64 64L63 64L63 63L62 63L62 65L61 65L61 66L62 66L62 67L60 67L60 66L59 66L59 65L60 65L60 64L61 64L61 63ZM65 63L65 64L66 64L66 63ZM0 64L0 65L1 65L1 64ZM16 64L16 66L17 66L17 64ZM13 65L13 66L14 66L14 65ZM25 65L25 68L28 68L28 65ZM45 65L45 68L48 68L48 65ZM49 65L49 67L50 67L50 65ZM57 65L57 66L58 66L58 67L59 67L59 68L60 68L60 69L62 69L62 68L60 68L60 67L59 67L59 66L58 66L58 65ZM65 65L65 68L68 68L68 65ZM26 66L26 67L27 67L27 66ZM40 66L40 67L43 67L43 68L44 68L44 66ZM46 66L46 67L47 67L47 66ZM66 66L66 67L67 67L67 66ZM19 67L19 68L20 68L20 67ZM23 67L23 69L24 69L24 70L25 70L25 69L24 69L24 67ZM16 68L16 69L15 69L15 71L16 71L16 69L17 69L17 68ZM32 68L32 69L31 69L31 70L32 70L32 71L34 71L34 70L33 70L33 68ZM40 68L40 69L42 69L42 68ZM9 69L9 70L10 70L10 69ZM27 69L27 70L28 70L28 72L29 72L29 70L30 70L30 69ZM45 69L45 70L46 70L46 69ZM47 69L47 70L48 70L48 69ZM55 69L55 70L56 70L56 71L57 71L57 70L56 70L56 69ZM40 70L40 71L43 71L43 72L45 72L45 71L44 71L44 70ZM20 71L20 72L21 72L21 71ZM66 71L66 72L67 72L67 71ZM0 0L0 7L7 7L7 0ZM1 1L1 6L6 6L6 1ZM2 2L2 5L5 5L5 2ZM66 0L66 7L73 7L73 0ZM67 1L67 6L72 6L72 1ZM68 2L68 5L71 5L71 2ZM0 66L0 73L7 73L7 66ZM1 67L1 72L6 72L6 67ZM2 68L2 71L5 71L5 68Z" fill="#000000"/></g></g></svg>
