<?xml version="1.0" standalone="no" ?>
<!DOCTYPE svg PUBLIC "-//W3C//DTD SVG 1.1//EN" "http://www.w3.org/Graphics/SVG/1.1/DTD/svg11.dtd">
<svg width="288" height="150" viewBox="0 0 288 150" version="1.1" xmlns="http://www.w3.org/2000/svg">
	<desc>*7*</desc>
	<g id="bars" fill="black" stroke="none">
		<rect x="0" y="0" width="6" height="150" />
		<rect x="24" y="0" width="6" height="150" />
		<rect x="36" y="0" width="18" height="150" />
		<rect x="60" y="0" width="18" height="150" />
		<rect x="84" y="0" width="6" height="150" />
		<rect x="96" y="0" width="6" height="150" />
		<rect x="108" y="0" width="6" height="150" />
		<rect x="132" y="0" width="6" height="150" />
		<rect x="144" y="0" width="18" height="150" />
		<rect x="168" y="0" width="18" height="150" />
		<rect x="192" y="0" width="6" height="150" />
		<rect x="216" y="0" width="6" height="150" />
		<rect x="228" y="0" width="18" height="150" />
		<rect x="252" y="0" width="18" height="150" />
		<rect x="276" y="0" width="6" height="150" />
	</g>
</svg>
