<?xml version="1.0" encoding="UTF-8"?>
<svg xmlns="http://www.w3.org/2000/svg" version="1.1" width="200" height="200" viewBox="0 0 200 200"><rect x="0" y="0" width="200" height="200" fill="#ffffff"/><g transform="scale(2.667)"><g transform="translate(1,1)"><path fill-rule="evenodd" d="M9 0L9 1L10 1L10 3L9 3L9 2L8 2L8 8L9 8L9 10L8 10L8 9L7 9L7 8L2 8L2 9L3 9L3 10L1 10L1 12L0 12L0 13L1 13L1 12L3 12L3 14L2 14L2 15L3 15L3 16L0 16L0 17L3 17L3 16L4 16L4 18L3 18L3 19L2 19L2 18L0 18L0 19L2 19L2 20L1 20L1 21L0 21L0 22L1 22L1 21L2 21L2 23L1 23L1 25L2 25L2 26L3 26L3 24L4 24L4 28L3 28L3 27L1 27L1 26L0 26L0 27L1 27L1 28L2 28L2 30L1 30L1 31L0 31L0 34L1 34L1 32L2 32L2 31L3 31L3 32L5 32L5 33L4 33L4 34L3 34L3 33L2 33L2 34L3 34L3 36L4 36L4 37L3 37L3 39L2 39L2 38L1 38L1 37L2 37L2 35L1 35L1 37L0 37L0 38L1 38L1 39L0 39L0 41L1 41L1 39L2 39L2 40L4 40L4 41L3 41L3 43L2 43L2 44L3 44L3 45L2 45L2 46L1 46L1 48L0 48L0 49L1 49L1 48L2 48L2 49L3 49L3 48L2 48L2 46L3 46L3 47L4 47L4 49L9 49L9 50L6 50L6 51L5 51L5 52L2 52L2 51L4 51L4 50L2 50L2 51L0 51L0 52L1 52L1 54L0 54L0 55L1 55L1 56L0 56L0 59L1 59L1 60L0 60L0 63L2 63L2 62L1 62L1 60L4 60L4 61L3 61L3 64L4 64L4 65L5 65L5 63L7 63L7 62L8 62L8 63L9 63L9 61L7 61L7 60L8 60L8 59L9 59L9 60L10 60L10 57L11 57L11 56L12 56L12 54L15 54L15 55L16 55L16 57L17 57L17 56L18 56L18 57L19 57L19 56L18 56L18 55L20 55L20 56L21 56L21 54L22 54L22 53L21 53L21 54L17 54L17 55L16 55L16 53L17 53L17 52L18 52L18 53L19 53L19 52L20 52L20 50L19 50L19 48L20 48L20 49L22 49L22 48L23 48L23 49L24 49L24 50L23 50L23 51L22 51L22 52L24 52L24 54L25 54L25 52L24 52L24 50L25 50L25 51L27 51L27 52L30 52L30 50L31 50L31 49L32 49L32 50L33 50L33 51L32 51L32 52L31 52L31 54L30 54L30 53L29 53L29 54L28 54L28 53L26 53L26 54L28 54L28 55L29 55L29 58L32 58L32 57L30 57L30 55L31 55L31 56L32 56L32 55L31 55L31 54L32 54L32 52L33 52L33 53L34 53L34 54L33 54L33 55L34 55L34 56L33 56L33 57L35 57L35 58L33 58L33 59L30 59L30 60L36 60L36 61L37 61L37 62L36 62L36 63L37 63L37 64L35 64L35 65L37 65L37 66L36 66L36 67L35 67L35 66L34 66L34 65L33 65L33 67L32 67L32 64L33 64L33 63L29 63L29 62L31 62L31 61L28 61L28 63L29 63L29 64L26 64L26 63L27 63L27 61L26 61L26 60L27 60L27 59L26 59L26 58L25 58L25 61L24 61L24 60L22 60L22 59L21 59L21 58L24 58L24 57L23 57L23 56L24 56L24 55L22 55L22 57L21 57L21 58L17 58L17 59L16 59L16 60L15 60L15 59L14 59L14 56L13 56L13 58L11 58L11 59L12 59L12 61L11 61L11 62L10 62L10 63L11 63L11 62L14 62L14 63L12 63L12 64L14 64L14 63L17 63L17 64L16 64L16 66L15 66L15 65L10 65L10 64L8 64L8 66L9 66L9 65L10 65L10 66L11 66L11 67L12 67L12 66L13 66L13 67L14 67L14 66L15 66L15 70L18 70L18 71L16 71L16 72L13 72L13 73L16 73L16 72L17 72L17 73L18 73L18 72L20 72L20 71L22 71L22 72L23 72L23 71L22 71L22 69L24 69L24 70L25 70L25 72L24 72L24 73L28 73L28 72L26 72L26 71L28 71L28 70L31 70L31 71L30 71L30 72L29 72L29 73L32 73L32 72L33 72L33 73L38 73L38 71L39 71L39 73L40 73L40 72L41 72L41 71L42 71L42 72L43 72L43 71L42 71L42 70L45 70L45 71L44 71L44 73L45 73L45 72L48 72L48 71L47 71L47 69L48 69L48 70L49 70L49 71L50 71L50 73L52 73L52 72L53 72L53 73L55 73L55 72L56 72L56 73L57 73L57 72L58 72L58 73L59 73L59 72L60 72L60 73L62 73L62 72L63 72L63 71L64 71L64 69L65 69L65 70L66 70L66 71L67 71L67 72L65 72L65 73L67 73L67 72L69 72L69 73L73 73L73 68L72 68L72 72L70 72L70 71L71 71L71 70L69 70L69 69L71 69L71 68L70 68L70 64L69 64L69 63L70 63L70 60L68 60L68 59L67 59L67 58L63 58L63 57L64 57L64 56L63 56L63 55L64 55L64 54L63 54L63 53L64 53L64 51L65 51L65 50L63 50L63 53L62 53L62 55L61 55L61 56L60 56L60 57L61 57L61 56L62 56L62 58L60 58L60 59L59 59L59 58L58 58L58 57L56 57L56 58L53 58L53 59L52 59L52 56L53 56L53 55L54 55L54 57L55 57L55 54L57 54L57 55L56 55L56 56L58 56L58 55L59 55L59 54L58 54L58 51L62 51L62 50L60 50L60 49L58 49L58 47L59 47L59 48L60 48L60 47L61 47L61 48L62 48L62 49L63 49L63 48L64 48L64 49L67 49L67 50L68 50L68 51L69 51L69 52L68 52L68 53L67 53L67 52L66 52L66 53L65 53L65 55L67 55L67 56L65 56L65 57L67 57L67 56L68 56L68 57L69 57L69 59L71 59L71 60L72 60L72 62L71 62L71 64L73 64L73 56L70 56L70 55L71 55L71 52L72 52L72 53L73 53L73 52L72 52L72 51L73 51L73 50L71 50L71 52L70 52L70 50L68 50L68 49L69 49L69 46L70 46L70 45L73 45L73 38L71 38L71 40L70 40L70 41L71 41L71 43L72 43L72 44L69 44L69 43L70 43L70 42L69 42L69 41L68 41L68 40L67 40L67 38L68 38L68 39L69 39L69 38L70 38L70 37L71 37L71 36L72 36L72 37L73 37L73 34L70 34L70 33L71 33L71 32L70 32L70 30L69 30L69 29L71 29L71 28L72 28L72 27L73 27L73 24L72 24L72 26L71 26L71 28L70 28L70 27L69 27L69 26L70 26L70 24L67 24L67 21L69 21L69 22L68 22L68 23L73 23L73 21L72 21L72 20L73 20L73 18L72 18L72 16L73 16L73 14L68 14L68 15L67 15L67 14L66 14L66 13L67 13L67 12L66 12L66 13L65 13L65 14L64 14L64 13L63 13L63 15L64 15L64 16L66 16L66 17L67 17L67 18L65 18L65 19L66 19L66 20L64 20L64 19L63 19L63 18L64 18L64 17L63 17L63 18L62 18L62 19L63 19L63 20L60 20L60 21L57 21L57 20L58 20L58 19L57 19L57 18L59 18L59 17L58 17L58 15L59 15L59 13L57 13L57 14L56 14L56 13L55 13L55 14L56 14L56 17L57 17L57 18L56 18L56 21L55 21L55 19L51 19L51 18L53 18L53 17L54 17L54 18L55 18L55 16L53 16L53 17L52 17L52 16L50 16L50 15L52 15L52 12L51 12L51 11L50 11L50 10L49 10L49 9L50 9L50 8L51 8L51 9L52 9L52 11L53 11L53 12L54 12L54 11L53 11L53 9L54 9L54 10L55 10L55 9L54 9L54 8L56 8L56 9L57 9L57 10L56 10L56 11L55 11L55 12L56 12L56 11L57 11L57 12L60 12L60 13L62 13L62 12L60 12L60 11L63 11L63 12L64 12L64 11L69 11L69 10L65 10L65 9L62 9L62 8L60 8L60 7L61 7L61 6L62 6L62 7L63 7L63 5L65 5L65 4L64 4L64 3L62 3L62 4L61 4L61 3L60 3L60 2L61 2L61 1L60 1L60 0L57 0L57 1L56 1L56 4L55 4L55 1L53 1L53 0L50 0L50 1L49 1L49 2L53 2L53 4L55 4L55 5L56 5L56 4L57 4L57 5L58 5L58 4L59 4L59 3L60 3L60 5L61 5L61 6L60 6L60 7L59 7L59 6L58 6L58 7L57 7L57 6L56 6L56 7L55 7L55 6L54 6L54 5L53 5L53 6L52 6L52 5L49 5L49 3L48 3L48 2L47 2L47 3L46 3L46 1L45 1L45 0L44 0L44 1L45 1L45 2L44 2L44 3L43 3L43 2L42 2L42 1L43 1L43 0L42 0L42 1L41 1L41 0L39 0L39 1L38 1L38 0L35 0L35 1L33 1L33 0L32 0L32 1L31 1L31 0L29 0L29 1L26 1L26 0L21 0L21 1L19 1L19 2L20 2L20 4L21 4L21 5L20 5L20 8L18 8L18 10L17 10L17 8L15 8L15 5L17 5L17 6L16 6L16 7L17 7L17 6L18 6L18 7L19 7L19 6L18 6L18 5L19 5L19 4L18 4L18 5L17 5L17 4L15 4L15 5L12 5L12 7L11 7L11 5L10 5L10 4L11 4L11 1L12 1L12 0L11 0L11 1L10 1L10 0ZM14 0L14 2L15 2L15 3L16 3L16 2L17 2L17 0ZM62 0L62 2L63 2L63 0ZM64 0L64 1L65 1L65 0ZM21 1L21 3L22 3L22 5L23 5L23 7L24 7L24 4L23 4L23 2L24 2L24 3L25 3L25 4L29 4L29 5L30 5L30 6L29 6L29 8L30 8L30 6L31 6L31 10L30 10L30 11L29 11L29 12L28 12L28 11L26 11L26 10L24 10L24 11L22 11L22 10L23 10L23 8L22 8L22 6L21 6L21 11L22 11L22 12L19 12L19 11L17 11L17 10L15 10L15 8L14 8L14 6L13 6L13 8L14 8L14 10L13 10L13 9L12 9L12 8L11 8L11 7L10 7L10 5L9 5L9 7L10 7L10 8L11 8L11 9L10 9L10 10L11 10L11 9L12 9L12 12L11 12L11 11L10 11L10 12L9 12L9 13L8 13L8 11L5 11L5 12L7 12L7 13L6 13L6 14L7 14L7 15L5 15L5 14L4 14L4 16L8 16L8 17L6 17L6 18L5 18L5 19L4 19L4 21L3 21L3 22L5 22L5 20L7 20L7 21L6 21L6 22L7 22L7 23L6 23L6 24L9 24L9 27L10 27L10 26L12 26L12 27L11 27L11 29L10 29L10 30L11 30L11 29L12 29L12 31L8 31L8 32L12 32L12 33L11 33L11 34L9 34L9 33L6 33L6 34L9 34L9 35L8 35L8 37L5 37L5 38L4 38L4 40L5 40L5 42L4 42L4 44L5 44L5 42L7 42L7 43L6 43L6 44L8 44L8 43L9 43L9 45L10 45L10 46L9 46L9 48L10 48L10 50L9 50L9 52L8 52L8 51L6 51L6 52L5 52L5 53L3 53L3 54L5 54L5 55L6 55L6 56L9 56L9 55L10 55L10 54L12 54L12 53L11 53L11 52L13 52L13 51L11 51L11 50L13 50L13 49L11 49L11 48L10 48L10 46L11 46L11 47L13 47L13 48L15 48L15 49L14 49L14 51L15 51L15 53L16 53L16 50L17 50L17 51L18 51L18 52L19 52L19 51L18 51L18 50L17 50L17 49L18 49L18 47L19 47L19 46L21 46L21 48L22 48L22 46L21 46L21 44L22 44L22 45L23 45L23 46L24 46L24 44L29 44L29 45L30 45L30 44L29 44L29 43L31 43L31 42L32 42L32 43L33 43L33 44L31 44L31 46L29 46L29 47L31 47L31 48L29 48L29 50L27 50L27 51L29 51L29 50L30 50L30 49L31 49L31 48L32 48L32 49L33 49L33 50L35 50L35 51L36 51L36 52L38 52L38 54L37 54L37 55L35 55L35 54L34 54L34 55L35 55L35 57L36 57L36 58L35 58L35 59L36 59L36 60L38 60L38 62L37 62L37 63L39 63L39 64L40 64L40 65L44 65L44 64L46 64L46 63L44 63L44 62L45 62L45 61L43 61L43 64L40 64L40 61L41 61L41 60L42 60L42 59L43 59L43 58L46 58L46 57L44 57L44 56L46 56L46 55L47 55L47 58L48 58L48 57L49 57L49 58L50 58L50 57L51 57L51 55L50 55L50 53L51 53L51 54L52 54L52 55L53 55L53 54L54 54L54 52L55 52L55 53L56 53L56 51L58 51L58 50L56 50L56 48L57 48L57 47L58 47L58 46L62 46L62 45L63 45L63 46L64 46L64 45L63 45L63 44L62 44L62 43L64 43L64 44L66 44L66 43L64 43L64 42L65 42L65 41L64 41L64 42L63 42L63 40L65 40L65 39L64 39L64 38L65 38L65 37L67 37L67 36L68 36L68 37L70 37L70 36L71 36L71 35L70 35L70 36L69 36L69 32L66 32L66 31L69 31L69 30L68 30L68 29L67 29L67 30L66 30L66 29L65 29L65 30L64 30L64 31L63 31L63 28L64 28L64 27L62 27L62 29L61 29L61 26L64 26L64 25L61 25L61 23L62 23L62 24L63 24L63 23L62 23L62 21L61 21L61 23L60 23L60 22L59 22L59 23L58 23L58 25L59 25L59 27L60 27L60 28L57 28L57 29L58 29L58 30L56 30L56 31L57 31L57 32L58 32L58 33L60 33L60 32L59 32L59 31L58 31L58 30L60 30L60 29L61 29L61 30L62 30L62 31L61 31L61 32L62 32L62 33L61 33L61 34L59 34L59 35L61 35L61 34L65 34L65 35L64 35L64 36L65 36L65 37L64 37L64 38L63 38L63 35L62 35L62 36L61 36L61 37L60 37L60 36L59 36L59 38L57 38L57 37L58 37L58 36L57 36L57 35L58 35L58 34L57 34L57 35L56 35L56 36L53 36L53 37L51 37L51 36L52 36L52 35L53 35L53 34L54 34L54 35L55 35L55 33L56 33L56 32L54 32L54 33L53 33L53 34L52 34L52 33L51 33L51 32L52 32L52 31L51 31L51 32L50 32L50 33L48 33L48 32L49 32L49 31L50 31L50 29L49 29L49 30L47 30L47 31L48 31L48 32L44 32L44 33L43 33L43 34L41 34L41 33L42 33L42 32L40 32L40 34L41 34L41 35L43 35L43 36L40 36L40 38L39 38L39 37L38 37L38 36L39 36L39 35L35 35L35 36L32 36L32 35L34 35L34 34L36 34L36 33L35 33L35 32L37 32L37 34L39 34L39 33L38 33L38 32L39 32L39 29L38 29L38 28L40 28L40 31L46 31L46 30L44 30L44 29L43 29L43 28L44 28L44 27L42 27L42 26L41 26L41 27L42 27L42 29L43 29L43 30L41 30L41 28L40 28L40 27L39 27L39 26L40 26L40 25L41 25L41 24L42 24L42 25L43 25L43 26L44 26L44 23L46 23L46 24L50 24L50 25L49 25L49 26L50 26L50 27L49 27L49 28L50 28L50 27L51 27L51 28L52 28L52 29L53 29L53 30L54 30L54 31L55 31L55 29L56 29L56 28L55 28L55 29L54 29L54 28L53 28L53 26L54 26L54 25L53 25L53 24L52 24L52 23L55 23L55 21L54 21L54 20L53 20L53 21L52 21L52 23L51 23L51 24L50 24L50 23L46 23L46 22L48 22L48 21L49 21L49 22L51 22L51 20L50 20L50 18L51 18L51 17L50 17L50 16L49 16L49 17L47 17L47 19L46 19L46 17L45 17L45 16L46 16L46 14L47 14L47 15L49 15L49 14L50 14L50 13L51 13L51 12L50 12L50 11L49 11L49 14L48 14L48 13L47 13L47 12L48 12L48 11L46 11L46 13L45 13L45 12L44 12L44 11L45 11L45 10L46 10L46 9L45 9L45 10L44 10L44 9L43 9L43 10L42 10L42 9L41 9L41 8L42 8L42 6L43 6L43 7L44 7L44 6L43 6L43 5L42 5L42 4L43 4L43 3L42 3L42 2L41 2L41 1L40 1L40 2L41 2L41 3L40 3L40 4L39 4L39 3L37 3L37 2L36 2L36 1L35 1L35 2L34 2L34 3L30 3L30 2L31 2L31 1L29 1L29 2L27 2L27 3L25 3L25 2L26 2L26 1L23 1L23 2L22 2L22 1ZM57 1L57 3L58 3L58 2L60 2L60 1ZM35 2L35 3L36 3L36 4L37 4L37 3L36 3L36 2ZM41 3L41 4L42 4L42 3ZM44 3L44 4L45 4L45 3ZM50 3L50 4L52 4L52 3ZM30 4L30 5L31 5L31 6L32 6L32 8L33 8L33 5L32 5L32 4ZM62 4L62 5L63 5L63 4ZM25 5L25 8L28 8L28 5ZM34 5L34 7L35 7L35 5ZM36 5L36 7L37 7L37 5ZM38 5L38 7L39 7L39 5ZM45 5L45 8L48 8L48 5ZM26 6L26 7L27 7L27 6ZM40 6L40 8L41 8L41 6ZM46 6L46 7L47 7L47 6ZM49 6L49 8L50 8L50 6ZM51 6L51 8L52 8L52 9L53 9L53 8L52 8L52 6ZM53 6L53 7L54 7L54 6ZM64 6L64 8L65 8L65 6ZM58 7L58 10L57 10L57 11L58 11L58 10L59 10L59 11L60 11L60 10L59 10L59 9L60 9L60 8L59 8L59 7ZM0 8L0 9L1 9L1 8ZM35 8L35 10L33 10L33 9L32 9L32 11L33 11L33 14L34 14L34 16L35 16L35 17L37 17L37 18L36 18L36 19L34 19L34 17L33 17L33 18L32 18L32 16L33 16L33 15L32 15L32 16L31 16L31 15L30 15L30 16L29 16L29 14L32 14L32 12L31 12L31 11L30 11L30 12L29 12L29 14L27 14L27 16L25 16L25 17L26 17L26 19L27 19L27 16L28 16L28 17L30 17L30 18L28 18L28 21L30 21L30 22L31 22L31 23L32 23L32 24L30 24L30 23L29 23L29 22L27 22L27 21L26 21L26 22L25 22L25 23L23 23L23 21L22 21L22 20L23 20L23 19L24 19L24 20L25 20L25 19L24 19L24 18L22 18L22 20L21 20L21 21L22 21L22 25L24 25L24 26L21 26L21 22L20 22L20 25L18 25L18 24L19 24L19 23L18 23L18 22L19 22L19 20L20 20L20 19L21 19L21 16L22 16L22 14L21 14L21 13L20 13L20 14L21 14L21 15L20 15L20 16L19 16L19 18L20 18L20 19L18 19L18 18L16 18L16 17L14 17L14 16L15 16L15 13L13 13L13 12L15 12L15 10L14 10L14 11L13 11L13 12L12 12L12 13L11 13L11 12L10 12L10 14L8 14L8 16L9 16L9 17L8 17L8 18L6 18L6 19L8 19L8 20L9 20L9 21L7 21L7 22L9 22L9 23L10 23L10 24L11 24L11 23L10 23L10 22L9 22L9 21L11 21L11 22L13 22L13 25L14 25L14 26L15 26L15 25L14 25L14 23L15 23L15 24L16 24L16 25L17 25L17 26L16 26L16 27L14 27L14 29L13 29L13 27L12 27L12 29L13 29L13 30L14 30L14 31L12 31L12 32L13 32L13 33L12 33L12 34L11 34L11 35L9 35L9 38L5 38L5 40L6 40L6 41L7 41L7 42L10 42L10 41L7 41L7 40L8 40L8 39L9 39L9 38L11 38L11 39L12 39L12 38L11 38L11 37L10 37L10 36L11 36L11 35L12 35L12 36L13 36L13 39L14 39L14 40L13 40L13 41L12 41L12 40L11 40L11 41L12 41L12 43L11 43L11 44L13 44L13 45L14 45L14 46L13 46L13 47L14 47L14 46L15 46L15 48L17 48L17 47L16 47L16 46L18 46L18 45L20 45L20 44L21 44L21 40L22 40L22 39L21 39L21 38L23 38L23 37L25 37L25 35L24 35L24 34L26 34L26 35L27 35L27 36L26 36L26 38L24 38L24 39L23 39L23 40L29 40L29 39L31 39L31 38L32 38L32 40L33 40L33 41L32 41L32 42L33 42L33 41L34 41L34 40L33 40L33 39L35 39L35 40L36 40L36 41L37 41L37 42L36 42L36 43L37 43L37 44L35 44L35 42L34 42L34 44L33 44L33 45L32 45L32 46L33 46L33 49L35 49L35 48L34 48L34 47L36 47L36 46L33 46L33 45L37 45L37 44L41 44L41 45L39 45L39 46L38 46L38 47L37 47L37 48L36 48L36 50L37 50L37 48L38 48L38 49L39 49L39 50L38 50L38 51L39 51L39 50L40 50L40 49L39 49L39 46L41 46L41 48L42 48L42 49L41 49L41 50L44 50L44 51L46 51L46 50L44 50L44 49L48 49L48 50L49 50L49 51L48 51L48 52L49 52L49 51L52 51L52 50L51 50L51 49L52 49L52 48L51 48L51 47L50 47L50 46L49 46L49 45L50 45L50 44L51 44L51 46L52 46L52 47L53 47L53 48L54 48L54 49L55 49L55 48L56 48L56 46L58 46L58 45L59 45L59 44L60 44L60 45L62 45L62 44L61 44L61 43L62 43L62 42L61 42L61 41L62 41L62 40L63 40L63 39L62 39L62 38L61 38L61 39L62 39L62 40L60 40L60 39L57 39L57 38L55 38L55 37L54 37L54 38L53 38L53 39L54 39L54 40L56 40L56 42L58 42L58 43L54 43L54 42L53 42L53 41L52 41L52 40L51 40L51 39L52 39L52 38L51 38L51 37L50 37L50 36L51 36L51 35L50 35L50 34L48 34L48 33L47 33L47 34L48 34L48 36L47 36L47 35L44 35L44 36L43 36L43 37L42 37L42 38L43 38L43 39L42 39L42 40L43 40L43 41L42 41L42 42L41 42L41 43L39 43L39 42L40 42L40 41L39 41L39 40L41 40L41 38L40 38L40 39L39 39L39 38L38 38L38 37L37 37L37 36L35 36L35 38L32 38L32 36L31 36L31 35L30 35L30 34L34 34L34 31L38 31L38 29L37 29L37 28L35 28L35 27L34 27L34 28L35 28L35 30L33 30L33 29L32 29L32 28L33 28L33 27L32 27L32 28L31 28L31 25L32 25L32 24L34 24L34 25L35 25L35 24L34 24L34 23L35 23L35 22L33 22L33 20L31 20L31 19L34 19L34 21L37 21L37 22L36 22L36 23L37 23L37 24L36 24L36 25L37 25L37 27L38 27L38 24L41 24L41 23L42 23L42 22L43 22L43 23L44 23L44 18L45 18L45 17L44 17L44 18L43 18L43 16L44 16L44 14L43 14L43 13L42 13L42 10L41 10L41 14L38 14L38 11L39 11L39 12L40 12L40 11L39 11L39 10L38 10L38 11L37 11L37 8ZM66 8L66 9L70 9L70 11L71 11L71 12L68 12L68 13L71 13L71 12L72 12L72 13L73 13L73 12L72 12L72 11L73 11L73 10L72 10L72 9L71 9L71 8ZM4 9L4 10L7 10L7 9ZM28 9L28 10L29 10L29 9ZM47 9L47 10L48 10L48 9ZM61 9L61 10L62 10L62 9ZM35 10L35 11L34 11L34 12L35 12L35 11L36 11L36 10ZM43 10L43 11L44 11L44 10ZM63 10L63 11L64 11L64 10ZM3 11L3 12L4 12L4 11ZM17 12L17 13L16 13L16 14L17 14L17 15L16 15L16 16L17 16L17 15L19 15L19 14L18 14L18 12ZM22 12L22 13L23 13L23 14L25 14L25 13L27 13L27 12L25 12L25 13L24 13L24 12ZM30 12L30 13L31 13L31 12ZM34 13L34 14L35 14L35 15L36 15L36 13ZM0 14L0 15L1 15L1 14ZM10 14L10 15L11 15L11 16L12 16L12 17L11 17L11 18L10 18L10 19L12 19L12 21L13 21L13 22L14 22L14 21L15 21L15 20L16 20L16 22L15 22L15 23L17 23L17 20L18 20L18 19L17 19L17 20L16 20L16 18L13 18L13 16L14 16L14 15L13 15L13 16L12 16L12 15L11 15L11 14ZM37 14L37 15L38 15L38 14ZM42 14L42 15L41 15L41 16L38 16L38 18L37 18L37 19L36 19L36 20L38 20L38 22L37 22L37 23L38 23L38 22L39 22L39 21L40 21L40 22L41 22L41 21L43 21L43 20L42 20L42 19L41 19L41 18L40 18L40 20L38 20L38 19L39 19L39 17L41 17L41 16L42 16L42 15L43 15L43 14ZM53 14L53 15L54 15L54 14ZM57 14L57 15L58 15L58 14ZM61 14L61 15L62 15L62 14ZM66 15L66 16L67 16L67 17L68 17L68 18L67 18L67 19L68 19L68 20L69 20L69 21L70 21L70 22L72 22L72 21L70 21L70 20L71 20L71 19L72 19L72 18L71 18L71 17L68 17L68 16L72 16L72 15L68 15L68 16L67 16L67 15ZM61 16L61 17L60 17L60 19L61 19L61 17L62 17L62 16ZM8 18L8 19L9 19L9 18ZM12 18L12 19L13 19L13 20L14 20L14 19L13 19L13 18ZM68 18L68 19L70 19L70 18ZM45 19L45 21L46 21L46 19ZM48 19L48 20L47 20L47 21L48 21L48 20L49 20L49 21L50 21L50 20L49 20L49 19ZM63 20L63 21L64 21L64 20ZM66 20L66 21L65 21L65 22L66 22L66 21L67 21L67 20ZM31 21L31 22L32 22L32 21ZM56 21L56 23L57 23L57 21ZM25 23L25 24L27 24L27 23ZM28 23L28 24L29 24L29 23ZM59 23L59 24L60 24L60 23ZM51 24L51 25L52 25L52 26L53 26L53 25L52 25L52 24ZM55 24L55 27L58 27L58 26L56 26L56 24ZM5 25L5 28L8 28L8 25ZM25 25L25 28L28 28L28 25ZM45 25L45 28L48 28L48 25ZM60 25L60 26L61 26L61 25ZM65 25L65 28L68 28L68 25ZM6 26L6 27L7 27L7 26ZM17 26L17 30L16 30L16 28L15 28L15 30L16 30L16 31L14 31L14 33L13 33L13 34L14 34L14 33L15 33L15 35L18 35L18 36L16 36L16 37L15 37L15 36L14 36L14 38L16 38L16 40L14 40L14 41L13 41L13 43L14 43L14 41L16 41L16 40L17 40L17 38L21 38L21 37L20 37L20 35L21 35L21 36L22 36L22 37L23 37L23 36L24 36L24 35L23 35L23 34L24 34L24 32L25 32L25 33L27 33L27 35L28 35L28 36L27 36L27 38L26 38L26 39L27 39L27 38L28 38L28 39L29 39L29 38L28 38L28 36L29 36L29 34L30 34L30 30L29 30L29 32L28 32L28 33L27 33L27 32L26 32L26 31L25 31L25 30L26 30L26 29L24 29L24 30L21 30L21 31L22 31L22 33L21 33L21 32L20 32L20 30L19 30L19 28L20 28L20 26L19 26L19 28L18 28L18 26ZM26 26L26 27L27 27L27 26ZM46 26L46 27L47 27L47 26ZM66 26L66 27L67 27L67 26ZM21 27L21 29L22 29L22 27ZM29 27L29 29L31 29L31 33L33 33L33 32L32 32L32 31L33 31L33 30L32 30L32 29L31 29L31 28L30 28L30 27ZM3 29L3 30L4 30L4 29ZM6 29L6 30L5 30L5 31L6 31L6 32L7 32L7 31L6 31L6 30L7 30L7 29ZM27 29L27 30L28 30L28 29ZM36 29L36 30L37 30L37 29ZM17 30L17 31L18 31L18 33L17 33L17 32L16 32L16 33L17 33L17 34L18 34L18 33L20 33L20 34L21 34L21 33L20 33L20 32L19 32L19 31L18 31L18 30ZM72 30L72 31L73 31L73 30ZM23 31L23 32L24 32L24 31ZM62 31L62 32L63 32L63 31ZM64 32L64 33L65 33L65 34L66 34L66 36L67 36L67 34L66 34L66 33L65 33L65 32ZM45 33L45 34L46 34L46 33ZM4 34L4 36L5 36L5 34ZM6 35L6 36L7 36L7 35ZM22 35L22 36L23 36L23 35ZM49 35L49 36L48 36L48 37L49 37L49 38L47 38L47 36L45 36L45 37L43 37L43 38L44 38L44 39L43 39L43 40L44 40L44 41L43 41L43 42L42 42L42 43L41 43L41 44L42 44L42 45L41 45L41 46L42 46L42 47L43 47L43 49L44 49L44 46L42 46L42 45L44 45L44 44L42 44L42 43L44 43L44 41L46 41L46 42L45 42L45 43L46 43L46 44L49 44L49 43L48 43L48 42L50 42L50 41L51 41L51 40L49 40L49 38L50 38L50 37L49 37L49 36L50 36L50 35ZM30 36L30 37L31 37L31 36ZM56 36L56 37L57 37L57 36ZM45 37L45 38L46 38L46 40L47 40L47 42L48 42L48 41L49 41L49 40L47 40L47 38L46 38L46 37ZM36 38L36 40L37 40L37 41L38 41L38 42L39 42L39 41L38 41L38 40L39 40L39 39L38 39L38 38ZM6 39L6 40L7 40L7 39ZM19 39L19 41L20 41L20 39ZM44 39L44 40L45 40L45 39ZM57 40L57 41L58 41L58 42L60 42L60 40ZM66 40L66 41L67 41L67 43L69 43L69 42L68 42L68 41L67 41L67 40ZM22 41L22 42L23 42L23 43L24 43L24 42L23 42L23 41ZM26 41L26 42L25 42L25 43L26 43L26 42L27 42L27 43L28 43L28 42L29 42L29 41L28 41L28 42L27 42L27 41ZM30 41L30 42L31 42L31 41ZM18 42L18 43L15 43L15 46L16 46L16 44L18 44L18 43L20 43L20 42ZM52 42L52 43L51 43L51 44L52 44L52 43L53 43L53 42ZM54 44L54 45L52 45L52 46L54 46L54 47L55 47L55 46L56 46L56 44ZM3 45L3 46L4 46L4 45ZM5 45L5 48L8 48L8 45ZM11 45L11 46L12 46L12 45ZM25 45L25 48L28 48L28 45ZM45 45L45 48L48 48L48 45ZM65 45L65 48L68 48L68 45ZM6 46L6 47L7 47L7 46ZM26 46L26 47L27 47L27 46ZM46 46L46 47L47 47L47 46ZM66 46L66 47L67 47L67 46ZM71 46L71 48L70 48L70 49L71 49L71 48L72 48L72 49L73 49L73 46ZM49 48L49 50L50 50L50 48ZM15 49L15 50L16 50L16 49ZM25 49L25 50L26 50L26 49ZM10 51L10 52L9 52L9 53L7 53L7 52L6 52L6 53L5 53L5 54L6 54L6 55L9 55L9 53L10 53L10 52L11 52L11 51ZM33 51L33 52L34 52L34 51ZM40 51L40 52L41 52L41 51ZM42 51L42 52L43 52L43 51ZM53 51L53 52L54 52L54 51ZM45 52L45 53L40 53L40 54L39 54L39 56L38 56L38 57L37 57L37 56L36 56L36 57L37 57L37 58L36 58L36 59L37 59L37 58L38 58L38 60L41 60L41 58L43 58L43 57L42 57L42 56L44 56L44 55L43 55L43 54L45 54L45 55L46 55L46 54L45 54L45 53L46 53L46 52ZM51 52L51 53L52 53L52 52ZM60 52L60 54L61 54L61 52ZM69 52L69 53L68 53L68 56L69 56L69 55L70 55L70 54L69 54L69 53L70 53L70 52ZM6 53L6 54L7 54L7 53ZM48 53L48 54L47 54L47 55L49 55L49 53ZM66 53L66 54L67 54L67 53ZM1 54L1 55L2 55L2 57L3 57L3 58L2 58L2 59L4 59L4 58L5 58L5 57L3 57L3 56L4 56L4 55L2 55L2 54ZM29 54L29 55L30 55L30 54ZM40 54L40 56L39 56L39 57L38 57L38 58L39 58L39 59L40 59L40 57L41 57L41 56L42 56L42 55L41 55L41 54ZM72 54L72 55L73 55L73 54ZM25 55L25 57L27 57L27 58L28 58L28 57L27 57L27 55ZM49 56L49 57L50 57L50 56ZM6 57L6 58L9 58L9 57ZM70 57L70 58L71 58L71 57ZM56 58L56 59L57 59L57 58ZM62 58L62 59L60 59L60 60L59 60L59 61L58 61L58 62L56 62L56 61L57 61L57 60L55 60L55 63L54 63L54 65L52 65L52 66L51 66L51 67L49 67L49 70L50 70L50 71L51 71L51 72L52 72L52 69L53 69L53 70L54 70L54 71L53 71L53 72L55 72L55 71L56 71L56 72L57 72L57 71L58 71L58 72L59 72L59 71L61 71L61 72L62 72L62 71L61 71L61 70L62 70L62 68L64 68L64 67L63 67L63 66L64 66L64 65L63 65L63 64L68 64L68 63L69 63L69 61L68 61L68 63L66 63L66 62L67 62L67 61L65 61L65 59L63 59L63 58ZM5 59L5 60L7 60L7 59ZM13 59L13 60L14 60L14 59ZM17 59L17 60L19 60L19 59ZM44 59L44 60L46 60L46 61L47 61L47 62L48 62L48 63L47 63L47 64L48 64L48 63L49 63L49 62L50 62L50 64L52 64L52 63L53 63L53 62L54 62L54 61L53 61L53 62L52 62L52 61L49 61L49 62L48 62L48 60L50 60L50 59ZM51 59L51 60L52 60L52 59ZM53 59L53 60L54 60L54 59ZM60 60L60 61L59 61L59 62L58 62L58 63L55 63L55 64L56 64L56 65L57 65L57 66L58 66L58 67L56 67L56 66L55 66L55 65L54 65L54 66L52 66L52 67L51 67L51 69L50 69L50 70L51 70L51 69L52 69L52 68L53 68L53 67L54 67L54 69L55 69L55 68L58 68L58 67L59 67L59 68L60 68L60 69L59 69L59 70L58 70L58 69L56 69L56 71L57 71L57 70L58 70L58 71L59 71L59 70L60 70L60 69L61 69L61 67L62 67L62 66L61 66L61 64L63 64L63 63L64 63L64 62L65 62L65 61L64 61L64 60L62 60L62 61L64 61L64 62L62 62L62 63L61 63L61 60ZM4 61L4 63L5 63L5 61ZM6 61L6 62L7 62L7 61ZM14 61L14 62L16 62L16 61ZM17 61L17 63L18 63L18 62L19 62L19 63L20 63L20 62L21 62L21 64L22 64L22 63L26 63L26 62L24 62L24 61L23 61L23 62L21 62L21 61ZM32 61L32 62L33 62L33 61ZM41 62L41 63L42 63L42 62ZM59 62L59 63L58 63L58 64L59 64L59 65L60 65L60 64L61 64L61 63L60 63L60 62ZM59 63L59 64L60 64L60 63ZM0 64L0 65L1 65L1 64ZM6 64L6 65L7 65L7 64ZM17 64L17 65L18 65L18 66L17 66L17 67L16 67L16 69L17 69L17 68L18 68L18 66L21 66L21 67L20 67L20 69L18 69L18 70L20 70L20 69L21 69L21 68L24 68L24 66L23 66L23 67L22 67L22 65L20 65L20 64L19 64L19 65L18 65L18 64ZM23 64L23 65L24 65L24 64ZM25 65L25 68L28 68L28 65ZM38 65L38 66L37 66L37 67L36 67L36 68L37 68L37 69L36 69L36 70L35 70L35 69L34 69L34 70L33 70L33 68L32 68L32 71L31 71L31 72L32 72L32 71L33 71L33 72L34 72L34 70L35 70L35 72L37 72L37 71L38 71L38 70L39 70L39 69L38 69L38 66L39 66L39 65ZM45 65L45 68L48 68L48 65ZM49 65L49 66L50 66L50 65ZM65 65L65 68L68 68L68 65ZM71 65L71 66L72 66L72 67L73 67L73 66L72 66L72 65ZM26 66L26 67L27 67L27 66ZM29 66L29 67L31 67L31 66ZM40 66L40 67L39 67L39 68L40 68L40 69L41 69L41 68L42 68L42 67L44 67L44 66ZM46 66L46 67L47 67L47 66ZM54 66L54 67L55 67L55 66ZM59 66L59 67L60 67L60 66ZM66 66L66 67L67 67L67 66ZM8 67L8 71L9 71L9 69L11 69L11 70L10 70L10 72L8 72L8 73L11 73L11 72L12 72L12 71L11 71L11 70L12 70L12 69L13 69L13 70L14 70L14 69L13 69L13 68L12 68L12 69L11 69L11 68L9 68L9 67ZM34 67L34 68L35 68L35 67ZM40 67L40 68L41 68L41 67ZM29 68L29 69L30 69L30 68ZM27 69L27 70L28 70L28 69ZM36 70L36 71L37 71L37 70ZM68 70L68 71L69 71L69 70ZM0 0L0 7L7 7L7 0ZM1 1L1 6L6 6L6 1ZM2 2L2 5L5 5L5 2ZM66 0L66 7L73 7L73 0ZM67 1L67 6L72 6L72 1ZM68 2L68 5L71 5L71 2ZM0 66L0 73L7 73L7 66ZM1 67L1 72L6 72L6 67ZM2 68L2 71L5 71L5 68Z" fill="#000000"/></g></g></svg>
